<?xml version="1.0" encoding="utf-8"?>
<!-- Generator: Adobe Illustrator 16.0.0, SVG Export Plug-In . SVG Version: 6.00 Build 0)  -->
<!DOCTYPE svg PUBLIC "-//W3C//DTD SVG 1.1//EN" "http://www.w3.org/Graphics/SVG/1.1/DTD/svg11.dtd">
<svg version="1.1" id="Layer_1" xmlns="http://www.w3.org/2000/svg" xmlns:xlink="http://www.w3.org/1999/xlink" x="0px" y="0px"
	 width="425px" height="425px" viewBox="0 0 425 425" enable-background="new 0 0 425 425" xml:space="preserve">
<path fill="#414246" d="M425,397c0,15.464-12.536,28-28,28H28c-15.464,0-28-12.536-28-28V28C0,12.536,12.536,0,28,0h369
	c15.464,0,28,12.536,28,28V397z"/>
<g>
	<path fill="#FFFFFF" d="M376,121.5c0,13.531-9.827,24.5-21.949,24.5H76.325c-12.122,0-21.949-10.969-21.949-24.5l0,0
		c0-13.531,9.827-24.5,21.949-24.5h277.726C366.173,97,376,107.969,376,121.5L376,121.5z"/>
	<path fill="#FFFFFF" d="M370.625,212.5c0,13.531-9.827,24.5-21.949,24.5H70.949C58.827,237,49,226.031,49,212.5l0,0
		c0-13.531,9.827-24.5,21.949-24.5h277.726C360.797,188,370.625,198.969,370.625,212.5L370.625,212.5z"/>
	<path fill="#FFFFFF" d="M370.625,303.5c0,13.531-9.827,24.5-21.949,24.5H70.949C58.827,328,49,317.031,49,303.5l0,0
		c0-13.531,9.827-24.5,21.949-24.5h277.726C360.797,279,370.625,289.969,370.625,303.5L370.625,303.5z"/>
</g>
</svg>
