<?xml version="1.0" encoding="utf-8"?>
<!-- Generator: Adobe Illustrator 16.0.0, SVG Export Plug-In . SVG Version: 6.00 Build 0)  -->
<!DOCTYPE svg PUBLIC "-//W3C//DTD SVG 1.1//EN" "http://www.w3.org/Graphics/SVG/1.1/DTD/svg11.dtd">
<svg version="1.1" id="Layer_1" xmlns="http://www.w3.org/2000/svg" xmlns:xlink="http://www.w3.org/1999/xlink" x="0px" y="0px"
	 width="256.987px" height="507.191px" viewBox="0 0 256.987 507.191" enable-background="new 0 0 256.987 507.191"
	 xml:space="preserve">
<g>
	<path fill-rule="evenodd" clip-rule="evenodd" d="M146.942,6.172c0.708,2.075,3.168,9.003,3.168,9.003
		c-0.32-1.031,1.529,4.674,0.815,6.643c-2.524,0.675-0.962-1.09-6.257-14.684c0.3-0.231,0.485-0.562,0.634-0.922
		C145.848,6.198,146.393,6.187,146.942,6.172z"/>
	<path fill-rule="evenodd" clip-rule="evenodd" d="M155.191,8.393c6.863,7.825,2.654,26.562,3.035,16.879
		c0.15-3.615-4.351-14.454-4.969-15.621c-0.404-0.39-0.14-0.472-0.025-0.907C153.612,8.387,154.385,8.374,155.191,8.393z"/>
	<path fill-rule="evenodd" clip-rule="evenodd" d="M142.459,10.819c0.494,0.609,2.483,8.676,1.876,9.644
		C143.063,20.48,137.198,10.64,142.459,10.819z"/>
	<path fill-rule="evenodd" clip-rule="evenodd" d="M179.763,61.379c-1.82,0.318-0.799-2.117-2.025-2.373
		c2.221-6.534-7.392-37.987-11.499-41.498c-0.008-0.301-0.017-0.603-0.022-0.907C174.876,13.553,181.822,60.188,179.763,61.379z"/>
	<path fill-rule="evenodd" clip-rule="evenodd" d="M134.175,20.709c1.651,4.224,0.168,63.355-1.061,64.502
		c1.157,8.473,2.39,44.442,2.39,44.442c4.96,5.255,2.72,2.28,1.426,4.809c-1.242,0.174-2.048-0.079-2.317-0.851
		c-4.336-5.107-3.798-91.318-2.083-99.543c-0.402-0.823-1.969-11.799-1.932-12.062c0.575-0.681,0.967-1.52,1.923-1.864
		C133.148,20.257,133.134,20.992,134.175,20.709z"/>
	<path fill-rule="evenodd" clip-rule="evenodd" d="M144.421,24.093c0.528-0.098,0.573,0.273,0.992,0.278
		c0.318,0.88,0.319,0.923,0.046,1.815c0.668,0.545,0.468,1.714,0.735,3.314c0.147,0.899,0.584,2.365-0.919,2.745
		c-1.015-0.49-0.992-2.233-1.399-3.601C143.458,27.228,142.548,25.343,144.421,24.093z"/>
	<path fill-rule="evenodd" clip-rule="evenodd" d="M175.575,23.943c0.764-0.017,1.533-0.038,2.296-0.055
		c1.44,3.622,10.691,27.829,6.573,27.691c-0.583-0.138-0.458-0.747-0.685-1.196c0,0-1.174-6.154-8.158-25.532
		C175.589,24.549,175.583,24.246,175.575,23.943z"/>
	<path fill-rule="evenodd" clip-rule="evenodd" d="M87.161,69.979c-1.727,0.328-1.864-0.878-2.661-1.446
		c1.133,0.994,8.697,32.477,11.65,34.225c0.186,5.475,9.348,16.346,9.262,16.725c-1.286,1.022-1.848-0.729-3.292-0.524
		c-5.658-10.504-31.056-66.42-20.696-69.123c0.997,0.626,1.275,2.003,0.398,3.018c0.398,1.014,1.65,12.91,2.626,13.557
		c-0.726,0.145-0.278,1.667,0.364,1.507c0.188-0.17,1.245-10.302,1.026-11.833c0.681-0.29,0.074-1.709,0.939-1.837
		c-1.292-6.589,6.081-24.714,6.25-26.186c1.221-0.208,1.843-0.956,2.623-0.063C89.262,42.441,87.161,69.979,87.161,69.979z"/>
	<path fill-rule="evenodd" clip-rule="evenodd" d="M85.251,31.883c0.379-0.061,0.585,0.054,0.662,0.29
		c1.196,1.231,0.077,3.625-0.521,5.459c-0.269,0.823-0.744,1.654-0.925,2.442c-0.449,1.946,0.309,3.704-1.194,4.875
		c-2.467-0.607-1.635-3.07-0.795-5.734c0.634-2.004,1.796-3.797,1.806-6.701C84.845,32.512,85.125,32.268,85.251,31.883z"/>
	<path fill-rule="evenodd" clip-rule="evenodd" d="M167.886,31.395c0.219,1.02,7.494,25.033,6.609,29.202
		c-0.655,0.016-1.31,0.033-1.965,0.046c-0.583-1.008-3.412-25.947-7.236-27.975C165.737,31.873,166.316,31.2,167.886,31.395z"/>
	<path fill-rule="evenodd" clip-rule="evenodd" d="M187.575,45.448c0.383-0.058,0.585,0.052,0.663,0.286
		c1.972-0.163,1.963,3.7,1.707,2.685c0,0,4.995,14.847,4.947,14.714c3.52,9.805,7.261,17.107,6.771,22.234
		c-1.077-0.369-10.253-30.733-12.237-31.185C189.811,50.961,187.658,50.275,187.575,45.448z"/>
	<path fill-rule="evenodd" clip-rule="evenodd" d="M95.597,52.822c0.59,0.722-3.038,32.673-3.14,32.769
		c-4.029-2.605,1.571-29.002,2.157-32.746C94.94,52.839,95.27,52.831,95.597,52.822z"/>
	<path fill-rule="evenodd" clip-rule="evenodd" d="M185.669,61.537c2.306,1.766,8.259,22.136,7.127,23.438
		c0.497,0.348,0.942,0.739,1.341,1.179c0.304,3.42,1.517,5.961,1.867,9.34c-0.671,1.021-0.976-0.885-1.981-0.558
		c0.575-2.704-1.662-4.746-1.175-7.841c-0.113-0.614-0.678-0.792-1.012-1.187c-0.264-1.018-3.321-13.959-4.971-15.621
		c-0.432-2.678-1.566-4.673-3.104-6.284c-0.013-0.604-0.03-1.208-0.044-1.815C184.4,61.999,184.635,61.418,185.669,61.537z"/>
	<path fill-rule="evenodd" clip-rule="evenodd" d="M97.443,74.875c0.528-0.099,0.571,0.275,0.993,0.279
		c0.216,1.06,1.154,15.676-0.597,16.061C94.429,90.943,97.184,75.907,97.443,74.875z"/>
	<path fill-rule="evenodd" clip-rule="evenodd" d="M184.027,88.52c-0.547,0.013-1.093,0.027-1.638,0.039
		c-0.626-0.562-0.054-0.758-0.037-1.513c-1.016-0.945-1.497-3.818-1.109-5.119c-1.172-1.133-1.337-3.244-2.404-4.482
		c-0.161-1.033,0.961-0.933,1.274-1.543c0.529-0.101,0.574,0.271,0.992,0.276c0.136,1.007,0.981,1.322,0.72,2.707
		c1.139,1.174,1.67,3.979,1.458,6.02c0.091,0.326,0.656,0.19,0.67,0.59C183.491,87.056,184.49,86.957,184.027,88.52z"/>
	<path fill-rule="evenodd" clip-rule="evenodd" d="M160.142,77.292c0.878,0.432,0.362,1.286,0.706,2.103
		c0.198,0.47,0.859,0.96,1.021,1.49c0.232,0.744-0.102,1.691,0.386,2.411c-0.667,0.106-0.623,0.832-1.288,0.941
		c-2.234-0.521-2.207-3.231-2.756-5.383c0.374-0.463,0.93-0.764,0.948-1.537C159.487,77.308,159.815,77.299,160.142,77.292z"/>
	<path fill-rule="evenodd" clip-rule="evenodd" d="M148.221,86.055c2.057,3.802,3.521,17.966,3.41,18.991
		c-0.703-0.124-0.614,0.448-0.632,0.923c-3.643,0.005-1.708-15.547-4.702-18.049c0.281-0.643,0.479-1.355,0.939-1.84
		C147.566,86.073,147.891,86.065,148.221,86.055z"/>
	<path fill-rule="evenodd" clip-rule="evenodd" d="M201.101,89.316c0.4,1.36,1.276,2.135,0.745,3.615
		c-1.147,0.558-0.812-0.182-1.975-0.254C200.926,91.575,198.062,89.565,201.101,89.316z"/>
	<path fill-rule="evenodd" clip-rule="evenodd" d="M138.551,92.951c0.326-0.007,0.655-0.016,0.98-0.023
		c1.614,2.077,1.902,5.326,2.174,8.423c1.29,14.826,1.861,13.555,0.359,14.824c-0.192,0.036-1.684-1.775-1.684-1.775l-2.097-19.021
		C138.229,94.554,138.433,93.759,138.551,92.951z"/>
	<path fill-rule="evenodd" clip-rule="evenodd" d="M182.538,94.61c0.614,1.016,6.645,19.6,6.769,22.236
		c0.376,1.093,1.797,2.437,1.072,3.606c-3.388-2.08-9.579-23.866-9.787-24.887C181.387,95.379,181.262,94.376,182.538,94.61z"/>
	<path fill-rule="evenodd" clip-rule="evenodd" d="M110.208,100.904c0.529,1.76-0.265,4.147-0.167,6.664
		c0.086,2.166,1.452,4.869-0.509,6.067c-0.997-0.02-1.05-0.45-1.339-1.179c-0.233-0.589,0.061-1.214-0.043-1.814
		c-0.11-0.651-0.645-1.484-0.708-2.103c-0.294-2.837-0.157-6.27,1.458-7.603C109.334,100.925,109.774,100.916,110.208,100.904z"/>
	<path fill-rule="evenodd" clip-rule="evenodd" d="M208.877,126.059c-1.333,0.36-0.795-0.679-1.338-1.176
		c-0.007-0.009-10.805-25.154-10.793-25.773c0.713-0.719,1.282,0.069,2.296-0.057C199.335,100.071,210.755,125.095,208.877,126.059z
		"/>
	<path fill-rule="evenodd" clip-rule="evenodd" d="M41.51,108.018c0.125,2.379-1.429,3.281-2.845,4.306
		c-2.359,1.703-5.126,7.087-6.923,9.457c-1.864,2.456-3.693,5.108-4.479,8.052c-0.502,1.882,0.262,5.476-0.147,6.685
		c-0.366,1.081-1.411,1.868-2.582,1.877c-1.742-0.795-0.043-8.625,0.508-10.037c2.314-5.932,6.914-11.825,10.979-16.878
		c0.904-1.123,2.175-2.07,2.867-3.4C40.065,107.946,40.457,107.579,41.51,108.018z"/>
	<path fill-rule="evenodd" clip-rule="evenodd" d="M53.785,113.772c0,0-0.464,48.447-0.464,48.446
		c9.998,45.246,20.955,52.772,20.955,52.772c1.824,0.813,2.194,3.035,4.028,3.836c-0.291,1.5,1.904,2.101,4.06,5.05
		c2.009,0.412,3.389,3.239,3.037,3.558c-1.961,0.801-2.4-0.995-4.29-1.105c-2.156-3.79-37.62-27.816-29.027-101.616
		c-1.145-6.172-0.299-9.865,0.717-10.916C53.129,113.79,53.456,113.782,53.785,113.772z"/>
	<path fill-rule="evenodd" clip-rule="evenodd" d="M216.359,123.457c-1.082,0.015-1.274-0.831-1.356-1.786
		c-0.019-0.002-4.789-9.566-4.823-9.568c0.677-0.07,1.658-0.824,2.615-0.366c0.741,1.759,1.779,3.228,2.098,5.397
		c0.588,0.782,1.971,2.413,1.074,3.607C216.62,121.489,217.31,122.83,216.359,123.457z"/>
	<path fill-rule="evenodd" clip-rule="evenodd" d="M194.113,112.19c0.588-0.053,0.699,0.354,1.317,0.271l3.185,9.609
		c-0.605,0.059-0.176,1.028-0.627,1.225c-2.272,0.346-1.695-2.072-3.334-2.342c0.18-0.728,0.437-1.39,0.268-2.427
		C194.921,118.526,193.048,115.894,194.113,112.19z"/>
	<path fill-rule="evenodd" clip-rule="evenodd" d="M187.107,120.834c0.526-0.096,0.571,0.275,0.989,0.279
		c0,0,3.423,5.969,3.426,5.972c0,0,4.522,13.104,4.663,16.538c0.039,0.934,0.309,2.108-0.59,2.738
		c-2.148-0.213-1.324-1.535-1.703-2.683c-0.161-0.482-0.306-0.874-0.359-1.202c-1.313-8.48-7.054-20.414-7.054-20.414
		C186.221,121.241,187.117,121.437,187.107,120.834z"/>
	<path fill-rule="evenodd" clip-rule="evenodd" d="M122.166,134.215c0.184,0.95-0.563,1.083-0.275,2.126
		c-1.452,0.271-1.977-0.357-3.285-0.224c-1.626-2.758-4.71-4.103-6.717-6.497c-2.294-0.636-4.305-2.914-2.738-4.775
		c0.328-0.009,0.655-0.016,0.981-0.024c0.69,2.738,4.287,2.66,5.371,5.015c0.787-0.141,0.725,0.536,1.646,0.263
		c0.342,1.219,2.045,1.116,2.354,2.366C120.875,132.577,121.342,133.569,122.166,134.215z"/>
	<path fill-rule="evenodd" clip-rule="evenodd" d="M229.529,125.559c1.145,7.654,1.554,9.954,1.554,9.954
		c-0.005-0.041,0.996,1.584,0.051,2.115c-1.385,0.413-0.901-0.986-1.671-1.169c0.298-3.692-1.737-7.251-2.557-10.836
		C228.399,125.541,228.185,125.34,229.529,125.559z"/>
	<path fill-rule="evenodd" clip-rule="evenodd" d="M63.678,129.578c1.323,1.712-3.875,16.206-4.39,21.901
		c-0.668-0.177-0.25-1.408-1.021-1.488c-0.48-2.762,2.185-18.586,4.101-20.381C62.803,129.601,63.24,129.589,63.678,129.578z"/>
	<path fill-rule="evenodd" clip-rule="evenodd" d="M188.112,162.284c-1.016-0.099-5.463-15.724-5.307-15.917
		c-1.128-0.817-3.977-9.999-3.87-10.802c-0.807-0.518-2.235-5.48-2.448-6.297c0.61-0.059,1.092-0.228,1.296-0.637
		c0.269,0.151,0.54,0.302,0.99,0.278c0.18,0.585,3.608,11.159,4.215,11.402c-0.793,1.292,1.356,2.863,0.752,3.916
		C185.229,145.487,188.526,157.827,188.112,162.284z"/>
	<path fill-rule="evenodd" clip-rule="evenodd" d="M216.742,152.811c-0.772,0.01-0.952,0.545-1.957,0.349
		c-0.27-11.001-1.54-12.542-6.745-21.026c-0.531-0.871-1.79-1.496-1.702-2.683c1.688-1.572,3.848,0.474,3.671,2.634
		c1.614,0.292,0.984-0.994,1.565-3.065c0.664-0.234,1.273-0.98,1.96-0.35c0,0,1.789,6.906,1.807,6.917
		c-0.279,0.252-0.176,0.834-0.635,0.926c0.638,1.034,0.935,2.397,1.719,3.286C215.933,144.725,217.668,147.873,216.742,152.811z"/>
	<path fill-rule="evenodd" clip-rule="evenodd" d="M207.686,144.554c0.655-0.016,1.313-0.032,1.968-0.048
		c2.178,4.213,0.388,9.197,3.578,12.324c0.177,2.938,1.984,3.156,1.457,6.019c-1.427,0.25-2.237-0.102-2.645-0.843
		c-0.717,3.95-0.967,7.796-0.347,12.723c-0.519,0.531-0.261,1.741-1.602,1.55c-0.002,0.004,0.803,6.036,0.803,6.036
		c-0.049,0.731-0.909,0.539-0.284,1.824c-1.217,0.041-1.912-0.421-2.645-0.845l-0.494-6.952c-2.197,5.878,1.213,11.167-3.023,10.671
		c-0.03-0.145,0.956-14.294,0.238-17.26c-0.075-0.313,0.324-0.255,0.322-0.31c-0.022-0.41-0.351-0.866-0.349-0.901
		c-0.009-0.248,0.364-0.311,0.311-0.614c-0.181-1.018-6.027-16.197-3.367-17.173c1.599,0.413,1.593,2.377,2.06,3.885
		c0,0,2.278-2.391,3.527,10.208c0.06,0.572,0.365,0.844,0.356,1.202c-0.08,3.96,1.189,3.157,1.457,6.019
		c0.755-1.04,1.375-18.087-2.58-25.366c-0.071-0.131-0.609-0.183-0.663-0.284c-0.189-0.394-0.185-1.078-0.365-1.507
		c-1.229-2.952-2.883-5.017-1.479-6.925c0.329-0.009,0.654-0.016,0.983-0.024C206.16,139.842,206.934,142.19,207.686,144.554z"/>
	<path fill-rule="evenodd" clip-rule="evenodd" d="M226.285,140.471c0.253,2.3,0.805,2.47,0.77,4.826
		c-0.701,0.268-1.099,0.808-2.277,0.66c0.249,10.614-3.159,22.933-6.172,33.083c-4.128,13.894-11.652,26.96-20.681,38.667
		c-5.145,6.673-10.899,13.043-17.039,18.964c-2.884,2.782-5.051,6.168-9.424,6.773c0.684-1.059,0.508-1.266,1.816-1.823
		c2.826-5.771,9.084-12.406,13.713-17.123c8.423-8.593,15.337-17.911,20.515-28.485c4.467-9.129,7.678-16.991,9.468-26.875
		c1.119-6.176,2.217-12.357,3.323-18.534c-0.313-0.521-0.15-1.506-0.7-1.798c0.366-0.86,1.376-1.159,1.924-1.864
		c-0.283-1.825,0.747-2.5,0.887-3.956c1.396-0.453,1.954-1.638,2.892-2.492C225.626,140.487,225.954,140.479,226.285,140.471z"/>
	<path fill-rule="evenodd" clip-rule="evenodd" d="M133.968,147.552c0.111,0.294,0.362,22.833-0.09,23.311
		c1.998,5.769,0.637,13.97,0.748,19.944c0.161,8.771,0.104,17.556,0.374,26.324c0.2,6.396,0.936,12.945,2.204,19.226
		c0.728,3.596,1.427,6.621,1.312,10.289c-0.119,3.781-1.404,9.048,3.863,9.974c7.021,1.232,8.155-4.31,7.93-9.128
		c-0.11-2.362-2.837-9.636,0.865-10.433c1.416-0.304,1.465,15.091,1.516,16.299c2.057-0.73,4.128-3.198,6.432-1.672
		c-0.901,3.992-17.699,13.308-19.206,7.865c-0.083-0.298-3.378-1.745-3.902-2.53c-1-1.491-0.744-3.258-0.862-4.931
		c-0.408-5.717-0.283-11.417-1.684-17.04c-0.057-0.223,0.4-0.327,0.311-0.614c-2.748-8.823-1.596-73.043-3.82-76.493
		c1.323-3.05,0.234-6.462,1.405-9.72C132.351,148.103,132.51,147.255,133.968,147.552z"/>
	<path fill-rule="evenodd" clip-rule="evenodd" d="M66.03,199.447c-1.719-0.243-0.855-15.905-0.742-16.935
		c-0.735,3.006,3.799-28.364,4.169-30.974c-0.09,0.611-0.536-0.936,0.3-1.219c0.165-0.249,0.328-0.501,0.305-0.918
		C70.739,149.386,66.08,198.825,66.03,199.447z"/>
	<path fill-rule="evenodd" clip-rule="evenodd" d="M63.951,154.395c1.417,4.121-5.128,25.583-2.325,25.787
		c-0.233,0.289-0.587,0.473-0.969,0.63c0.428,1.236,1.169,2.169,1.397,3.598c-0.931,0.575-1.012,0.515-2.287,0.358
		c-1.457-2.162,0.333-28.076,1.628-27.584c-0.851-0.899,0.495-1.762,0.59-2.742C63.208,154.385,62.91,154.08,63.951,154.395z"/>
	<path fill-rule="evenodd" clip-rule="evenodd" d="M169.531,153.35c0.669,0.072,0.66,0.802,1.332,0.875
		c-0.952,3.243,2.553,5.481,1.843,8.432c-0.997,0.244-0.976-0.5-1.973-0.256C169.649,159.799,167.797,156.071,169.531,153.35z"/>
	<path fill-rule="evenodd" clip-rule="evenodd" d="M125.567,166.222c-1.072-0.741-0.294-1.347-0.061-2.421
		c-0.412-2.911-0.287-5.276-1.179-8.144c0.81-0.459,1.27-0.766,2.287-0.36c1.924,3.03-0.124,6.293,0.561,9.676
		C126.253,165.045,126.803,166.417,125.567,166.222z"/>
	<path fill-rule="evenodd" clip-rule="evenodd" d="M86.299,156.272c1.26-0.001-2.749,15.679-2.213,17.008
		c-0.214,0.338-1.052,1.595-1.289,0.938c-1.702,0.223,1.572-15.72,2.526-17.616C85.789,156.616,86.251,156.629,86.299,156.272z"/>
	<path fill-rule="evenodd" clip-rule="evenodd" d="M231.252,156.089c0.327-0.008,0.656-0.015,0.984-0.022
		c1.751,3.663,1.081,6.781,2.828,8.409c0,0-0.908,0.255,0.391,2.716c-0.304-0.578,1.429,3.702,1.394,3.294
		c0.217,2.531,1.107,2.228-0.561,3.95C234.912,174.504,229.427,159.036,231.252,156.089z"/>
	<path fill-rule="evenodd" clip-rule="evenodd" d="M162.682,195.593c0,0-1.904-10.851-1.903-10.852
		c-0.575-0.73-4.883-21.112-5.81-23.169c0.257-0.266,0.893-0.201,0.97-0.63c0.525-0.096,0.572,0.275,0.989,0.281
		c0.272,1.194,1.271,2.945,0.753,3.916C158.792,166.135,167.71,204.097,162.682,195.593z"/>
	<path fill-rule="evenodd" clip-rule="evenodd" d="M183.829,161.478c3.529,11.891,5.323,13.052,4.313,15.637
		c-2.151,2.104-6.332-13.911-5.952-15.597C182.734,161.506,183.281,161.494,183.829,161.478z"/>
	<path fill-rule="evenodd" clip-rule="evenodd" d="M165.174,163.143c0.329-0.008,0.656-0.017,0.982-0.023
		c0.436,1.021,3.84,8.489,2.546,10.229c-0.039,1.024,3.43,7.538,2.207,9.935c-1.81,0.411-2.009-0.738-2.979-1.138
		c1.308-1.351-1.684-14.705-2.988-15.063C165.842,166.111,164.125,164.258,165.174,163.143z"/>
	<path fill-rule="evenodd" clip-rule="evenodd" d="M73.736,165.661c0.381-0.061,0.584,0.052,0.664,0.284
		c0.722,0.786-0.3,1.933-0.588,2.742l-2.724,23.073c0.347,0.455,1.512,9.44,0.576,10.278c-4.117-0.244-1.469-22.244,0.85-32.714
		C72.883,167.653,72.838,166.714,73.736,165.661z"/>
	<path fill-rule="evenodd" clip-rule="evenodd" d="M142.012,168.244c3.029,0.139,1.179,8.378,3.208,10.518
		c0,0,2.485,14.543,3.168,22.323c-1.177-0.451-0.04-1.762-1.372-2.389c0.336-1.244-0.05-1.77-0.723-2.706
		c1.051-2.671-7.458-26.794-4.941-28.034C141.73,167.9,141.937,168.01,142.012,168.244z"/>
	<path fill-rule="evenodd" clip-rule="evenodd" d="M230.365,173.67c0.293,1.017,2.032,6.64,2.814,7.801
		c-0.226,2.593,2.674,5.706,0.182,7.564c-1.523-0.707-0.785-1.256-5.274-14.705C228.899,173.84,229.154,173.078,230.365,173.67z"/>
	<path fill-rule="evenodd" clip-rule="evenodd" d="M20.312,180.577c0.786,1.223,0.272,3.497-0.218,4.545
		c-0.436,0.012-0.875,0.022-1.312,0.032c-0.87-1.28-0.784-1.796-0.757-4.219C19.032,180.956,19.471,179.834,20.312,180.577z"/>
	<path fill-rule="evenodd" clip-rule="evenodd" d="M179.417,182.473c0.379-0.058,0.586,0.054,0.662,0.286
		c2.907,7.915,4.337,20.98,5.212,25.606c0.413,2.182,2.265,9.801,0.971,12.993c-0.587,0.054-0.7-0.354-1.319-0.272
		c-0.003,1.132-0.347,0.874,0.045,1.816c-1.218-0.183-0.792,1.082-1.274,1.544c-1.036-0.123-1.144,0.573-2.287,0.358
		c-0.315-0.33-1.249-8.942-0.891-9.665c0.412-0.426,1.418-0.335,2.29-0.357c0.007-1.176-0.467-2.778,1.25-2.452
		c0,0-1.078-6.449-3.355-16.569c-0.212-0.959-0.458-2.072-0.728-3.011c-0.884-3.099-1.056-3-1.056-3
		C177.236,182.804,178.958,184.537,179.417,182.473z"/>
	<path fill-rule="evenodd" clip-rule="evenodd" d="M128.086,216.11c-0.024,0.669,1.141,23.052,0.899,23.587
		c-2.962-0.253-4.07-53.668-4.277-54.687c0.107-0.402,0.567-0.488,0.633-0.925C128.833,184.001,127.849,219.332,128.086,216.11z"/>
	<path fill-rule="evenodd" clip-rule="evenodd" d="M190.393,215.809c-1.308-3.064,0.767-6.391-1.527-8.743
		c1.491-7.845-3.966-20.227-3.811-22.005c0.264-0.061,0.318-0.311,0.648-0.317c0.952-0.766,1.352,0.98,2.324,1.153
		c0.031,0.321,4.103,17.645,5.037,18.345C192.377,205.305,194.379,215.412,190.393,215.809z"/>
	<path fill-rule="evenodd" clip-rule="evenodd" d="M76.356,192.538c-0.164,1.087-0.187,1.897-0.911,3.049
		c0.001,0.002,0.921,10.875,0.92,10.877c-0.219,3.549-1.811,1.307-2.916,1.583c-1.392-0.252,1.729-14.456,1.921-15.485
		C75.7,192.555,76.024,192.548,76.356,192.538z"/>
	<path fill-rule="evenodd" clip-rule="evenodd" d="M90.232,196.744c0.266,0.154,0.538,0.302,0.988,0.278
		c-0.098,2.282-0.14,4.538-0.493,6.672c-0.198,1.18-0.78,2.247-0.902,3.351c-0.079,0.709,0.393,1.365,0.378,2.111
		c-0.015,0.802-1.135,7.78-0.114,8.78c-2.549,3.968,1.717,7.907,0.256,10.59c-3.96-0.257-2.07-22.653-1.912-24.776
		c0.164-2.228,0.514-4.407,0.828-6.377C89.823,197.372,90.107,197.126,90.232,196.744z"/>
	<path fill-rule="evenodd" clip-rule="evenodd" d="M173.885,197.743c0.526-0.098,0.57,0.273,0.987,0.279
		c1.416,8.827,3.56,10.047,1.622,12.676c-1.638,0.638-2.345-7.092-3.463-7.483C173.354,201.775,172.672,199.097,173.885,197.743z"/>
	<path fill-rule="evenodd" clip-rule="evenodd" d="M166.564,247.565c-0.001,0.002-8.718-48.523-8.72-48.526
		c0.468,0.018,0.929,0.029,0.979-0.325c0.431,0.096,0.528,0.52,0.996,0.581c0.21,0.162,1.756,5.88,1.788,6.01
		C161.373,204.278,170.057,246.447,166.564,247.565z"/>
	<path fill-rule="evenodd" clip-rule="evenodd" d="M218.542,199.99c0.106,0.733,1,1.101,1.354,1.785
		c0.171,0.326-0.154,0.888,0.029,1.21c0.034,0.059,0.661,0.267,0.664,0.285c0.108,0.648-1.039,1.264-0.286,1.826
		c-0.528-0.074-0.557,0.299-0.976,0.325c-2.031-0.747-2.62-3.366-2.747-5.08C216.961,199.985,217.732,199.972,218.542,199.99z"/>
	<path fill-rule="evenodd" clip-rule="evenodd" d="M229.504,205.78c0.228,0.877,1.324,1.81,0.4,3.016
		c-0.177,0.564,1.012,1.122,1.028,1.793c0.006,0.221-0.407,0.34-0.313,0.612c1.458,4.221,3.874,14.872,3.971,15.04
		c-0.003,0.025,1.586,1.503,1.673,1.473c-0.238,0.153-0.421,11.823,0.288,11.799c-0.183,2.159,1.07,8.061,0.211,8.772
		c0.32,1.05-1.056,0.544-1.303,0.334c0,0-2.147-20.779-9.323-46.391c0.324-0.405,0.295-1.124,0.62-1.529
		C229.29,200.64,228.837,203.206,229.504,205.78z"/>
	<path fill-rule="evenodd" clip-rule="evenodd" d="M79.634,206.08c0.294,0.127,0.593,0.252,0.67,0.59
		c-0.392,3.072,0.992,5.698,0.519,7.859c-1.154,0.293-0.806,0.058-1.958,0.35C77.164,212.37,77.802,207.977,79.634,206.08z"/>
	<path fill-rule="evenodd" clip-rule="evenodd" d="M19.094,211.484c0,0-0.428,23.016-0.427,23.018
		c1.422,1.605,1.313,11.653,0.875,9.06c0.172,1.019,2.376,3.053,0.436,4.531c-2.041,0.084-2.531-3.688-2.357-2.668
		c-0.188-1.019-1.361-11.843-1.439-18.732c0.015,1.23-0.533-13.728,1.598-15.175C18.218,211.506,18.655,211.496,19.094,211.484z"/>
	<path fill-rule="evenodd" clip-rule="evenodd" d="M143.331,209.08c1.67,12.677,4.214,33.612,3.409,45.929
		c-4.25,0.395-1.78-2.02-1.524-8.741c-0.661,0.107,0.046-0.877,0.306-0.918c-2.758-28.757-3.961-30.171-3.829-36.232
		C142.237,209.106,142.783,209.094,143.331,209.08z"/>
	<path fill-rule="evenodd" clip-rule="evenodd" d="M221.742,210.206c0.525-0.099,0.572,0.271,0.986,0.277
		c0.757,2.156,1.203,4.396,1.802,6.615c4.494,16.654,4.015,16.856,4.015,16.856c1.233-0.742-0.624-3.433,2.545-3.393
		c0.01,0.007,0.01,20.326,1.074,30.851c-0.95,0.765-1.352-0.983-2.324-1.152c0.162-1.554,0.36-1.666-0.074-3.027
		c0.103-1.129-2.05-0.076-2.315-0.85c-1.069-1,1.176-26.121-3.699-30.789c0.553-1.606-0.128-3.1-0.785-5.43
		c-0.616-2.194-1.322-5.978-1.86-9.035C220.909,210.462,221.722,210.684,221.742,210.206z"/>
	<path fill-rule="evenodd" clip-rule="evenodd" d="M96.211,213.551c0.278-0.064,0.313,0.109,0.338,0.294
		C92.075,252.236,94.879,214.565,96.211,213.551z"/>
	<path fill-rule="evenodd" clip-rule="evenodd" d="M175.283,214.965c0.591-0.054,0.704,0.352,1.321,0.267
		c1.282,2.169,2.219,6.31,2.178,8.729c1.287,1.199,1.82,4.484-1.534,4.275c-0.585-2.202-0.663-4.847-1.162-7.237
		C175.876,219.981,173.978,216.551,175.283,214.965z"/>
	<path fill-rule="evenodd" clip-rule="evenodd" d="M170.77,218.1c0.125,0.092,1.072,3.607,1.072,3.607
		c0.026,0.631,0.286,2.535,0.399,3.018c0.244,1.018,2.278,11.345,0.31,12.706c-1.889,0.587-2.633-14.277-4.06-18.669
		C169.508,218.768,169.403,217.786,170.77,218.1z"/>
	<path fill-rule="evenodd" clip-rule="evenodd" d="M24.674,225.273c0.526-0.097,0.572,0.273,0.99,0.278
		c0.001,0.001,1.002,14.204,1.003,14.205C19.919,237.467,24.747,228.228,24.674,225.273z"/>
	<path fill-rule="evenodd" clip-rule="evenodd" d="M103.01,223.375c-0.432,1.101,0.098,3.043-0.894,3.656
		c0.745,1.11,1.362,4.315,0.45,5.133c0.313,1.231,2.348,9.345-0.09,9.687c-1.063-1.702-2.048-12.892-2.029-15.992
		c0.591-0.762,1.256-1.462,1.581-2.46C102.354,223.391,102.685,223.383,103.01,223.375z"/>
	<path fill-rule="evenodd" clip-rule="evenodd" d="M205.515,230.88c-1.716,0.725-4.777-6.638-4.772-7.45
		c0.782-0.517,1.575-0.811,2.617-0.367C204.042,223.865,206.599,229.863,205.515,230.88z"/>
	<path fill-rule="evenodd" clip-rule="evenodd" d="M222.673,262.251c-1.247-0.854-0.686-3.254,0.569-3.647
		c-0.168-1.539,0.675-2.501-0.408-3.322c-0.715-6.442-1.998-11.988-1.613-12.371c-0.308-0.528-0.756-0.919-1.341-1.178
		c0.407-3.722-2.971-8.044-2.258-12.055c-1.407-1.321-1.115-4.289-1.793-6.314c0.813,0.026,1.354-0.188,1.624-0.645
		c0.433,0.099,0.528,0.523,0.998,0.581c0.292,1.015,5.166,23.403,5.103,21.068l0.466,5.74c-0.109-1.843,0.834,7.242,0.834,7.242
		C224.547,256.338,227.776,263.224,222.673,262.251z"/>
	<path fill-rule="evenodd" clip-rule="evenodd" d="M86.759,229.52c0.33-0.008,0.657-0.016,0.986-0.024
		c0.054,4.553,29.529,28.896,34.478,28.832c-0.165,1.026,2.737,1.696,0.729,3.009c-4.28,2.792-33.015-24.463-34.07-25.511
		c-0.154-1.813-1.078-2.876-2.382-3.575C86.371,230.88,85.976,230.451,86.759,229.52z"/>
	<path fill-rule="evenodd" clip-rule="evenodd" d="M107.156,232.051c0.739,0.237,0.817,1.172,0.372,1.808
		c0.757,0.748,0.818,1.507,1.057,3.001c-0.148-0.948,1.133,4.658,0.745,3.616c1.448,3.854,1.07,3.606,1.07,3.606
		c-0.682,0.193-0.919,0.773-1.951,0.652c-0.7-0.548-1.512-4.377-1.763-5.103c-0.002,0.003-1.117-5.421-1.117-5.421
		C106.227,233.607,106.609,232.758,107.156,232.051z"/>
	<path fill-rule="evenodd" clip-rule="evenodd" d="M198.035,233.483c3.561,6.173,0.863,5.765,3.096,5.979
		c0.027,1.007,0.05,2.019,0.075,3.025c-1.193,0.226-1.752-0.162-2.31-0.549c-0.33,0.009-3.419-7.455-2.172-8.424
		C197.161,233.503,197.598,233.494,198.035,233.483z"/>
	<path fill-rule="evenodd" clip-rule="evenodd" d="M160.359,235.001c0.586-0.052,0.697,0.355,1.316,0.271
		c-0.386,2.182,0.676,3.786,0.137,5.749c-1.401,0.457-1.174,1.175-2.61,0.364C159.202,241.385,158.688,238.134,160.359,235.001z"/>
	<path fill-rule="evenodd" clip-rule="evenodd" d="M155.456,235.726c0.381-0.058,0.586,0.052,0.66,0.287
		c1.064,0.264,1.677,13.151,0.34,13.916c-3.164-0.405,0.03-7.982-1.634-13.278C155.222,236.508,155.483,236.245,155.456,235.726z"/>
	<path fill-rule="evenodd" clip-rule="evenodd" d="M46.908,290.122c-1.816,0.632-16.456-26.11-17.056-27.134
		c0.526-0.97-5.045-12.974-5.582-13.789c-0.01-1.732,0.606-3.601-0.452-5.135c0.558-0.793,1.395-1.342,1.915-2.167
		c4.4,14.128,11.035,34.07,21.123,46.107C46.873,288.708,46.888,289.416,46.908,290.122z"/>
	<path fill-rule="evenodd" clip-rule="evenodd" d="M47.693,241.364c0.842,0.188,0.679,10.692,0.607,11.489
		c-0.705,7.635,0.994,27.523,0.994,27.523c-1.88,0.33-3.588-36.142-3.546-38.057c0.468-0.181,0.789-0.492,0.959-0.93
		C47.037,241.379,47.367,241.373,47.693,241.364z"/>
	<path fill-rule="evenodd" clip-rule="evenodd" d="M113.276,240.987c0.754-0.113,0.387,0.866,1.007,0.884
		c-0.034,2.635,2.156,6.848,2.136,6.91c-0.563-0.099-0.615,0.25-0.643,0.621c-3.191-0.71-4.071-4.668-3.476-8.088
		C112.765,241.328,113.229,241.341,113.276,240.987z"/>
	<path fill-rule="evenodd" clip-rule="evenodd" d="M123.188,244.076c0.108,2.03,1.82,5.007-1.514,5.185
		C120.783,247.901,120.192,244.201,123.188,244.076z"/>
	<path fill-rule="evenodd" clip-rule="evenodd" d="M205.48,242.989c0.216-0.005,0.438-0.009,0.656-0.014
		c1.496,0.413,9,36.122,4.158,36.224c-1.67-5.104-0.486-10.188-2.08-18.112c0.24,1.2-0.415-4.435-0.125-5.142
		c-0.184-0.752-0.65-1.23-1.027-1.792C207.498,250.55,205.344,249.095,205.48,242.989z"/>
	<path fill-rule="evenodd" clip-rule="evenodd" d="M129.505,247.554c0.17,0.972,0.668,1.626,0.719,2.708
		c-1.279,0.665-2.798,0.843-3.611-0.214C127.045,248.565,127.461,246.807,129.505,247.554z"/>
	<path fill-rule="evenodd" clip-rule="evenodd" d="M205.216,272.664c-0.108-0.979,1.32,11.053,0.622,12.093
		c-1.211-0.147-6.532-38.126-6.183-38.599C203.076,246.076,205.091,271.557,205.216,272.664z"/>
	<path fill-rule="evenodd" clip-rule="evenodd" d="M214.104,247.02c0.436,0.094,0.529,0.518,0.998,0.579
		c0.064,3.23,5.726,24.726,2.248,25.07c-1.047-0.627-1.677-5.933-2.202-9.631c-0.098-0.69-1.897-14.43-1.676-15.095
		C213.275,247.278,214.087,247.496,214.104,247.02z"/>
	<path fill-rule="evenodd" clip-rule="evenodd" d="M192.904,251.772c3.829,10.071,8.995,66.973,2.603,26.272
		c-0.123-0.784-0.293-1.593-0.385-2.414c-1.026-9.115-3.875-17.651-4.06-18.667c-0.125-0.706,0.111-1.444-0.051-2.122
		c-0.384-1.605-1.339-2.714-1.11-5.117c-0.1-0.488,0.298-0.529,0.308-0.915C192.585,248.751,192.069,249.575,192.904,251.772z"/>
	<path fill-rule="evenodd" clip-rule="evenodd" d="M41.127,254.542c0.325-0.008,0.654-0.016,0.981-0.025
		c0.001,0.002,0.783,18.75,0.783,18.75C40.217,274.123,39.196,260.285,41.127,254.542z"/>
	<path fill-rule="evenodd" clip-rule="evenodd" d="M185.288,262.247c-1.143-0.03-1.271-1.039-2.326-1.153
		c-0.027-2.866-1.773-4.063-1.807-6.922c0.467-0.179,0.79-0.488,0.96-0.929c0.528-0.095,0.569,0.274,0.99,0.279
		c0.063,0.542,0.781,0.892,1.021,1.488c0.523,1.298,0.148,3.411,1.412,4.204C185.221,260.018,185.192,261.08,185.288,262.247z"/>
	<path fill-rule="evenodd" clip-rule="evenodd" d="M176.626,256.706c2.081,4.382,2.776,9.789,2.557,10.838
		c-1.654,0.224-2.335-1.032-2.667-1.753c-0.07-0.155,0.326-0.734,0.299-1.219c-0.149-2.551-2.806-7.486-2.806-7.499
		C174.475,256.593,175.682,256.765,176.626,256.706z"/>
	<path fill-rule="evenodd" clip-rule="evenodd" d="M53.8,263.316c0.297,0.125,0.594,0.25,0.671,0.587
		c0,0.001,3.335,29.283,3.333,29.284C54.206,292.465,51.493,267.31,53.8,263.316z"/>
	<path fill-rule="evenodd" clip-rule="evenodd" d="M77.924,270.905c-0.033,1.697,0.544,2.196-0.245,3.334
		c0,0.002,5.752,34.37,5.752,34.37c-3.358,0.289-8.237-32.612-7.121-36.758c-0.197-0.668,0.615-0.446,0.634-0.923
		C77.269,270.919,77.599,270.912,77.924,270.905z"/>
	<path fill-rule="evenodd" clip-rule="evenodd" d="M140.69,330.229c1.211,0.586,1.959,0.001,2.942-0.374
		c0.128,1.447,1.662-0.393,1.99,0.858c1.087,1.103-1.062,1.257-0.925,2.444c-1.896,0.333-4.793-0.05-6.898-0.438
		c-0.622-2.017-2.409-7.5-0.875-9.062c-1.226-1.913-0.945-13.965-0.345-14.217c-0.532-0.621-0.274-2.003-0.72-2.709
		c0.967-1.909,0.774-8.617,0.659-13.335c-0.019-0.838-0.473-22.189-0.229-23c0.258-0.267,0.895-0.203,0.967-0.629
		c0.53-0.1,0.574,0.271,0.992,0.277c1.687,2.367,1.535,20.997,0.864,22.078C140.45,294.62,138.103,326.823,140.69,330.229z"/>
	<path fill-rule="evenodd" clip-rule="evenodd" d="M156.597,269.301c0.043,1.022,2.726,6.908,1.179,8.145
		c-1.897-0.524-3.238-6.467-3.127-7.493C155.326,269.762,155.563,269.18,156.597,269.301z"/>
	<path fill-rule="evenodd" clip-rule="evenodd" d="M168.47,272.041c0.061,0.121,1.138,11.143,0.898,9.969
		c1.231,6.092,6.552,33.719,0.426,31.165c0,0,2.202-9.411-2.341-29.003c0.306,1.323-1.519-7.141-1.258-11.169
		c-0.255-0.819,0.64-0.623,0.629-1.226C167.744,271.502,167.684,272.181,168.47,272.041z"/>
	<path fill-rule="evenodd" clip-rule="evenodd" d="M181.943,273.228c0,0,2.815,21.423,2.817,21.423
		c-0.991,1.123,0.225,2.7-0.553,4.252c-1.42,0.343-1.524-0.588-2.317-0.851c-0.355-1.014,0.895-17.643-2.546-23.853
		c0.321-0.018,0.248-0.376,0.315-0.613C180.069,273.158,181.073,273.249,181.943,273.228z"/>
	<path fill-rule="evenodd" clip-rule="evenodd" d="M176.714,273.959c0.381,1.092,1.875,20.381,0.826,20.566
		c1.382,2.446-0.162,10.516,1.924,11.756c-1.187,0.339-0.806,2.055-2.24,2.176c-0.225-0.403-0.714-0.547-1.328-0.576
		c0,0-1.201-33.173-1.135-33.271c-0.195-0.664,0.616-0.445,0.633-0.924C175.693,273.916,176.144,273.994,176.714,273.959z"/>
	<path fill-rule="evenodd" clip-rule="evenodd" d="M187.248,275.519c0.528-0.096,0.57,0.273,0.994,0.277
		c0.248,1.02,2.878,15.331,0.48,19.969c-1.903-1.629-2.477-18.289-2.109-19.322C186.417,275.776,187.23,275.998,187.248,275.519z"/>
	<path fill-rule="evenodd" clip-rule="evenodd" d="M60.113,280.115c0.355,0.064,0.235,0.594,0.667,0.59
		c-0.605,6.263,2.071,9.873,2.371,16.592c0.759,1.381,2.439,2.807,1.092,4.513C60.885,302.032,57.458,285.666,60.113,280.115z"/>
	<path fill-rule="evenodd" clip-rule="evenodd" d="M146.67,279.228c0.355,1.015,2.815,40.166-0.16,47.53
		c-1.623-1.296-0.629-24.084-0.609-25.111c0.012-0.476-0.346-1.274-0.371-1.807c-0.026-0.569,0.308-1.308,0.284-1.821
		c-0.048-1.024-1.469-16.83-1.088-17.833c-0.103-0.489,0.298-0.53,0.307-0.917C145.579,279.253,146.125,279.24,146.67,279.228z"/>
	<path fill-rule="evenodd" clip-rule="evenodd" d="M157.862,294.395c-1.032-0.117-0.907,0.785-1.282,1.242
		c-3.073-1.57-1.688-9.25-2.268-12.358C157.724,284.144,156.564,285.685,157.862,294.395z"/>
	<path fill-rule="evenodd" clip-rule="evenodd" d="M48.268,292.208c0.443,1.013,5.042,3.357,4.723,5.333
		c0.539,0.408,1.06,0.832,1.668,1.171c0.134,1.069,0.918,0.723,0.371,1.807c7.5,12.526,47.027,31.921,48.369,33.64
		c1.109-0.027,13.472,2.463,15.843,4.158c0.692,0.494,1.021,1.552,2.011,1.767c0.132,1.202,0.07,2.235-0.59,2.738
		c-2.146-0.602-3.589-1.888-5.317-2.896C103.843,340.919,59.71,317.634,48.268,292.208z"/>
	<path fill-rule="evenodd" clip-rule="evenodd" d="M67.337,294.169c0.529-0.1,0.574,0.271,0.992,0.276
		c0.214,8.737-0.464,0.006,2.231,10.843c0.295,0.437,0.515,0.948,1.334,0.876c-0.52,0.828,0.482,1.541-0.272,2.43
		c-2.072,0.461-2.237-0.926-3.313-1.437C69.214,305.281,64.431,298.486,67.337,294.169z"/>
	<path fill-rule="evenodd" clip-rule="evenodd" d="M153.033,298.145c0.867,1.001,1.771,26.512-0.311,27.857
		c-0.957-0.103-1.359-22.79-1.627-26.599c0.436-0.307,0.636-0.825,0.955-1.235C152.379,298.162,152.706,298.154,153.033,298.145z"/>
	<path fill-rule="evenodd" clip-rule="evenodd" d="M75.046,300.942c0.326-0.007,0.656-0.016,0.98-0.023
		c0.36,2.232,1.725,3.492,2.108,5.7c0.75,1.151,1.833,2.133,1.078,3.911c-0.652,0.012-1.31,0.03-1.964,0.046
		c-0.975-0.501-0.808-2.109-2.025-2.373c0.589-1.309-0.371-3.476-1.096-4.513C74.148,302.521,75.202,302.264,75.046,300.942z"/>
	<path fill-rule="evenodd" clip-rule="evenodd" d="M93.921,321.977c-5.564-0.281-6.438-15.772-6.965-16.782
		c0.718-0.258,0.795-1.078,1.274-1.545c1.002-0.25,0.648,0.816,1.651,0.565C90.523,308.025,93.92,321.973,93.921,321.977z"/>
	<path fill-rule="evenodd" clip-rule="evenodd" d="M162.678,303.662c0.587-0.053,0.698,0.356,1.317,0.272
		c0.55,1.009,2.221,15.833-0.923,16.065c-1.653,0.783-1.244-14.384-1.028-15.413C162.343,304.358,162.527,304.022,162.678,303.662z"
		/>
	<path fill-rule="evenodd" clip-rule="evenodd" d="M160.189,322.793c-0.326,0.8-1.307,1.021-2.6,0.971
		c-0.161-0.17-0.126-18.827-0.134-19.066C161.234,304.605,158.777,322.822,160.189,322.793z"/>
	<path fill-rule="evenodd" clip-rule="evenodd" d="M96.922,310.403c0.403,0.74,0.517,1.768,0.72,2.705
		c0.676,1.224,4.14,8.679,4.145,8.68c0.135,1.105-0.323,1.688-0.596,2.437c-0.397-0.339-1.169-0.317-1.974-0.257
		c-0.479-1.071-4.58-10.318-4.535-11.089C94.706,312.522,95.487,310.022,96.922,310.403z"/>
	<path fill-rule="evenodd" clip-rule="evenodd" d="M194.647,310.153c0.819,0.727-0.556,15.108-1.901,16.393
		c0.758,0.947-1.748,11.906-3.325,11.583c-2.071,0.488,0.993-6.522,2.728-22.769c-0.001,0,0.22-4.547,0.219-4.55
		C193.219,310.676,193.258,309.82,194.647,310.153z"/>
	<path fill-rule="evenodd" clip-rule="evenodd" d="M110.68,323.387c0.174,1.14-0.609,1.436-0.931,2.143
		c-1.764,0.058-1.992-1.376-3.643-1.425c0.065-1.737-4.085-4.942,0.188-5.758C107.669,320.114,108.749,322.165,110.68,323.387z"/>
	<path fill-rule="evenodd" clip-rule="evenodd" d="M176.561,321.793l-14.521,9.733c-6.995,1.527-9.381,3.655-10.511-0.652
		c3.33-3.357,3.771,1.641,8.768-3.542c6.584-1.81,10.169-6.261,15.521-9.154C176.932,318.285,181.209,312.554,176.561,321.793z"/>
	<path fill-rule="evenodd" clip-rule="evenodd" d="M186.635,317.917c0.383,2.983,0.053,7.683-1.398,10.021
		c-0.108,4.638-2.933,14.948-3.236,15.215c0.522,2.619-0.737,4.276-2.864,3.704c-0.628-0.911,1.081-4.375,1.193-4.873
		c-0.84,3.669,4.352-23.401,4.347-23.72c0.257-0.265,0.892-0.2,0.968-0.628C185.913,317.791,186.183,317.938,186.635,317.917z"/>
	<path fill-rule="evenodd" clip-rule="evenodd" d="M175.712,327.26c0.581,1.679-1.684,18.759-5.476,17.691
		c-0.829-0.876-0.122-2.301,0.592-2.74c0.047-0.601,2.634-11.209,2.675-11.266c-0.093-3.869,0.241-3.637,0.241-3.637
		C174.402,327.293,175.055,327.275,175.712,327.26z"/>
	<path fill-rule="evenodd" clip-rule="evenodd" d="M167.366,334.729c0.567,4.029-1.755,7.611-1.674,12.149
		c-0.91,0.369-1.697,0.387-2.622,0.063c-0.426-0.907,0.231-1.629-0.397-2.715c0.705-0.431,3.751-9.262,3.708-9.472
		C166.71,334.745,167.035,334.738,167.366,334.729z"/>
	<path fill-rule="evenodd" clip-rule="evenodd" d="M160.496,335.501c0.691,3.518-1.37,5.747-0.748,9.705
		c-0.944,0.252-0.813,1.453-2.265,1.263c-0.247-0.274-0.605-0.443-0.996-0.58C156.15,345.11,158.2,335.48,160.496,335.501z"/>
	<path fill-rule="evenodd" clip-rule="evenodd" d="M153.324,337.188c0.114,1.022-0.649,11.52-3.009,11.272
		c-1.301-1.75,0.315-10.923,1.355-11.836C152.483,336.556,152.695,337.075,153.324,337.188z"/>
	<path fill-rule="evenodd" clip-rule="evenodd" d="M139.68,342.666c0.563,0.911-0.235,2.118-0.246,3.335
		c-0.013,1.531,1.081,3.76-2.2,3.988C136.297,347.797,135.271,340.942,139.68,342.666z"/>
	<path fill-rule="evenodd" clip-rule="evenodd" d="M110.619,347.911c-0.634,0.426-1.864,0.332-2.604,0.668
		c0.432-1.899-3.854-1.31-1.439-5.112C113.165,347.942,108.931,344.581,110.619,347.911z"/>
	<path fill-rule="evenodd" clip-rule="evenodd" d="M144.568,502.485c-0.023,0.042-0.044,0.08-0.068,0.12
		c-2.829,4.938-9.643,4.717-14.858,4.493c-0.762-0.033-0.548-36.633-0.705-39.672c-0.681-13.114,0.745-26.382,0.343-39.498
		c-0.449-14.657,0.791,7.574,0.712-7.09c-0.074-13.467,0.532-27.84-3.497-40.897c-2.163-6.998-5.844-13.313-11.338-18.576
		c-11.797-11.289-31.102-9.183-45.841-14.904c-7.146-2.772-13.512-7.277-19.546-11.687c-21.986-16.081-34.856-38.687-42.695-63.28
		c-6.554-20.559-7.762-42.444-6.766-63.792c0.236-5.092,0.647-12.312,3.614-26.729c0.102-0.482-0.124-1.024-0.034-1.513
		c0.6-3.283,6.1-35.083,9.613-36.255c0.93-10.74,17.292-45.624,21.946-55.323c-0.021,0.021,0.359-0.4,0.32-0.313
		C47.099,61.63,50.446,57.249,50.446,57.249c-0.222-0.601,5.462-8.425,5.686-8.918c6.809-14.837,33.932-34.422,33.932-34.425
		c5.505-3.933,11.592-7.207,18.044-9.623c5.48-2.049,11.71-2.254,17.039-4.24c11.794-0.096,26.368-0.422,37.165,4.567
		c8.871,4.1,16.838,9.417,22.122,17.306c6.067,9.059,10.165,19.24,15.234,28.781c3.313,6.229,6.58,12.475,9.805,18.74
		c0.129,0.252,0.614,0.722,0.679,0.893c9.511,24.862,19.679,43.319,21.42,44.886c1.346,6.439,5.213,10.432,6.318,17.105
		c1.07,0.997,48.313,108.643-9.911,186.41c-0.824,1.044-8.924,11.258-11.488,13.294c-5.745,8.49-22.056,15.859-22.874,16.903
		c-7.328,2.148-14.667,4.273-21.937,6.638c-6.895,2.24-14.74,3.191-20.906,7.033c-7.953,4.959-7.646,13.347-8.218,21.277
		c-0.285,3.955-0.049,7.846,0.32,11.786c2.571,27.583,0.977,18.665,2.414,46.337c0.411,7.896,0.867,15.789,1.39,23.677
		c0.505,7.616,0.673,15.289-0.479,22.872C145.529,492.959,146.837,498.375,144.568,502.485z M53.81,60.799
		c0.814-1.043,3.652-2.045-1.096,8.804c0.366,1.163-0.141,1.25,0.379,2.111c-1.514-0.245-1.114,1.191-2.264,1.267
		c-1.038-0.338-1.017-1.7-2.336-1.762c-0.057,1.305-4.611,5.872-4.386,8.583c-0.451-0.003-0.714,0.158-0.976,0.325
		c-0.361,3.334-2.788,4.854-3.08,8.249c-1.012,0.777-6.382,13.253-6.226,13.774c0.185-0.04,10.003-17.011,12.022-18.152
		c0.135-1.558,0.946-2.527,2.222-3.082c0.518,0.532,1.926,0.198,1.995,1.162c-1.726,3.916-4.975,6.481-6.299,10.747
		c-1.236-0.196-0.686,1.175-1.609,1.253c0.015,1.179-6.445,11.211-6.931,11.671c0.012,0.502,0.024,1.008,0.036,1.513
		c-1.699,1.564-2.485,3.934-3.796,5.843c-5.94,1.9-6.479,16.344-9.704,19.002c0.012,0.607,0.029,1.212,0.043,1.817
		c-0.824,0.536-4.009,8.215-3.706,9.472c-0.578,0.344-3.819,6.478-4.012,10.392c-2.015,2.075-1.25,6.596-3.065,8.85
		c0.104,0.489-2.548,16.711-2.549,16.715c-0.505,3.069-0.96-1.602-2.254,15.189c-2.192,28.705,1.396,44.046,1.42,45.071
		c0.009,0.283-0.346,0.394-0.313,0.614c0.269,1.833,3.228,26.207,5.65,30.133c0.089,0.57-0.352,0.677-0.3,1.22
		c1.323,0.989,0.958,3.613,2.085,4.791c-0.503-6.795-1.039-17.076-0.581-23.9c-2.081-2.219-2.339,4.164-3.556-11.418L9.62,226.546
		c-0.307-6.499-0.163-20.277-0.163-20.277c-0.002-0.006,1.795-20.628,1.795-20.628c0.739-0.837,3.248-1.676,2.222-3.082
		c-0.232,0.884-0.777,1.491-2.266,1.264c-2.236-0.337,2.655-9.391,2.834-10.068c0.178-0.697,0.831-2.006,0.714-2.721
		c-0.12-0.763-1.362-0.976-1.646-1.707c-0.343-0.879,0.567-3.491,0.733-4.471c0.434-2.554,0.806-5.167,1.451-7.687
		c0.501-1.977,0.949-4.455,2.668-5.902c0.9-1.044,5.042-0.684,5.717-7.706c1.111,0.21,3.073-6.568,5.796-4.376
		c-0.074,3.292-2.716,4.323-3.103,7.339c-1.081,0.582-8.448,12.189-7.877,13.206c-0.418,0.031-0.443,0.402-0.976,0.329
		c0.29,1.043-0.459,1.174-0.278,2.126c-0.396,1.033-2.728,2.438-1.155,6.383c3.512-5.564,3.999-7.923,6.376-7.417
		c0.189,3.919-2.473,7.897-4.414,11.229c-0.344,0.59-5.434,9.876-4.583,9.874c2.127-0.004,0.874-2.982,3.547-2.507
		c0.171,1.335-0.275,2.127-0.918,2.747c-0.127,2.455-0.726,4.492-1.819,6.098c0.021,0.908,0.044,1.815,0.066,2.722
		c-1.027,1.266-2.402,9.14-2.402,9.14c1.019,0.868,1.507-1.898,2.936-0.675c-0.187,1.909-0.88,3.368-1.188,5.174
		c-0.545,0.013-1.092,0.026-1.637,0.039c-1.04,3.122-0.031,35.117,2.031,43.241c1.611,2.041,3.589-5.675,1.881,9.942
		c-0.126,1.146-0.531,2.064-0.582,3.042c-0.023,0.467,0.337,1.038,0.363,1.503c0.063,1.175-0.531,2.203,0.075,3.026
		c0.582-0.773,0.203-2.388,1.913-2.167c0.03,0.018-0.147,18.352,0.53,21.784c0.199,1.021,2.107,9.285,3.525,10.206
		c0,0-2.041-30.213-2.044-30.221c0.75-0.331,1.032-1.068,2.276-0.964c1.097,5.763-0.283,14.832-0.261,16.354
		c0.064,4.77,1.027,11.858,2.371,16.591c0.289,1.017,1.077,6.414,4.845,10.478c-0.403-2.346-7.203-26.833-1.329-27.818
		c0.297,1.016,2.024,28.438,6.566,27.389c-0.684-3.428-0.471,0.414-0.766-4.522c0.025,1.022-1.48-6.169-2.223-10.542
		c0.493-0.651,0.791-1.477,1.93-1.561c-0.315,8.055,6.27,28.792,6.298,29.818c0.835,0.114,0.728,0.7,1.012,1.184
		c1.455,2.481,3.096,3.968,4.714,5.033c0.024,0.317,0.426,0.229,0.321-0.312c-0.857-2.062-1.867-3.969-2.45-6.296
		c-0.963-0.105-3.812-4.786-4.071-5.654c0.863-0.325,1.853-0.542,1.93-1.559c-1.04-1.45-1.82-5.094,0.516-5.763
		c0.307,0.625,0.386,1.706,0.409,3.319c1.129,0.712,4.432,11.69,7.862,13.128c0.051,1.524-1.306-5.195-0.164-6.654
		c1.784,1.366,1.823,4.427,3.425,5.971c-0.093,0.412-0.455,0.587-0.297,1.217c0.891,0.31,1.681,0.015,2.614-0.366
		c1.356,0.662,5.065,10.429,1.127-7.595c0.703-0.27,1.099-0.809,2.279-0.66c0.583,1.055,1.041,2.927,0.431,4.228
		c2.091,3.595-0.407,7.816,3.572,12.021c0.085,0.089,3.845,3.545,4.02,3.535c-0.313-1.966-1.85-2.747-1.764-5.104
		c-0.98-1.037-3.323-4.385-0.78-5.127c1.68,0.55,2.047,2.929,2.391,3.877c1.719,1.695,1.825,4.554,3.417,5.671
		c0.15,0.104-0.25,0.454-0.32,0.309c0.452,0.923,1.374,1.328,1.044,2.395c1.009,0.469,1.435,1.503,2.025,2.376
		c1.592,0.215,3.541,1.716,4.944,1.09c-0.377-1.079-1.553-1.387-2.344-2.063c0.197-1.027-5.733-3.954-3.447-6.878
		c0.437-0.011,0.874-0.021,1.309-0.034c0.441,0.918,1.479,1.254,1.697,2.38c2.601,0.36,4.083,1.536,4.997,3.21
		c1.014-0.102,1.774-1.313,2.609-0.667c0.981,2.661,1.703,5.573,5.386,5.618c0.48-1.06-2.003-3.821,0.543-4.555
		c1.033-0.1,3.885,5.32,3.753,5.965c1.382,0.003,1.682,1.052,2.656,1.451c0.546,1.877,4.724,2.578,5.952,1.974
		c-1.092-0.996-6.327-3.479-1.74-4.196c0.067-0.036,2.366,1.234,2.329,1.459c1.03-0.173,0.765,0.91,1.981,0.557
		c0.482,0.357,0.525,1.142,1.021,1.486c-0.447,0.892-2.335,0.515-2.587,1.577c0.743,0.419,1.6,0.723,2.964,0.535
		c0.827,1.261,3.384,0.851,3.994,2.326c3.171,0.516,3.306,1.129,3.306,1.129c1.467,0.38,1.507-2.545,11.687,8.496
		c1.52,3.065,3.832,5.367,4.167,9.585c9.984,9.939,6.597,110.529,6.639,111.552c-0.077-3.2,2.569,10.18-0.105,22.707
		c2.229,0.09,7.263-2.652,7.786-3.518c0,0-1.973-31.55-1.496-61.729c0.002-0.302-0.309-0.204-0.336-0.293
		c-2.706-45.384-10.334-91.011,21.501-87.103c48.874-7.51,58.657-31.878,57.58-32.875c0.84,3.409,5.797-24.552,3.253-28.231
		c-0.708,0.93-0.364,1.067-0.271,2.428c0,0-3.076,19.376-5.343,23.137c0.711,4.052-3.784,5.718-2.089,8.525
		c-1.583,0.104-0.659,2.398-3.599,0.391c0,0,1.261-4.113,1.755-8.823c4.728-1.907,6.662-23.231,8.102-31.072
		c2.467-0.588,1.052-8.688,0.748-9.703c-1.773,0.668-5.303,8.628-5.016,9.506c-0.87,0.023-0.817,0.861-1.284,1.24
		c1.936-0.58,1.314,8.243,0.236,9.683c0.444,0.662-0.274,11.75-1.338,12.441c0.656,0.98,0.861,4.106-1.224,3.664
		c-0.669-0.176-0.249-1.409-1.019-1.489c-0.188,1.276-0.376,2.329-0.567,3.645c-2.25,15.454-5.488,17.086-5.488,17.086
		c-0.83,1.048-0.553,3.068-2.886,2.793c-0.686-1.05-0.388-3.386,0.896-3.654c-0.012-0.282,4.937-13.431,4.828-17.371
		c0.433-0.349,1.512-4.772,1.521-4.879c-0.101,0.934-0.914-0.988,0.56-3.95c0.965-0.458,2.021,1.014,1.959-0.351
		c0.196-0.426,1.329-14.356,1.905-16.089c-1.054-0.335-0.888,0.993-0.641,0.62c-2.39,3.59-11.229,10.211-13.755,14.257
		c-3.914,1.421-10.672,10.979-14.233,8.217c0.007-2.815,14.312-11.768,16.335-16.14c4.604,0.076,14.695-20.588,19.123-22.861
		c0.827-0.405-0.34-1.475,0.294-1.522c0.478-0.368,0.904-0.781,1.279-1.242c1.622,1.469,0.797,3.556,0.794,5.733
		c0.001,0.356,0.91,4.989,0.76,4.219c0.062,0.331,0.025,23.294-0.084,23.615c1.008-0.116,6.29-25.933,3.73-35.51
		c-1.211,0.254-2.244,0.355-3.286-0.221c1.25-0.959,4.448-8.739,5.901-0.141c0.172,1.017,1.395,7.209,0.615,11.789
		c0.763-4.398,0.078,20.162,0.184,21.186c-2.024,3.349-3.657,7.046-5.313,10.724c1.053-0.306,5.939-6.718,6.356-8.327
		c-0.38-0.356-0.95-0.527-0.693-1.498c-0.179-0.946,0.862-0.82,0.946-1.536c-0.714-0.479,0.19-0.912,0.293-1.521
		c-0.221,1.276,1.286-8.661,2.035-10.646c-0.22-0.92-0.734-1.56-1.04-2.395c0.765-0.119,0.286-1.328,0.945-1.538
		c-0.118-0.174-0.183-8.411,0.429-9.394c-2.353-16.218-2.978-18.019-0.426-17.546c0.139,0.198,2.553,10.532,2.553,10.532
		c-0.112-10.211,3.572-8.666,3.184-4.012c-0.03,0.331-0.539,0.864-0.626,1.225c0.08,3.36-4.148,30.506-4.753,34.02
		c0.872-1.409,1.864-2.703,2.519-4.299c-0.249-0.135,5.07-18.426,3.683-24.002c1.624-5.33-1.61-21.642-2.19-22.654
		c0.984-0.713,0.999-2.279,2.564-2.481c0,0,1.951,13.998,1.986,14.18c1.305-0.344,0.951-2.124,0.574-3.343
		c1.026-0.403,0.038-0.882,0.944-1.538c-0.942-4.297-0.33-18.658-0.471-19.362c1.283-0.476-0.01-3.121,0.876-4.563
		c-1.285-0.137-1.284-9.851-1.962-13.272c0,0,1.198,2.484-2.771-19.61c-1.567,0.203-0.91,2.359-1.222,3.665
		c-2.186,1.054-1.991-5.203-0.296,14.839c2.642,1.586,2.817,27.707-0.317,27.554c-0.164-1.633-0.835-3.522-0.133-5.445
		c-0.024-0.903-0.876-1.008-1.025-1.792c0.519-4.768-2.108-10.714-1.366-15.708c-0.46,0.14-4.558-18.298-4.396-18.965
		c-0.1-0.086-3.825-9.277-3.832-9.29c0.796-0.188,0.674-1.189,1.947-0.957c1.474,0.842,1.409,3.176,2.402,4.483
		c0.214,0.977-0.188,1.411-0.276,2.125c2.716,3.313,1.859,8.387,3.855,10.199c-1.14-11.606-2.514-13.05-0.329-13.614
		c1.929,0.858,0.965,3.812,2.082,4.792c0.039-3.534-0.386-13.778-0.337-13.915c-0.301-0.072-1.518-4.694-1.143-6.633
		c-0.506-1.036-1.659-3.596-0.096-3.932c2.506,0.002,1.18,2.011,2.366,2.97c0.782-0.567,0.383-4.646,0.21-4.848
		c-0.303-0.944-1.27-1.247-1.367-2.389c1.35-3.171-1.911-20.414-2.161-21.441c-0.594-0.554-0.949,0.384-1.646-0.26
		c0.137-1.679-1.155-1.98-1.712-2.989c0.38-1.595-1.751-4.146,0.188-5.756c1.929-0.048,2.427,3.823,2.436,5.692
		c0.945,0.015,2.141-0.215,2.629,0.24c-0.001-0.003-13.585-32.67-13.582-32.667c-0.605-1.325-10.442-22.733-12.026-22.715
		c-0.984,0.013-0.729,6.607,2.091,6.658c0.628,6.822,4.955,13.709,6.918,20.325c0.347,1.159,2.682,14.808,2.16,14.521
		c-0.935-0.513-3.406-9.521-2.82-8.104c-0.385-0.923-0.429-1.816-1.354-1.785c-0.978,3.363,3.961,12.424,0.655,13.606
		c-2.883-1.965-2.864-13.144-3.418-16.229c-0.567-3.177,0.254-4.227,0.521-7.173c0.529-5.88-4.075-11.542-6.052-16.898
		c-1.216-3.3-2.17-6.688-3.385-9.995c-1.125-3.069-3.936-7.279-4.225-10.451c-0.216-2.373-1.663-3.548-1.787-6.012
		c-0.072-0.853,0.968-0.727,0.947-1.536c-0.385-0.566-6.915-14.601-6.602-15.278c-1.712-0.42-0.872,1.404-1.928,1.558
		c-0.158-1.546-1.893-2.345-1.081-3.908c-1.33-1.392-2.002-3.426-2.113-6.002c-0.991-0.792-1.124-2.42-1.724-3.592
		c0.008-0.78,1.394-0.352,0.943-1.536c-1.02-1.001-14.135-29.52-39.146-32.048c-4.47-3.107-23.855-4.232-28.911-2.022
		c0.372,1.911-1.76,3.869-0.835,6.073c-1.88,0.124-0.475,3.137-2.215,3.384c-3.442-0.148,0.302-7.022,0.765-9.099
		c-2.856,0.252-4.441,1.623-6.831,2.286c-0.394,2.813-1.023,5.417-1.444,8.206c0.208,0.938,1.013,1.292,1.365,2.087
		c-0.479,0.665-1.183,1.136-1.932,1.561c-0.792-0.471-1.35-1.17-2.009-1.768l2.06-9.738c-2.168,0.363-3.935,1.079-5.53,1.95
		c0,0-2.417,7.78-2.431,7.932c-0.044,0.484,0.365,0.942,0.366,1.503c-0.001,0.538-0.3,1.145-0.292,1.521
		c0.04,1.608,1.179,3.802-1.21,4.267c-1.276-0.208-1.107-1.814-2.025-2.371c0.407-0.466,1.614-9.766,1.392-10.328
		c-3.971,1.527-7.872,5.738-12.92,8.185c-0.229,1.252,1.581,0.53,1.355,1.781c-1.059,1.11-0.499,5.48-3.941-0.206
		c-0.516,0.963-6.709,5.819-7.394,6.234c0.907,2.161-1.282,3.145-1.178,5.476c-0.866,0.919-1.597,1.952-1.55,3.671
		c-0.298,0.33-1.207,0.122-0.963,0.93c-0.134,1.041-3.88,10.513-5.32,10.423c-0.243-2.287,4.773-16.359,4.518-16.457
		c-2.641,1.729-6.317,9.663-5.933,12.25c-0.547,0.18-3.052,8.416-3.071,8.554c-0.506,1.108,0.223,1.644,0.058,2.418
		c0-0.01-0.591,0.194-0.649,0.32c-0.157,0.335,0.147,0.855,0.031,1.208c-0.623,0.146-0.809,0.674-1.626,0.646
		c-1.011-0.69,3.034-14.489,3.23-15.517c-2.414,0.74-1.461,4.44-3.136,5.828c-0.179,2.212-0.276,4.497-1.501,5.789
		c-0.116,0.733,0.614,0.643,0.367,1.504c-1.95,1.252-0.01,5.918-2.462,6.72c-1.241-1.433,1.028-11.056,1.338-12.444
		c0.18-0.005,0.366-0.254-0.009-0.303C59.899,49.867,53.167,59.192,53.81,60.799z M238.725,153.186
		c2.636,3.846,1.214,6.538,1.589,11.464c-0.305-2.288,2.341,15.383,2.341,15.383c-1.258,6.207,0.802,13.831,2.428,19.012
		c-0.012-0.042-0.584,0.767,0.022,0.908c0.274,0.662,1.55,0.354,1.667,1.17c1.471,7.443,1.73,17.209,1.73,17.209
		c0.164,0.314,0.468,19.321,0.476,19.668c-0.288,1.024-1.151,1.431-1.252,2.449c0.685,1.714,0.021,4.731,0.81,6.339
		c-0.193-1.453,0.898-1.775,2.253-1.869c0.077,0.404,0.463,8.092,0.853,8.151c1.099-4.825-0.604-36.563-0.532-35.405
		c0,0-2.237-19.652-2.473-20.827c2.474-7.406-1.716-21.895-2.83-22.03c-0.64,1.041,4.819,24.225,0.267,24.514
		c-0.655-0.635-0.514-9.003-0.525-8.161c0.009-0.497-4.166-17.769,0.58-16.664c0.886-2.085-1.412-5.746-1.158-7.239
		c-2.178-2.456-2.55-11.173-6.028-18.62C238.702,150.316,240.281,153.627,238.725,153.186z M248.31,251.033
		c-1.109,0.573-0.559,2.955,0.096,3.934c-1.763,0.204-1.035,8.95-0.728,10.613c0.771-3.493,1.898-9.285,0.701-11.824
		c1.435-1.052,0.229-2.763-0.111-4.537C247.829,249.615,247.853,250.659,248.31,251.033z M247.148,270.739
		c0,0-2.011,9.177-2.387,9.744c1.327-0.362,4.43-10.036,3.998-10.994c-0.483,0.364-0.783,0.892-1.618,0.946
		c0.765-0.815,0.395-1.635,0.262-2.73C245.207,268.18,246.083,269.772,247.148,270.739z M228.208,301.166
		c1.095-0.023,0.841-1.236,1.601-1.552c-0.926-1.481,0.879-4.454-0.124-5.143C229.685,294.471,228.208,301.165,228.208,301.166z
		 M33.721,314.357c-0.091-1.356-0.623-2.289-1.384-2.998c0.855-0.161-0.741-2.112-1.011-1.183
		C32.495,311.753,31.909,313.262,33.721,314.357z M49.529,330.62c1.694,0.731,2.91,1.927,4.653,2.614
		c-0.142-2.339-1.675-3.328-3.378-4.157c-0.147-1.097-1.433-1.088-1.691-2.077c-0.421-0.007-0.464-0.376-0.991-0.278
		C47.878,328.711,49.68,328.722,49.529,330.62z M60.814,336.1c-0.511-1.365-1.664-2.102-3.34-2.34
		C57.424,335.663,59.188,335.817,60.814,336.1z M89.213,344.19c-0.747-0.31-0.171-1.901-1.677-1.473
		C86.614,343.764,88.218,345.168,89.213,344.19z"/>
	<path fill-rule="evenodd" clip-rule="evenodd" d="M162.716,48.169c0.134,1.006,0.985,1.318,0.721,2.707
		c-0.313,1.674,1.863,5.961,2.236,7.861c0.901,4.582,1.205,9.32,2.553,13.818c0.552-0.403,1.276-0.657,1.275-1.545
		c0.167-0.306,1.667-1.381,0.296-1.219c1.182-0.86,2.818-1.119,4.255-0.404c-0.392,16.301-26.998,55.633-27.485,56.668
		c-0.977,0.424-1.143,0.112-2.616,0.368c-0.392-0.444-0.439-1.229-1.017-1.49c0.195-0.948,10.312-15.884,11.409-16.32
		c-0.118-1.875,3.618-3.831,1.45-7.904c-1.42-2.669-3.468-12.584-0.376-14.807c2.105,3.734,0.818,8.451,2.618,12.292
		c2.987-2.463,3.311-7.248,5.009-10.499c1.748-3.347,3.824-6.46,3.628-10.298c-0.198-3.989-1.762-8.219-2.64-12.127
		c-0.341-1.52-4.702-15.286-3.588-16.138c0.301-0.231,0.484-0.563,0.635-0.922C161.624,48.195,162.168,48.185,162.716,48.169z"/>
	<path fill-rule="evenodd" clip-rule="evenodd" d="M195.643,161.796c1.347-0.031,2.478,0.18,2.368,2.97
		c4.248,9.354,0.786,7.145,4.828,9.875c0.193,1.018,2.196,20.377,1.505,21.455c-1.037,0.851-1.158-1.169-2.323-1.154
		c1.92-0.978-0.301-4.487-0.162-6.655c-1.034,2.695-0.562,5.102-1.119,7.896c-0.714,0.719-1.284-0.069-2.294,0.057
		c-0.203,6.201-1.174,5.779-1.174,5.779c-0.467-0.476-0.952-0.933-1.349-1.479c0.934,0.029-0.444-1.97,0.947-1.538
		c0.001-0.003-3.069-18.392-3.069-18.392c2.899-0.528,4.499,10.371,4.542,11.394c1.087-0.748,3.001-15.428-3-28.988
		C195.29,162.475,195.729,162.368,195.643,161.796z"/>
	<path fill-rule="evenodd" clip-rule="evenodd" d="M201.433,306.053c1.472,0.948,0.643,4.127,1.451,5.717
		c-1.248,1.496-0.291,3.238-0.851,5.468c1.52-2.336,0.754-8.191,4.742-7.38c-0.179,1.783-1.069,3.491-1.515,5.186
		c-0.344,1.303-6.678,22.25-6.676,22.258c-1.715,0.171-0.809,2.649-2.89,2.493c-1.891-0.12-0.311-4.368,0.551-4.251
		c-0.081-2.934,1.671-4.255,1.463-7.303c0.661-0.404,0.305-1.705,1.269-1.846c0,0,1.708-16.004,0.506-19.689
		C200.163,306.515,200.399,305.934,201.433,306.053z"/>
</g>
</svg>
