<?xml version="1.0" encoding="utf-8"?>
<!-- Generator: Adobe Illustrator 16.0.0, SVG Export Plug-In . SVG Version: 6.00 Build 0)  -->
<!DOCTYPE svg PUBLIC "-//W3C//DTD SVG 1.1//EN" "http://www.w3.org/Graphics/SVG/1.1/DTD/svg11.dtd">
<svg version="1.1" id="Layer_1" xmlns="http://www.w3.org/2000/svg" xmlns:xlink="http://www.w3.org/1999/xlink" x="0px" y="0px"
	 width="36.117px" height="35.55px" viewBox="0 0 36.117 35.55" enable-background="new 0 0 36.117 35.55" xml:space="preserve">
<g>
	<path fill="#FFFFFF" d="M35.914,33.717c0,0.9-0.73,1.63-1.629,1.63H1.834c-0.9,0-1.629-0.729-1.629-1.63V1.832
		c0-0.898,0.729-1.628,1.629-1.628h32.451c0.898,0,1.629,0.729,1.629,1.628V33.717z"/>
	<g>
		<path fill="#A3D783" d="M35.914,33.717V1.832c0-0.898-0.73-1.628-1.629-1.628h-2.906H4.74H1.834c-0.898,0-1.625,0.726-1.629,1.621
			v28.986v2.909c0,0.897,0.73,1.626,1.629,1.626h18.021V21.237h-4.652v-4.86h4.652v-5.279c0-3.163,2.867-5.289,5.182-5.289h5.209
			v4.423h-2.402c-1.184,0-2.762,0.961-2.762,2.143v4.003h4.691v4.86h-4.691v14.109h6.297h2.906
			C35.184,35.347,35.914,34.617,35.914,33.717z"/>
		<path fill="#A3D783" d="M34.285,35.55h-9.408V21.034h4.691V16.58h-4.691v-4.206c0-1.264,1.631-2.347,2.967-2.347h2.197V6.012
			h-5.004c-2.08,0-4.979,1.935-4.979,5.086v5.482h-4.652v4.454h4.652V35.55H1.834c-1.01,0-1.832-0.82-1.834-1.829L0.002,1.825
			C0.006,0.818,0.828,0,1.834,0h32.451c1.01,0,1.832,0.822,1.832,1.832v31.885C36.117,34.728,35.295,35.55,34.285,35.55z
			 M1.834,0.407c-0.783,0-1.422,0.637-1.426,1.419v31.895c0,0.784,0.641,1.422,1.426,1.422H19.65V21.441H15v-5.269h4.65v-5.075
			c0-3.144,2.846-5.493,5.387-5.493h5.412v4.83h-2.605c-1.129,0-2.559,0.913-2.559,1.939v3.799h4.691v5.269h-4.691v13.701h9
			c0.785,0,1.424-0.64,1.424-1.426V1.832c0-0.785-0.639-1.425-1.424-1.425"/>
	</g>
</g>
</svg>
