<?xml version="1.0" encoding="utf-8"?>
<!-- Generator: Adobe Illustrator 16.0.0, SVG Export Plug-In . SVG Version: 6.00 Build 0)  -->
<!DOCTYPE svg PUBLIC "-//W3C//DTD SVG 1.1//EN" "http://www.w3.org/Graphics/SVG/1.1/DTD/svg11.dtd">
<svg version="1.1" id="Layer_1" xmlns="http://www.w3.org/2000/svg" xmlns:xlink="http://www.w3.org/1999/xlink" x="0px" y="0px"
	 width="35.4px" height="35.324px" viewBox="0 0 35.4 35.324" enable-background="new 0 0 35.4 35.324" xml:space="preserve">
<g>
	<path fill="#A3D783" d="M7.703,0C3.449,0,0,3.464,0,7.738v19.848c0,4.274,3.449,7.738,7.703,7.738h19.996
		c4.252,0,7.701-3.464,7.701-7.738V7.738C35.4,3.464,31.951,0,27.699,0H7.703z"/>
	<path fill="#FFFFFF" d="M23.027,30.966h-10.76c-4.117,0-7.486-3.369-7.486-7.486V12.013c0-4.118,3.369-7.487,7.486-7.487h10.76
		c4.119,0,7.488,3.369,7.488,7.487v11.467C30.516,27.597,27.146,30.966,23.027,30.966 M23.027,28.987
		c1.465,0,2.846-0.575,3.891-1.62c1.043-1.044,1.619-2.425,1.619-3.888V12.013c0-1.464-0.576-2.845-1.619-3.889
		c-1.045-1.045-2.426-1.62-3.891-1.62h-10.76c-1.463,0-2.844,0.575-3.889,1.62c-1.045,1.044-1.621,2.425-1.621,3.889v11.467
		c0,1.463,0.576,2.844,1.621,3.888c1.045,1.045,2.426,1.62,3.889,1.62H23.027z"/>
	<path fill="#FFFFFF" d="M24.773,17.644c0,3.913-3.172,7.086-7.086,7.086s-7.086-3.173-7.086-7.086c0-3.914,3.172-7.087,7.086-7.087
		S24.773,13.729,24.773,17.644 M17.652,13.009c-2.563,0-4.639,2.077-4.639,4.641c0,2.563,2.076,4.64,4.639,4.64
		c2.564,0,4.643-2.077,4.643-4.64C22.295,15.086,20.217,13.009,17.652,13.009"/>
	<path fill="#FFFFFF" d="M26.566,10.447c0,0.926-0.752,1.678-1.68,1.678c-0.926,0-1.676-0.752-1.676-1.678
		c0-0.928,0.75-1.679,1.676-1.679C25.814,8.769,26.566,9.52,26.566,10.447"/>
	<rect x="-2.162" y="-2.2" fill="none" width="39.725" height="39.725"/>
</g>
</svg>
