<?xml version="1.0" encoding="utf-8"?>
<!-- Generator: Adobe Illustrator 16.0.0, SVG Export Plug-In . SVG Version: 6.00 Build 0)  -->
<!DOCTYPE svg PUBLIC "-//W3C//DTD SVG 1.1//EN" "http://www.w3.org/Graphics/SVG/1.1/DTD/svg11.dtd">
<svg version="1.1" id="Layer_1" xmlns="http://www.w3.org/2000/svg" xmlns:xlink="http://www.w3.org/1999/xlink" x="0px" y="0px"
	 width="277.33px" height="146.582px" viewBox="0 0 277.33 146.582" enable-background="new 0 0 277.33 146.582"
	 xml:space="preserve">
<g>
	<path fill-rule="evenodd" clip-rule="evenodd" d="M46.056,109.279c-10.484-8.746-19.472-19.193-27.407-31.244
		C8.641,62.838,4.299,44.446,1.098,26.733c-1.832-10.132-1.045-20.272,0-31.686c0.482-5.281,0.936-10.382,2.084-15.427
		c4.912-21.565,12.551-42.843,27.096-59.883c4.386-5.136,9.26-9.929,14.535-14.149c15.135-12.111,29.841-22.197,48.334-28.628
		c11.938-4.15,25.414-6.247,38.027-6.987c22.459-1.318,46.018,3.682,67.013,11.338c10.519,3.836,21.01,8.628,30.059,15.29
		c3.681,2.711,6.657,6.253,10.143,9.354c2.831,2.521,9.101,7.604,9.542,11.522c3.465,1.245,7.958,10.743,9.863,13.861
		c5.424,8.877,10.318,18.607,13.046,28.687c0.843,3.112,1.507,6.317,2.085,9.59c0.573,3.245,0.713,6.636,1.25,10.005
		c1.002,6.274,2.327,12.827,2.919,20.013c0.555,6.725,0.074,14.088-0.833,21.263c-0.405,3.194-0.707,6.399-1.252,9.588
		c-0.985,5.782-2.16,11.098-3.752,16.26c-2.276,7.383-4.42,14.985-8.407,21.665c-5.234,8.767-11.701,17.156-18.659,24.631
		c-6.967,7.481-13.95,15.091-22.346,21.01c-8.836,6.23-18.943,10.505-28.523,15.429c-23.494,12.075-53.117,15.232-78.976,10.753
		c-7.792-1.35-15.723-3.333-23.194-5.936c-1.738-0.606-3.267-1.813-5.003-2.501c-1.116-0.443-2.211-0.425-3.335-0.834
		c-2.361-0.858-5.171-2.523-7.922-3.753C64.126,122.396,54.594,116.402,46.056,109.279z M245.825,87.185
		c1.479-1.837,3.281-4.475,4.586-5.837c0.311-0.323,0.13-0.419,0.417-0.834c2.231-3.223,4.896-6.553,6.671-9.59
		c0.121-0.208-0.1-0.612,0-0.834c0.064-0.144,0.734-0.248,0.834-0.416c0.653-1.1,0.807-1.815,1.25-2.502
		c1.394-2.149,2.403-4.715,3.336-6.671c0.162-0.34,0.674-0.78,0.834-1.25c0.232-0.682,0.217-1.193,0.417-1.668
		c0.335-0.798,0.925-1.609,1.25-2.501c0.367-1.005,0.445-2.305,0.834-3.336c1.192-3.162,2.198-5.671,2.919-9.172
		c0.844-4.099,2.419-9.357,2.918-12.924c0.85-6.078,1.586-10.983,2.084-17.094c1.014-12.404-1.569-25.83-3.335-35.854
		c-0.351-1.989-0.548-3.9-0.833-5.837c-1.069-7.237-3.264-13.167-5.42-18.344c-0.815-1.957-1.479-3.183-2.085-4.586
		c-0.4-0.928-0.486-1.688-0.834-2.502c-0.337-0.789-0.47-1.691-0.834-2.502c-0.36-0.799-1.261-1.257-1.668-2.084
		c-0.309-0.628-0.199-1.867-0.416-2.084c-0.097-0.098-0.78,0.114-0.834,0c-0.401-0.857-0.368-1.674-0.834-2.501
		c-1.013-1.805-2.591-3.718-3.335-5.004c-0.527-0.911-0.887-1.456-1.251-2.085c-0.527-0.911-0.887-1.455-1.251-2.084
		c-0.529-0.914-0.81-1.495-1.25-2.085c-0.321-0.428-0.536-0.818-0.834-1.25c-0.469-0.678-1.184-0.934-1.668-1.668
		c-0.242-0.368-0.234-0.936-0.417-1.25c-0.463-0.802-0.842-1.552-1.251-2.085c-0.764-0.999-1.797-1.625-2.501-2.502
		c-0.522-0.652-0.763-1.483-1.251-2.084c-1.076-1.324-2.307-2.357-3.336-3.336c-1.27-1.207-2.345-2.801-3.334-3.752
		c-0.281-0.271-0.976-0.141-1.252-0.417c-0.285-0.285-0.121-0.971-0.416-1.251c-1.135-1.078-2.594-1.844-3.753-2.918
		c-0.312-0.29-0.13-0.923-0.416-1.25c-0.272-0.311-0.949-0.133-1.251-0.418c-0.5-0.471-1.025-1.133-1.668-1.668
		c-1.016-0.844-2.658-1.853-3.335-2.501c-0.347-0.332-0.367-0.125-0.834-0.417c-2.694-1.687-5.428-3.502-8.339-5.003
		c-1.5-0.773-3.074-1.361-4.586-2.085c-1.556-0.744-3-1.802-4.586-2.5c-1.529-0.676-3.308-1.063-5.002-1.668
		c-0.729-0.262-1.439-1.035-2.086-1.251c-0.893-0.298-1.997-0.122-2.918-0.417c-1.646-0.529-3.384-1.113-5.003-1.669
		c-1.738-0.596-3.327-1.61-5.003-2.084c-2.803-0.792-5.771-0.979-8.755-1.667c-2.695-0.622-5.571-1.498-8.339-2.086
		c-4.314-0.912-8.958-1.432-13.34-2.084c-1.516-0.226-3.088-0.703-4.586-0.834c-1.91-0.165-3.963,0.191-5.838,0
		c-1.41-0.143-2.757-0.721-4.169-0.833c-7.216-0.575-14.415,0.283-20.012,1.251c-4.567,0.789-8.692,1.217-12.507,2.084
		c-2.918,0.664-6.473,1.421-8.756,2.085c-3.158,0.918-5.783,1.886-8.338,2.918c-3.498,1.413-7.041,2.924-10.006,4.587
		c-3.125,1.752-6.084,3.655-9.172,5.419c-1.421,0.812-2.565,1.04-3.336,1.668c-2.34,1.908-5.695,3.581-7.921,5.003
		c-0.371,0.236-0.86,0.144-1.251,0.417c-0.346,0.242-0.478,1.002-0.834,1.251c-0.777,0.543-1.725,0.677-2.501,1.25
		c-0.256,0.189-0.548,0.601-0.833,0.834c-0.862,0.703-1.529,1.148-2.086,1.668c-1.961,1.834-4.248,3.919-6.254,5.003
		c-1.465,0.792-2.607,2.154-3.751,3.335c-0.409,0.422-0.41,1.263-0.834,1.668c-0.086,0.082-0.779,0.382-0.834,0.417
		c-0.935,0.604-0.948,1.264-1.668,2.085c-2.996,3.417-6.182,6.099-8.755,9.589c-0.415,0.562-0.375,1.081-0.834,1.667
		c-0.328,0.419-0.938,0.867-1.251,1.252c-1.347,1.653-2.363,3.281-3.335,5.002c-0.844,1.495-1.903,3.287-2.502,4.585
		c-0.344,0.748-1.004,1.34-1.25,1.669c-0.217,0.29-0.281,0.992-0.417,1.25c-0.335,0.631-0.507,1.378-0.834,2.086
		c-3.071,6.648-6.834,14.274-7.921,22.095c-0.647,1.76,2.314-0.09,1.667,1.668c-0.327,1.565-2.581-1.096-2.085,0.834
		c-1.222,4.207-2.541,8.397-3.752,12.508c-0.135,0.46-0.213,0.724-0.417,1.25C6.696-17.85,6.41-16.167,6.1-14.542
		c-0.211,1.11-0.694,2.275-0.833,3.336c-0.181,1.382,0.214,2.736,0,4.169C5.049-5.58,4.258-4.331,4.016-2.869
		c-0.272,1.645-0.268,3.62-0.417,5.42C3.037,9.343,3.234,16.577,4.433,22.98c0.473,2.524,1.01,4.913,1.667,7.088
		c0.193,0.636,0.682,1.394,0.835,2.084c0.355,1.602,0.107,3.419,0.416,5.003c0.463,2.378,1.488,4.648,2.085,7.088
		c1.363,5.572,2.498,10.576,4.169,15.009c1.071,2.842,2.566,5.838,3.335,8.339c0.215,0.696,0.514,0.914,0.834,1.666
		c3.137,7.374,7.19,14.05,11.257,19.595c1.745,2.382,3.399,4.123,5.42,6.255c1.497,1.58,3.071,3.138,4.586,4.586
		c3.124,2.988,6.662,5.581,10.006,8.338c5.776,4.762,12.522,9.747,19.179,12.924c0.52,0.25,1.008,0.114,1.667,0.418
		c0.439,0.201,0.751,0.995,1.251,1.25c3.968,2.022,8.551,3.685,12.924,5.42c4.577,1.816,9.354,2.902,14.176,4.169
		c4.838,1.272,9.888,2.328,15.008,3.335c1.882,0.371,3.96,0.502,5.837,0.834c0.474,0.084,1.144,0.734,1.668,0.834
		c1.329,0.255,2.789,0.189,4.169,0.418c7.034,1.157,15.109,1.456,22.931,0.832c4.438-0.354,9.358-1.35,12.924-1.666
		c0.409-0.037,0.737,0.411,0.834,0.416c0.427,0.025,0.487-0.404,0.834-0.416c7.572-0.258,11.893-3.063,18.344-5.003
		c1.439-0.368,0.372-3.243,2.501-2.918c0.096,0.738-0.42,2.087,0.834,1.666c3.337-1.819,6.956-2.816,10.424-4.585
		c1.479-0.755,3.01-1.563,4.168-2.086c0.146-0.064,0.244-0.734,0.418-0.832c1.732-0.987,3.72-1.532,5.419-2.502
		c0.216-0.123,0.56-0.64,0.834-0.834c1.819-1.287,4.503-2.409,6.254-3.335c0.219-0.116,0.607,0.102,0.833,0
		c0.137-0.062,0.264-0.731,0.418-0.834c0.191-0.129,0.621,0.096,0.834,0c0.148-0.067,0.24-0.737,0.416-0.834
		c0.351-0.193,1.057-0.323,1.251-0.417c1.482-0.706,2.443-1.313,3.753-2.085c3.855-2.271,6.979-4.441,9.589-7.504
		c-1.102-0.012-2.613,0.389-2.085-1.251c1.768-1.8,2.488,1.715,3.752,0.417C235.758,98.33,241.085,93.066,245.825,87.185z"/>
	<path fill-rule="evenodd" clip-rule="evenodd" d="M142.43-124.607c0.912,0.062,0.896,1.051,0.834,2.085
		c-1.305,0.193-1.86-0.363-1.667-1.669C142.083-124.122,142.338-124.282,142.43-124.607z"/>
	<path fill-rule="evenodd" clip-rule="evenodd" d="M104.909-122.522c0.061,1.173-1.021,1.201-2.084,1.25
		c-0.221-0.335-0.436-0.676-0.418-1.25C102.697-122.848,104.734-123.451,104.909-122.522z"/>
	<path fill-rule="evenodd" clip-rule="evenodd" d="M120.751-122.105c0.277,1.667-1.104,1.676-2.501,1.667
		c0.22-0.335,0.435-0.676,0.417-1.25C119.845-121.343,119.747-122.277,120.751-122.105z"/>
	<path fill-rule="evenodd" clip-rule="evenodd" d="M137.428-121.688c0.133,0.966-0.066,1.601-0.418,2.084
		c-0.616-0.217-1.05-0.616-1.667-0.834C135.724-121.168,136.118-121.886,137.428-121.688z"/>
	<path fill-rule="evenodd" clip-rule="evenodd" d="M106.994-119.604c-1.062,0.215-1.617,0.711-1.668-0.834
		C106.386-120.653,106.943-121.148,106.994-119.604z"/>
	<path fill-rule="evenodd" clip-rule="evenodd" d="M149.936-120.854c1.303-0.191,1.332,0.89,1.25,2.084
		C149.499-118.302,149.124-120.051,149.936-120.854z"/>
	<path fill-rule="evenodd" clip-rule="evenodd" d="M127.838-120.438c-0.135,1.142-2.131,2.567-2.084,0.418
		C126.239-120.371,126.873-120.571,127.838-120.438z"/>
	<path fill-rule="evenodd" clip-rule="evenodd" d="M174.95-119.186c-0.787-0.187-2.512,0.566-2.084-0.834
		C173.489-120.682,175.243-120.63,174.95-119.186z"/>
	<path fill-rule="evenodd" clip-rule="evenodd" d="M113.664-119.604c0.872,0.369-0.134,2.327-1.25,2.084
		c-0.324-0.37-0.448-0.94-0.417-1.666C112.657-119.222,113.586-118.987,113.664-119.604z"/>
	<path fill-rule="evenodd" clip-rule="evenodd" d="M165.362-117.936c-0.623,0.661-2.377,0.61-2.086-0.834
		C163.899-119.432,165.653-119.38,165.362-117.936z"/>
	<path fill-rule="evenodd" clip-rule="evenodd" d="M184.956-116.685c-0.185,1.875-1.906,1.698-2.918,0.834
		C182.405-117.177,183.711-117.263,184.956-116.685z"/>
	<path fill-rule="evenodd" clip-rule="evenodd" d="M94.069-114.183c0-0.279,0-0.557,0-0.834
		C96.356-116.59,95.753-112.5,94.069-114.183z"/>
	<path fill-rule="evenodd" clip-rule="evenodd" d="M193.294-113.349c0.356,1.576-1.866,1.474-2.502,0.832
		C191.395-113.876,191.724-113.566,193.294-113.349z"/>
	<path fill-rule="evenodd" clip-rule="evenodd" d="M79.894-110.015c0.134,0.967-0.066,1.601-0.417,2.085
		c-1.338,0.365-0.864-1.081-1.667-1.251C77.872-110.092,78.86-110.076,79.894-110.015z"/>
	<path fill-rule="evenodd" clip-rule="evenodd" d="M122.001-96.673c-1.954-0.211-1.224-2.385-1.667-3.752
		c-0.938-2.891-2.852-6.395-2.084-9.173c2.021-0.777,1.331,2.184,1.667,3.336C120.702-103.58,122.093-99.662,122.001-96.673z"/>
	<path fill-rule="evenodd" clip-rule="evenodd" d="M128.672-110.015c0.417,0,0.834,0,1.252,0c0,0.417,0,0.834,0,1.251
		c-0.418,0-0.835,0-1.252,0C128.672-109.181,128.672-109.598,128.672-110.015z"/>
	<path fill-rule="evenodd" clip-rule="evenodd" d="M203.716-110.015c0.968-0.132,1.602,0.067,2.085,0.417
		c-0.221,0.336-0.435,0.677-0.417,1.251C204.08-108.154,203.524-108.709,203.716-110.015z"/>
	<path fill-rule="evenodd" clip-rule="evenodd" d="M169.948-109.598c0.484-0.067,0.74,0.093,0.834,0.417
		c-0.236,1.988-0.436,4.012-1.252,5.42c-1.568-0.169-0.806-2.999-0.416-4.169C169.399-108.789,169.647-109.189,169.948-109.598z"/>
	<path fill-rule="evenodd" clip-rule="evenodd" d="M199.131-109.598c1.397-0.285,1.523,0.7,1.667,1.668c-0.694,0-1.39,0-2.085,0
		C198.538-108.801,199-109.035,199.131-109.598z"/>
	<path fill-rule="evenodd" clip-rule="evenodd" d="M145.348-107.096c-1.09,0.117-1.792-0.153-1.666-1.251
		C144.854-108.773,145.458-108.821,145.348-107.096z"/>
	<path fill-rule="evenodd" clip-rule="evenodd" d="M109.079-108.347c0.917,0.61,1.952,1.104,1.667,2.919
		c-1.269,0.018-1.621-0.882-2.501-1.252C107.94-107.817,109.073-107.519,109.079-108.347z"/>
	<path fill-rule="evenodd" clip-rule="evenodd" d="M162.443-108.347c0.37,0.185,0.745,0.365,0.833,0.834
		c-2.092,6.469-3.154,13.864-5.42,20.846c-0.564,1.741-1.021,3.077-1.666,4.586c-0.281,0.654,0.233,1.441-0.834,1.25
		c-0.346-0.865,0.17-2.064,0.416-2.918c0.279-0.968,0.535-1.937,0.834-2.918c0.569-1.876,1.751-3.833,2.084-5.837
		c0.168-1.01-0.19-1.913,0-2.919c0.219-1.156,0.957-2.494,1.251-3.752c0.358-1.538,0.088-3.256,0.417-4.586
		c0.15-0.606,0.637-1.087,0.834-1.667C161.538-106.449,161.6-107.468,162.443-108.347z"/>
	<path fill-rule="evenodd" clip-rule="evenodd" d="M138.262-107.513c0.484-0.068,0.742,0.092,0.834,0.417
		c0.359,7.447-1.107,13.069-1.252,20.012c-1.955-1.182-1.051-4.836-0.834-7.505c0.063-0.768,0.381-1.498,0.418-2.084
		C137.689-100.797,137.333-104.879,138.262-107.513z"/>
	<path fill-rule="evenodd" clip-rule="evenodd" d="M149.936-107.513c0.673-0.118,0.717,0.394,1.25,0.417
		c-1.767,5.606-1.617,13.056-2.502,20.429c-1.353,0.076-0.363-1.181-0.416-1.668c-0.318-2.919,0.219-6.66,0.416-10.84
		C148.864-102.962,148.071-105.792,149.936-107.513z"/>
	<path fill-rule="evenodd" clip-rule="evenodd" d="M212.055-107.513c1.408,1.69-1.014,2.447-2.502,1.667
		C209.024-107.766,211.668-106.511,212.055-107.513z"/>
	<path fill-rule="evenodd" clip-rule="evenodd" d="M98.655-107.096c1.707,0.101,1.874,1.739,2.085,3.335
		C99.409-104.237,98.788-105.422,98.655-107.096z"/>
	<path fill-rule="evenodd" clip-rule="evenodd" d="M126.588-106.262c0.417,0,0.834,0,1.25,0c0.016,0.998,0.74,1.846,0.834,2.918
		c0.104,1.174-0.467,2.548-0.417,3.753c0.059,1.387,0.267,2.82,0.417,4.168c0.872,7.798,3.523,16.833,3.336,24.598
		c-1.909-1.099-1.345-4.17-1.668-6.671c-0.851-6.59-2.83-14.162-3.335-21.679C126.845-101.558,127.368-104.338,126.588-106.262z"/>
	<path fill-rule="evenodd" clip-rule="evenodd" d="M176.201-105.428c0.484-0.069,0.741,0.092,0.834,0.416
		c-1.068,3.102-2.251,6.088-3.335,9.173C172.659-99.25,175.479-102.394,176.201-105.428z"/>
	<path fill-rule="evenodd" clip-rule="evenodd" d="M183.288-104.594c1.092,0.982-0.68,2.63-0.416,4.169
		C180.463-100.94,182.221-103.932,183.288-104.594z"/>
	<path fill-rule="evenodd" clip-rule="evenodd" d="M66.136-104.178c1.828,0.124,0.617,3.402-0.834,2.919
		C65.032-102.781,65.583-103.48,66.136-104.178z"/>
	<path fill-rule="evenodd" clip-rule="evenodd" d="M104.909-103.761c0.417,0,0.834,0,1.251,0c1.284,1.668,1.375,3.948,2.085,5.836
		c0.682,1.817,2.088,3.335,2.084,5.421c-1.07,0.061-1.289-1.396-1.668-2.085c-1.14-2.078-2.135-5.311-3.335-7.921
		C105.106-102.846,104.891-103.187,104.909-103.761z"/>
	<path fill-rule="evenodd" clip-rule="evenodd" d="M91.568-102.51c1.377,0.29,0.821,2.514,1.667,3.335
		C91.245-98.852,91.604-100.879,91.568-102.51z"/>
	<path fill-rule="evenodd" clip-rule="evenodd" d="M217.892-101.259c0.556,0,1.111,0,1.667,0c-0.184,1.463-0.879,1.767-2.084,1.25
		C217.696-100.344,217.91-100.685,217.892-101.259z"/>
	<path fill-rule="evenodd" clip-rule="evenodd" d="M223.729-100.843c-0.253,0.859,0.672,2.896-0.834,2.502
		C221.218-98.232,221.955-101.749,223.729-100.843z"/>
	<path fill-rule="evenodd" clip-rule="evenodd" d="M66.553-100.425c1.089-0.117,2.086-0.142,1.668,1.25
		C67.13-99.058,66.427-99.327,66.553-100.425z"/>
	<path fill-rule="evenodd" clip-rule="evenodd" d="M86.565-100.425c1.537,0.27,2.187,1.426,2.502,2.918
		c0.601,0.649,1.678,0.822,1.25,2.501C88.193-95.94,86.784-97.587,86.565-100.425z"/>
	<path fill-rule="evenodd" clip-rule="evenodd" d="M202.049-98.341c-0.71,0.818-0.974,2.083-2.084,2.502
		c-0.645,1.44-0.732,3.437-2.502,3.751c-0.361-0.801,0.322-1.403,0.416-1.667c0.16-0.444,0.256-1.997,1.252-1.668
		c-0.186-1.573,0.822-1.957,1.25-2.918C200.938-98.341,201.494-98.341,202.049-98.341z"/>
	<path fill-rule="evenodd" clip-rule="evenodd" d="M83.647-97.507c0.747-0.054,0.879,0.511,1.667,0.416
		c0.495,1.312,1.407,2.207,1.667,3.753c0.194,1.475,1.87,1.466,1.668,3.336c-2.646-0.289-2.993-2.996-4.169-5.421
		C84.065-96.279,83.266-96.562,83.647-97.507z"/>
	<path fill-rule="evenodd" clip-rule="evenodd" d="M142.014-95.423c0.416,0,0.834,0,1.25,0c-0.354,3.259-1.104,6.122-0.834,10.006
		c-2.723-0.666-0.633-6.956-0.416-8.755C142.014-94.589,142.014-95.006,142.014-95.423z"/>
	<path fill-rule="evenodd" clip-rule="evenodd" d="M224.979-95.423c1.469,0.339,2.09,1.524,2.085,3.335
		C225.216-91.962,224.105-94.141,224.979-95.423z"/>
	<path fill-rule="evenodd" clip-rule="evenodd" d="M54.879-95.006c0.871-0.176,1.104,0.286,1.668,0.417
		C56.497-93.405,54.769-93.788,54.879-95.006z"/>
	<path fill-rule="evenodd" clip-rule="evenodd" d="M207.469-93.338c1.402-0.326-0.027,1.325-0.417,2.084
		c-0.4,0.782-0.479,2.561-1.668,2.085C204.855-91.784,206.837-91.886,207.469-93.338z"/>
	<path fill-rule="evenodd" clip-rule="evenodd" d="M50.71-91.254C54.127-93.375,52.06-87.48,50.71-91.254L50.71-91.254z"/>
	<path fill-rule="evenodd" clip-rule="evenodd" d="M86.148-74.161c-0.961-0.425-1.36-1.264-2.085-2.084
		c-1.265-1.433-2.145-2.892-3.295-4.405c-1.045-1.375-2.087-2.835-3.102-4.285c-1.046-1.493-1.993-3.063-3.208-4.422
		c-0.491-0.55-1.585-1.026-1.088-1.919c1.132-2.029,4.884,4.602,5.419,5.38c2.05,2.984,4.083,5.98,5.69,9.233
		C84.843-75.636,86.327-75.729,86.148-74.161z"/>
	<path fill-rule="evenodd" clip-rule="evenodd" d="M210.804-91.254c0.277,2.622-2.497,3.487-3.752,4.587
		c-0.647,0.566-1.409,1.481-2.085,2.084c-0.706,0.631-1.194,1.998-2.501,1.668c1.638-3.504,5.449-4.835,7.087-8.339
		C209.97-91.254,210.387-91.254,210.804-91.254z"/>
	<path fill-rule="evenodd" clip-rule="evenodd" d="M49.459-87.918c-0.797-0.176-1.795-0.151-1.668-1.251
		C48.965-89.596,49.569-89.642,49.459-87.918z"/>
	<path fill-rule="evenodd" clip-rule="evenodd" d="M73.64-83.75c-1.596,0.021-2.094-1.282-2.918-2.084
		c-0.745-0.727-1.82-1.302-2.085-2.502c0.968-0.567,2.123,0.877,2.919,1.668c0.405,0.402,0.423,1.199,0.833,1.668
		C72.762-84.575,74.381-84.756,73.64-83.75z"/>
	<path fill-rule="evenodd" clip-rule="evenodd" d="M238.321-86.251c0.053,0.749-0.511,0.88-0.417,1.668
		c-1.306,0.193-1.861-0.363-1.668-1.668C236.784-86.787,237.773-86.787,238.321-86.251z"/>
	<path fill-rule="evenodd" clip-rule="evenodd" d="M82.345-67.102c0.067,0.256-1.822-1.435-1.978-1.584
		c-1.673-1.626-6.597-3.666-6.74-6.264c-1.047-0.134-1.9-1.503-2.643-2.269c-2.131-2.199-4.424-6.188-7.351-7.365
		c0-0.416,0-0.834,0-1.25c0.617-0.482,1.051-0.482,1.668,0c3.439,4.655,7.419,8.551,11.451,12.673
		C78.457-71.418,81.663-69.533,82.345-67.102z"/>
	<path fill-rule="evenodd" clip-rule="evenodd" d="M93.235-85c0.674-0.119,0.719,0.394,1.251,0.416
		c1.185,3.399,2.87,6.319,4.586,9.173c0.817,1.358,2.166,2.803,2.919,4.585c-1.007,0.097-1.148-0.583-1.668-1.25
		c-0.855-1.101-1.166-2.031-2.084-3.335c-0.289-0.41-1.006-0.848-1.251-1.252c-1.312-2.154-1.84-4.974-3.753-6.671
		C93.235-83.888,93.235-84.445,93.235-85z"/>
	<path fill-rule="evenodd" clip-rule="evenodd" d="M44.457-84.166c2.222-0.258,1.923,2.372-0.417,1.666
		C43.864-83.37,44.326-83.603,44.457-84.166z"/>
	<path fill-rule="evenodd" clip-rule="evenodd" d="M43.206-82.082c-1.09,0.117-1.793-0.152-1.667-1.252
		C42.115-83.948,43.522-83.548,43.206-82.082z"/>
	<path fill-rule="evenodd" clip-rule="evenodd" d="M230.399-83.75c1.268-0.017,2.744-0.242,2.502,1.25
		C231.948-81.595,230.299-82.347,230.399-83.75z"/>
	<path fill-rule="evenodd" clip-rule="evenodd" d="M61.55-83.333c1.27,0.677,2.607,1.285,2.918,2.919
		C62.711-80.498,60.972-82.238,61.55-83.333z"/>
	<path fill-rule="evenodd" clip-rule="evenodd" d="M187.458-83.333c1.065-0.018,0.509,0.312,0.417,0.834
		c-3.962,5.766-7.785,11.979-11.257,18.345c-0.26,0.477-0.159,0.837-0.417,1.25c-0.161,0.26-0.704,0.602-0.834,0.835
		c-1.349,2.438-2.421,5.018-3.798,7.44c-0.746,1.314-1.975,4.45-3.68,4.643c1.865-1.425,2.795-4.647,3.771-6.699
		c2.759-5.798,5.81-11.512,9.079-17.04c1.624-2.748,3.285-6.453,5.467-8.773C186.543-82.857,187.348-82.746,187.458-83.333z"/>
	<path fill-rule="evenodd" clip-rule="evenodd" d="M212.889-82.916c-0.344,2.158-2.055,2.949-3.752,3.753
		c-6.493,5.962-12.363,12.422-18.762,18.761c-1.151,1.141-2.375,2.047-3.414,3.296c-0.729,0.874-1.82,2.724-3.193,2.507
		c1.121-2.587,3.703-4.179,5.625-6.107c0.926-0.93,1.381-1.709,2.19-2.458c2.546-2.356,4.848-4.849,7.322-7.285
		c1.756-1.728,3.565-3.398,5.394-5.049c1.338-1.206,2.322-2.723,3.647-3.91c0.739-0.663,1.471-1.337,2.205-2.006
		C210.231-81.487,212.995-83.585,212.889-82.916z"/>
	<path fill-rule="evenodd" clip-rule="evenodd" d="M218.307-81.248c-0.388,0-1.771,2.965-2.014,3.256
		c-0.667,0.805-1.723,1.089-2.501,1.744c-1.602,1.348-2.875,3.287-4.404,4.776c-4.071,3.965-8.127,8.093-11.925,12.319
		c-1.445,1.609-2.484,2.972-4.169,4.586c-0.535,0.512-0.493,1.875-1.668,1.251c0.236-1.765,3.309-2.491,2.922-4.165
		c0.192,0.832,3.55-3.354,3.65-3.48c3.098-3.857,6.659-7.301,10.036-10.906c1.685-1.8,3.307-3.644,4.842-5.571
		c0.851-1.068,2.399-3.81,3.981-3.81C217.475-81.248,217.891-81.248,218.307-81.248z"/>
	<path fill-rule="evenodd" clip-rule="evenodd" d="M242.073-81.248c1.251,0.713,0.463,1.517,0.417,2.919
		C240.208-78.415,241.821-80.222,242.073-81.248z"/>
	<path fill-rule="evenodd" clip-rule="evenodd" d="M144.932-80.832c0.371,0.186,0.746,0.367,0.834,0.834
		c-1.797,6.248-2.982,13.342-4.169,20.43c-0.306,1.821-0.542,3.559-0.834,5.419c-0.267,1.701-0.972,3.344-1.251,5.004
		c-0.188,1.12,0.148,2.285,0,3.335c-0.225,1.598-1.316,4.565-1.668,7.087c-0.193,1.403-0.101,3.407-0.416,5.003
		c-0.223,1.12,0.319,3.249-1.668,3.336c0.625-7.312,1.559-14.424,2.918-21.263c0.711-3.581,1.054-6.934,1.668-10.423
		c0.275-1.563,0.98-2.979,1.251-4.586c0.779-4.643,1.063-8.864,2.501-12.925C144.246-80.128,144.833-80.237,144.932-80.832z"/>
	<path fill-rule="evenodd" clip-rule="evenodd" d="M41.122-79.998c0.242,1.494-1.234,1.268-2.502,1.251c0-0.416,0-0.834,0-1.251
		C39.153-80.568,40.588-80.568,41.122-79.998z"/>
	<path fill-rule="evenodd" clip-rule="evenodd" d="M56.13-79.998c0.798-1.171,2.173,0.573,3.335,0.417
		C58.875-77.774,57.174-79.753,56.13-79.998z"/>
	<path fill-rule="evenodd" clip-rule="evenodd" d="M111.997-77.497c0.371,0.185,0.745,0.367,0.834,0.834
		c0.944,3.642,2.48,6.691,3.752,10.007c0.424-0.271,0.431-0.959,1.251-0.834c0.526,2.676,2.668,5.94,1.667,8.756
		c-2.069,0.113-1.938-2.496-2.501-3.753c-1.702-3.801-3.865-8.831-5.42-13.342C111.403-76.699,111.866-76.932,111.997-77.497z"/>
	<path fill-rule="evenodd" clip-rule="evenodd" d="M51.96-77.079c1.963,0.59,3.513,1.774,5.004,2.918
		c0.443,0.341,1.621,0.342,1.25,1.251C55.177-73.347,53.136-74.781,51.96-77.079z"/>
	<path fill-rule="evenodd" clip-rule="evenodd" d="M227.898-74.161c0.095,1.436-1.303,1.601-2.085,2.085
		c-0.909,0.563-1.855,1.56-3.335,1.25c0.897-1.742,3.374-1.907,4.169-3.752C227.321-74.695,227.365-74.183,227.898-74.161z"/>
	<path fill-rule="evenodd" clip-rule="evenodd" d="M154.104-73.744c0.418,0,0.834,0,1.252,0c-0.602,6.998-2.697,13.185-4.17,19.595
		c-0.496,2.16-0.459,4.368-1.668,6.254c-1.525,0.007-0.471-2.116-0.416-2.502c0.369-2.622,1.394-5.927,2.084-9.171
		C152.211-64.389,153.383-69.054,154.104-73.744z"/>
	<path fill-rule="evenodd" clip-rule="evenodd" d="M230.399-72.076c0.33,1.975-1.717,2.764-2.918,3.752
		c-0.55,0.452-1.02,1.222-1.668,1.668c-0.63,0.434-1.521,0.42-2.084,0.833c-1.108,0.813-2.207,2.111-3.336,2.918
		c-1.152,0.825-2.233,2.25-3.752,1.669c0.393-1.364,1.909-2.123,2.918-2.919c1.078-0.85,2.251-1.673,3.336-2.501
		c2.104-1.605,4.731-2.834,5.837-5.42C229.288-72.076,229.843-72.076,230.399-72.076z"/>
	<path fill-rule="evenodd" clip-rule="evenodd" d="M55.296-66.656c-3.599,0.264-4.285-2.386-7.088-2.918
		c-0.221-0.336-0.435-0.678-0.417-1.252c1.498-0.628,3.583,1.295,4.586,2.502C53.742-68.158,55.073-67.962,55.296-66.656z"/>
	<path fill-rule="evenodd" clip-rule="evenodd" d="M34.034-69.574c1.54,1.719-2.541,3.342-2.084,0.416
		C32.954-68.987,32.856-69.919,34.034-69.574z"/>
	<path fill-rule="evenodd" clip-rule="evenodd" d="M87.007-69.573c0.002-0.021,0.004-0.042,0.006-0.063
		c0.05-0.458,2.263,2.491,2.347,2.638c0.816,1.427,1.705,2.813,2.574,4.209c2.039,3.271,4.129,6.513,6.12,9.813
		c1.94,3.216,4.582,5.942,6.562,9.189c1.865,3.061,4.017,5.877,5.824,8.978c1.086,1.861,4.713,5.015,4.443,7.308
		c-2.361,0.359-1.836-3.29-4.081-3.303c0.414,0.002-1.552-4.131-1.767-4.433c-2.592-3.654-5.209-7.178-7.636-10.964
		c-1.692-2.642-4.031-4.78-5.607-7.493c-1.517-2.613-2.772-5.37-4.321-7.968C90.107-63.951,86.776-66.914,87.007-69.573z"/>
	<path fill-rule="evenodd" clip-rule="evenodd" d="M248.744-65.405c-0.872-0.519-1.567-1.213-2.085-2.085
		c-0.548,0.535-1.537,0.535-2.085,0c0.261-1.27,0.927-2.131,2.502-2.084C247.369-67.921,249.165-67.772,248.744-65.405z"/>
	<path fill-rule="evenodd" clip-rule="evenodd" d="M136.178-67.073c1.905-0.364,1.668,3.291-0.418,2.502
		C135.706-65.599,135.698-66.581,136.178-67.073z"/>
	<path fill-rule="evenodd" clip-rule="evenodd" d="M231.99-66.167c-0.128,2.896-4.282,3.651-6.115,5.152
		c-6.185,5.065-12.79,9.652-19.239,14.371c-0.539,0.395-1.13,0.814-1.668,1.25c-0.789,0.641-1.634,0.86-2.501,1.668
		c-0.361,0.336-0.957,1.927-2.085,0.834c0.37-1.671,2.153-2.015,3.335-2.918c0.328-0.251,0.436-0.569,0.834-0.834
		c5.55-3.683,10.899-7.843,16.302-11.716c2.293-1.646,4.606-3.356,6.662-5.292C228.801-64.864,229.977-66.595,231.99-66.167z"/>
	<path fill-rule="evenodd" clip-rule="evenodd" d="M26.946-64.571c1.742,0.278,0.194,2.587-0.834,1.25
		C26.26-63.869,26.846-63.976,26.946-64.571z"/>
	<path fill-rule="evenodd" clip-rule="evenodd" d="M237.07-62.905c0.674-0.116,0.718,0.396,1.251,0.418
		c-1.173,2.507-4.481,3.544-7.505,4.587c1.301-1.965,3.845-2.874,5.837-4.17C236.943-62.259,237.069-62.438,237.07-62.905z"/>
	<path fill-rule="evenodd" clip-rule="evenodd" d="M67.803-62.07c0.418,0,0.834,0,1.252,0c4.414,3.645,8.359,7.76,13.758,10.423
		c-0.464-1.403-1.575-2.359-2.502-3.335c-0.834-0.88-2.357-1.42-2.501-2.918c1.458,0.468,2.802,2.119,4.169,3.334
		c0.113,0.101,0.309,0.786,0.416,0.834c0.17,0.077,0.711-0.127,0.835,0c0.292,0.301,0.355,1.162,0.833,1.668
		c0.645,0.682,3.081,2.144,2.085,3.752c-2.059-0.304-3.771-1.729-5.42-2.919c-0.761-0.549-1.317-1.563-2.085-2.084
		c-0.802-0.545-1.781-0.725-2.501-1.251c-1.48-1.082-2.739-2.621-4.169-3.752c-0.34-0.268-0.551-0.146-0.834-0.416
		C70.461-59.383,68.04-60.37,67.803-62.07z"/>
	<path fill-rule="evenodd" clip-rule="evenodd" d="M131.591-59.986c0.371,0.185,0.746,0.366,0.834,0.834
		c0.139,6.115-0.36,12.868,0.417,18.344c-1.197-0.099-1.481-1.66-1.668-2.5c-1.024-4.62,0.509-10.249-0.417-15.426
		C130.528-59.659,131.553-59.328,131.591-59.986z"/>
	<path fill-rule="evenodd" clip-rule="evenodd" d="M242.073-59.152c0.299,1.209-0.151,1.417-0.834,2.084
		c-1.283,1.258-2.826,1.801-4.586,2.919c-2.052,1.305-3.9,3.021-6.254,3.752c-0.54-2.053,3.08-2.896,5.004-4.169
		c2.148-1.421,3.963-3.04,5.42-4.586C241.239-59.152,241.656-59.152,242.073-59.152z"/>
	<path fill-rule="evenodd" clip-rule="evenodd" d="M38.62-57.9c1.942,0.418,3.959,0.765,5.42,1.666
		c-0.368,2.111-3.919,0.04-4.586-0.416C38.564-56.456,38.66-57.246,38.62-57.9z"/>
	<path fill-rule="evenodd" clip-rule="evenodd" d="M24.862-56.234c0.615,1.319-2.396,2.006-2.084,0.418
		C23.261-56.167,23.895-56.366,24.862-56.234z"/>
	<path fill-rule="evenodd" clip-rule="evenodd" d="M258.75-54.982c0.192,1.305-0.363,1.86-1.668,1.667
		C256.888-54.621,257.444-55.175,258.75-54.982z"/>
	<path fill-rule="evenodd" clip-rule="evenodd" d="M254.997-53.732c0.054,0.748-0.51,0.88-0.416,1.668
		c-0.372-0.324-0.942-0.447-1.668-0.417c0-0.417,0-0.834,0-1.251C253.95-53.778,254.204-54.513,254.997-53.732z"/>
	<path fill-rule="evenodd" clip-rule="evenodd" d="M243.741-53.315c-0.313,1.421-4.758,3.244-5.004,0.834
		C240.975-51.927,242.018-54.739,243.741-53.315z"/>
	<path fill-rule="evenodd" clip-rule="evenodd" d="M25.279-51.647c-0.051,1.061-0.606,1.617-1.668,1.668
		c-0.221-0.336-0.435-0.678-0.417-1.252C23.678-51.58,24.312-51.78,25.279-51.647z"/>
	<path fill-rule="evenodd" clip-rule="evenodd" d="M248.744-49.979c-2.577,1.592-5.056,3.282-8.755,3.752
		c0.502-1.31,2.135-1.842,3.335-2.502c1.308-0.72,2.828-1.041,3.752-2.084C247.693-50.597,248.126-50.197,248.744-49.979z"/>
	<path fill-rule="evenodd" clip-rule="evenodd" d="M42.373-45.394c-2.512,0.428-3.236-0.934-4.587-1.667
		C37.806-48.364,42.304-46.851,42.373-45.394z"/>
	<path fill-rule="evenodd" clip-rule="evenodd" d="M257.499-47.895c0,0.556,0,1.112,0,1.668c-1.091,0.117-1.793-0.152-1.668-1.251
		C256.202-47.802,256.772-47.926,257.499-47.895z"/>
	<path fill-rule="evenodd" clip-rule="evenodd" d="M32.366-44.976c1.426,0.521,3.154,0.736,4.586,1.25
		C36.629-41.714,32.063-43.521,32.366-44.976z"/>
	<path fill-rule="evenodd" clip-rule="evenodd" d="M247.493-44.56c0.25,2.363-2.919,2.04-4.586,2.502
		c-1.9,0.525-3.964,1.688-5.42,0.834c0.592-1.384,2.534-0.894,3.752-1.252c1.892-0.554,3.911-1.152,5.003-2.5
		C246.916-45.093,246.959-44.583,247.493-44.56z"/>
	<path fill-rule="evenodd" clip-rule="evenodd" d="M118.25-42.476c0.417,0,0.833,0,1.25,0c1.256,1.921,2.094,4.07,2.918,6.255
		c1.03,2.726,1.906,5.146,2.919,8.337s3.583,6.891,4.169,11.258c-1.795,0.54-1.656-1.479-2.084-2.502
		c-0.382-0.91-0.932-2.047-1.251-2.919c-1.012-2.762-2.1-5.676-2.919-8.337c-0.954-3.102-2.732-7.526-4.585-10.424
		C118.343-41.178,118.219-41.749,118.25-42.476z"/>
	<path fill-rule="evenodd" clip-rule="evenodd" d="M217.058-41.224c-0.538,1.612-2.636,2.318-4.169,2.918
		c-1.541,0.603-3.549,1.247-5.42,1.251c0.499-2.976,3.988-2.961,5.42-5.003c1.083-0.25,1.5,0.167,1.25,1.25
		C215.38-40.786,216.255-42.034,217.058-41.224z"/>
	<path fill-rule="evenodd" clip-rule="evenodd" d="M19.859-40.39c0.117,1.09-0.152,1.793-1.251,1.667
		c-0.221-0.335-0.435-0.677-0.417-1.251C18.562-40.297,19.133-40.421,19.859-40.39z"/>
	<path fill-rule="evenodd" clip-rule="evenodd" d="M45.291-36.221c-3.828,0.628-8.407-1.597-12.091-2.502
		c-0.709,0.154-0.786-0.325-0.834-0.834c0.371-0.323,0.941-0.448,1.668-0.417C37.436-38.374,41.825-37.759,45.291-36.221z"/>
	<path fill-rule="evenodd" clip-rule="evenodd" d="M148.45-14.668c-0.502-0.69,1.535-2.413,1.889-3.134
		c0.834-1.702,4.453-4.955,6.837-7.611c0.901-1.004,4.288-3.286,4.009-4.475c1.295,0.3,3.193-2.87,4.029-3.688
		c0.773-0.754,5.744-4.048,5.555-5.071c0.401,2.163-2.226,2.65-3.336,3.752c-0.224,0.223-0.206,0.592-0.416,0.834
		c-1.496,1.729-3.07,3.39-4.658,5.032c-3.291,3.407-6.355,6.688-9.233,10.48c-0.94,1.239-0.94,1.239-2.562,3.223
		C150.188-14.87,148.591-14.473,148.45-14.668z"/>
	<path fill-rule="evenodd" clip-rule="evenodd" d="M16.524-39.14c-0.009,1.143-1.967,0.99-2.502,0.417
		C14.031-39.866,15.989-39.712,16.524-39.14z"/>
	<path fill-rule="evenodd" clip-rule="evenodd" d="M50.71-39.557c2.005,1.33,5.36,1.31,7.504,2.502
		c-1.789,0.882-4.222-0.423-5.837-1.251C51.62-38.695,50.251-38.505,50.71-39.557z"/>
	<path fill-rule="evenodd" clip-rule="evenodd" d="M189.958-37.889c0.401,0.944-0.845,0.867-1.25,1.25
		c-0.722,0.684-1.438,1.177-2.502,2.086c-0.041,0.034-0.813,0.389-0.833,0.416c-0.094,0.133,0.126,0.749,0,0.834
		c-0.689,0.464-1.794,0.548-2.502,0.834c0.07-1.659,2.17-1.948,3.335-2.918c0.123-0.104,0.303-0.783,0.417-0.834
		c0.82-0.369,0.738-0.243,1.251-0.834C188.091-37.306,189.158-38.734,189.958-37.889z"/>
	<path fill-rule="evenodd" clip-rule="evenodd" d="M247.91-37.889c0.278,0,0.556,0,0.834,0c0.725,1.569-1.805,1.854-2.502,2.084
		c-1.299,0.431-3.017,0.547-4.169,0.834c-6.232,1.558-13.135,3.654-19.595,5.421c-0.686,0.187-1.34,0.18-2.085,0.416
		c-2.85,0.909-8.032,2.31-12.09,2.502c-0.174-1.039,1.584-1.121,2.084-1.252c2.526-0.654,5.292-0.977,7.922-1.666
		c6.285-1.65,12.637-3.608,19.595-5.421C241.335-35.864,244.482-36.928,247.91-37.889z"/>
	<path fill-rule="evenodd" clip-rule="evenodd" d="M91.568-19.128c0.036,1.548-1.636,0.012-1.668,0
		c-0.87-0.301-1.78-0.561-2.501-0.833c-0.768-0.292-1.669-0.523-2.502-0.834c-0.69-0.259-1.383-0.96-2.084-1.252
		c-3.107-1.287-6.773-2.038-10.007-3.335c-0.7-0.279-1.405-0.967-2.084-1.25c-5.07-2.113-12.03-3.575-17.928-5.42
		c-0.256-0.371-0.503-0.745,0-0.834c0.338-0.079,0.416-0.418,0.835-0.417c1.729,0.363,3.346,1.165,5.002,1.668
		c1.803,0.548,3.725,0.714,5.42,1.251c0.236,0.075,0.443,0.679,0.834,0.834c0.444,0.176,1.093,0.362,1.251,0.416
		c1.688,0.57,3.104,0.893,5.003,1.668C77.448-24.892,85.293-22.592,91.568-19.128z"/>
	<path fill-rule="evenodd" clip-rule="evenodd" d="M265.836-32.469c0,0.417,0,0.834,0,1.251c-0.738-0.096-2.088,0.42-1.667-0.834
		C264.54-32.376,265.111-32.5,265.836-32.469z"/>
	<path fill-rule="evenodd" clip-rule="evenodd" d="M252.079-29.968c-1.07,2.543-4.787,2.439-8.338,2.502
		c0.696-1.202,2.418-0.824,3.752-1.25C249.053-29.215,250.793-30.841,252.079-29.968z"/>
	<path fill-rule="evenodd" clip-rule="evenodd" d="M51.544-23.713c-0.766,1.006-2.458-0.572-4.17,0
		c-4.743-2.065-11.059-2.562-16.259-4.171c0.182-0.512,0.533-0.855,1.25-0.832C38.856-27.147,45.427-25.658,51.544-23.713z"/>
	<path fill-rule="evenodd" clip-rule="evenodd" d="M12.354-26.632c0,0.556,0,1.111,0,1.667c-1.193,0.083-2.275,0.052-2.084-1.251
		C10.754-26.566,11.387-26.766,12.354-26.632z"/>
	<path fill-rule="evenodd" clip-rule="evenodd" d="M148.268-26.216c0.404,0.012,0.322,0.511,0.416,0.834
		c-0.457,0.824-0.352,2.234-0.833,3.335c-0.085,0.195-0.765,0.262-0.834,0.418c-0.407,0.902-0.925,4.032-2.501,2.918
		C145.698-21.282,146.38-24.35,148.268-26.216z"/>
	<path fill-rule="evenodd" clip-rule="evenodd" d="M130.757-25.382c0.485-0.066,0.742,0.092,0.834,0.417
		c0.11,2.124,2.329,4.328,1.251,6.254c-1.937-0.565-0.889-4.115-2.502-5.002C130.164-24.585,130.625-24.818,130.757-25.382z"/>
	<path fill-rule="evenodd" clip-rule="evenodd" d="M265.836-25.382c0.872-0.177,1.104,0.286,1.668,0.417
		c-0.221,0.336-0.436,0.677-0.417,1.252C265.989-23.589,265.719-24.292,265.836-25.382z"/>
	<path fill-rule="evenodd" clip-rule="evenodd" d="M100.323-24.965c2.361,0.121,3.579,2.212,5.003,3.336
		c1.472,1.161,3.548,1.756,4.169,3.753c1.221,0.308,2.049,1.007,2.919,1.666c0.025,1.802-0.711-0.109-1.251-0.416
		c-1.489-0.845-2.371-1.072-3.752-2.085c-0.522-0.383-1.464-0.646-1.668-0.834c-0.466-0.43-0.478-1.553-1.251-2.084
		c-0.924,0.009-1.852-0.775-2.501-1.25C101.377-23.33,100.004-23.691,100.323-24.965z"/>
	<path fill-rule="evenodd" clip-rule="evenodd" d="M250.411-23.713c-0.962,1.547-2.856,1.443-5.42,2.084
		c-1.68,0.42-5.011,1.751-7.087,1.25c0.462-1.896,3.813-1.481,6.254-2.084C246.377-23.011,248.637-24.546,250.411-23.713z"/>
	<path fill-rule="evenodd" clip-rule="evenodd" d="M27.78-21.213c-0.895,0.773-3.054,0.282-4.586,0.418
		C23.36-22.195,27.867-23.401,27.78-21.213z"/>
	<path fill-rule="evenodd" clip-rule="evenodd" d="M262.501-21.629c1.091-0.117,1.793,0.151,1.668,1.25
		C263.389-19.56,262.161-20.137,262.501-21.629z"/>
	<path fill-rule="evenodd" clip-rule="evenodd" d="M120.334-14.958c-1.498-0.587-2.974-1.195-3.335-2.918
		C118.252-18.5,120.299-16.885,120.334-14.958z"/>
	<path fill-rule="evenodd" clip-rule="evenodd" d="M265.419-17.042c-0.362,0.609-0.624,1.32-1.667,1.25
		c-0.221-0.336-0.436-0.678-0.417-1.25C263.883-17.58,264.872-17.58,265.419-17.042z"/>
	<path fill-rule="evenodd" clip-rule="evenodd" d="M269.172-15.376c-0.979,0.134-1.565,0.66-2.919,0.418
		C265.858-16.683,269.348-17.515,269.172-15.376z"/>
	<path fill-rule="evenodd" clip-rule="evenodd" d="M8.602-16.21c1.194-0.081,2.275-0.051,2.085,1.252
		C9.987-14.251,8.239-14.627,8.602-16.21z"/>
	<path fill-rule="evenodd" clip-rule="evenodd" d="M165.778-14.542c-0.064,1.319-1.814,0.93-2.502,1.251
		c-0.895,0.421-1.336,1.655-2.501,1.251C159.665-13.848,164.722-14.933,165.778-14.542z"/>
	<path fill-rule="evenodd" clip-rule="evenodd" d="M249.161-14.125c-1.26,1.982-4.92,1.87-7.922,2.501
		c-1.359,0.285-2.996,0.751-4.586,0.834c-1.062,0.056-3.341,1.397-3.336-0.834C239.051-12.004,243.895-13.277,249.161-14.125z"/>
	<path fill-rule="evenodd" clip-rule="evenodd" d="M224.562-10.79c-0.823,1.399-2.882,1.564-5.003,1.668
		c-3.751,1.531-7.952,1.614-12.924,2.501c-3.588,0.64-8.575,2.625-12.924,2.084c1.556-1.501,4.392-1.722,7.504-1.667
		c6.487-2.268,15.221-2.289,21.68-4.586C223.451-10.79,224.006-10.79,224.562-10.79z"/>
	<path fill-rule="evenodd" clip-rule="evenodd" d="M113.664-6.621c-0.609,1.84-2.755,0.933-4.169,0.834
		c-3.007-0.211-6.035-0.951-9.589-1.251c-0.313-0.026-0.436,0.417-0.834,0.417c-0.192,0-1.938-0.745-2.501-0.834
		c-2.768-0.438-5.514-0.315-7.922-1.251c0.239-0.504,2.697-0.851,2.502-0.416C98.903-7.832,106.302-7.506,113.664-6.621z"/>
	<path fill-rule="evenodd" clip-rule="evenodd" d="M169.53-9.54c0.313,1.337-1.379,0.947-2.084,1.252
		c-1.557,0.671-4.081,1.718-6.254,2.501c-1.295,0.467-2.656,1.518-3.752,0.834c1.031-2.189,3.871-2.227,6.254-2.919
		C165.342-8.351,167.051-9.331,169.53-9.54z"/>
	<path fill-rule="evenodd" clip-rule="evenodd" d="M75.725-7.038c-2.737,0.708-5.609-0.415-8.756-0.417
		c-3.648-0.003-7.603,0.299-11.256,0c-8.275-0.677-18.348-0.245-24.598,0c-0.663,0.026-0.739-0.464-1.251-0.417
		c-1.95,0.181-5.475,0.128-7.505,0c-1.208-0.076-3.477,1.396-3.752-0.834c0.278,0,0.557,0,0.834,0
		c0.673,0.147,0.719-0.433,1.251-0.416c16.21,0.495,32.104,0.745,48.362,0.834c1.146,0.005,2.775-0.165,4.168,0
		C73.862-8.212,75.891-8.806,75.725-7.038z"/>
	<path fill-rule="evenodd" clip-rule="evenodd" d="M7.768-5.37c1.151,0.133,0.722,1.29,0,1.667c-0.277,0-0.556,0-0.833,0
		c0-0.416,0-0.834,0-1.25C7.419-4.885,7.676-5.044,7.768-5.37z"/>
	<path fill-rule="evenodd" clip-rule="evenodd" d="M267.087-4.537c0.458,1.855-2.06,1.987-2.918,1.252
		C263.974-4.878,266.593-4.909,267.087-4.537z"/>
	<path fill-rule="evenodd" clip-rule="evenodd" d="M115.332-1.619c-0.336,1.6-3.181,0.708-5.003,0.834
		c-3.332,0.232-10.434,0.669-16.677,0.418c-0.357-1.313,1.308-0.737,1.668-0.834c0.813-0.219,1.62-0.197,3.752,0
		C104.614-0.689,111.311-2.429,115.332-1.619z"/>
	<path fill-rule="evenodd" clip-rule="evenodd" d="M271.256-1.619c0.304,1.139-0.828,0.841-0.833,1.668
		c-0.548-0.147-0.656-0.733-1.251-0.834C269.475-1.631,270.426-2.487,271.256-1.619z"/>
	<path fill-rule="evenodd" clip-rule="evenodd" d="M253.747,2.134c-0.355,0.454-2.049,0.114-3.336,0
		c-1.005-0.089-3.159,0.576-2.918-0.834C248.885,1.046,253.661-0.177,253.747,2.134z"/>
	<path fill-rule="evenodd" clip-rule="evenodd" d="M271.256,2.968c-1.205,0.517-1.9,0.212-2.084-1.251
		C269.873,1.011,271.62,1.385,271.256,2.968z"/>
	<path fill-rule="evenodd" clip-rule="evenodd" d="M114.498,2.134c-3.878,1.958-9.254,2.419-13.758,3.752
		c-0.309-1.42,1.536-0.688,1.667-1.668C106.7,3.786,109.668,2.031,114.498,2.134z"/>
	<path fill-rule="evenodd" clip-rule="evenodd" d="M196.212,6.304c-2.936-0.524-6.149-1.115-9.589-1.252
		c-1.254-0.05-2.461,0.476-3.752,0.418c-0.175-0.008-1.015-0.409-1.668-0.418c-1.501-0.021-4.127,1.163-4.586-0.834
		c2.068-0.172,4.284,0.037,6.254,0c2.792-0.051,6.366-0.474,9.171,0C193.332,4.436,195.759,4.504,196.212,6.304z"/>
	<path fill-rule="evenodd" clip-rule="evenodd" d="M158.274,4.218c0.277,0,0.555,0,0.834,0c1.426-0.238,2.272,0.583,3.335,0.834
		c0.604,0.144,2.202-0.981,2.085,0.834C162.067,5.707,158.583,6.551,158.274,4.218z"/>
	<path fill-rule="evenodd" clip-rule="evenodd" d="M250.411,6.72c-0.295,2.145-2.627,0.47-3.752,0.417
		c-0.346-0.016-0.651,0.514-1.251,0.417c-10.157-1.648-24.017-2.173-36.688-1.25c0.947-1.114,2.606-1.114,3.751-1.252
		c4.5-0.537,11.103-0.119,15.01-0.416c4.622-0.352,9.363,0.951,13.758,1.25c1.639,0.112,3.248-0.063,5.003,0
		C247.394,5.928,249.52,5.249,250.411,6.72z"/>
	<path fill-rule="evenodd" clip-rule="evenodd" d="M11.938,5.47c0.416,0,0.834,0,1.25,0c0.082,1.192,0.052,2.275-1.25,2.084
		C11.157,6.76,11.892,6.506,11.938,5.47z"/>
	<path fill-rule="evenodd" clip-rule="evenodd" d="M269.172,6.304c2.14-0.056,3.342,0.826,3.752,2.501
		C271.186,9.913,269.675,7.762,269.172,6.304z"/>
	<path fill-rule="evenodd" clip-rule="evenodd" d="M260.417,8.388c-2.284,0.912-6.209,0.184-9.172,0.417
		c-0.097-1.058,1.314-1.125,2.084-1.251c0.749-0.122,2.991,0.265,4.17,0C257.347,7.588,260.897,6.19,260.417,8.388z"/>
	<path fill-rule="evenodd" clip-rule="evenodd" d="M32.366,7.554c-2.638,1.81-7.129,1.765-11.256,2.085
		c-0.668-1.642,1.801-0.146,1.668-1.251C26.219,8.355,28.992,7.654,32.366,7.554z"/>
	<path fill-rule="evenodd" clip-rule="evenodd" d="M115.749,10.889c-0.563,1.602-2.503,1.438-3.752,2.084
		c-0.494,0.256-1.09,0.921-1.668,1.252c-1.711,0.98-3.744,1.73-5.837,2.918c-1.254,0.712-2.157,1.863-3.335,2.501
		c-0.6,0.325-1.471,0.146-2.085,0.418c-0.366,0.161-0.462,0.603-0.833,0.834c-0.431,0.267-0.855,0.182-1.251,0.416
		c-1.32,0.784-3.627,2.648-5.837,2.085c0.699-1.043,1.911-1.176,2.918-1.668c6.287-3.069,13.45-7.329,19.595-11.256
		C114.27,10.701,115.819,9.985,115.749,10.889z"/>
	<path fill-rule="evenodd" clip-rule="evenodd" d="M240.823,10.889c0.277,0,0.555,0,0.833,0c2.941,0.441,6.498,0.906,10.423,1.252
		c1.838,0.16,4.133-0.545,5.42,0.832c-1.438,1.63-4.672,0.333-7.504,0c-2.557-0.299-5.576,0.149-7.505-0.416
		C241.768,12.346,240.901,11.785,240.823,10.889z"/>
	<path fill-rule="evenodd" clip-rule="evenodd" d="M87.815,11.307c0.088,1.703-1.875,1.632-2.918,2.084
		c-2.404,1.042-4.546,2.098-7.087,2.918c-1.142,0.368-2.289,0.857-3.336,0.417c2.372-2.263,6.32-2.494,9.589-3.753
		C85.388,12.464,86.423,11.295,87.815,11.307z"/>
	<path fill-rule="evenodd" clip-rule="evenodd" d="M143.264,11.307c0.674-0.119,0.719,0.393,1.252,0.416
		c1.969,2.616,4.115,5.055,5.42,8.339c-2.152-0.628-2.122-3.438-4.17-4.17C145.625,13.67,143.749,13.186,143.264,11.307z"/>
	<path fill-rule="evenodd" clip-rule="evenodd" d="M255.415,18.81c0.071,1.452-2.064,0.847-2.502,0.834
		c-4.146-0.117-8.65-1.848-13.342-2.501c-5.631-0.784-11.21-1.436-17.093-2.084c-4.393-0.483-8.778-0.716-12.091-2.086
		c0.186-0.37,0.366-0.744,0.834-0.832c10.804,2.133,22.771,2.541,33.77,4.585c1.751,0.326,3.314,0.986,5.004,1.251
		C251.753,18.251,254.005,17.264,255.415,18.81z"/>
	<path fill-rule="evenodd" clip-rule="evenodd" d="M117.417,15.059c-0.43,1.377-1.746,1.867-2.919,2.501
		c-1.476,1.164-2.523,2.757-4.585,3.336c0.63-1.733,2.09-2.636,3.334-3.753C114.618,16.553,115.604,13.877,117.417,15.059z"/>
	<path fill-rule="evenodd" clip-rule="evenodd" d="M162.86,15.892c0.484-0.067,0.742,0.093,0.834,0.417
		c3.682,1.219,6.035,4.404,8.754,6.671c1.422,1.185,3.136,2.157,4.587,3.335c1.342,1.09,2.827,2.229,3.752,3.753
		c1.989,0.651,3.808,1.473,4.587,3.334c-2.485-0.392-4.443-2.042-6.254-3.334c-5.281-3.77-9.947-8.811-15.844-12.508
		C162.954,17.19,162.829,16.619,162.86,15.892z"/>
	<path fill-rule="evenodd" clip-rule="evenodd" d="M9.853,19.228c-1.194,0.081-2.275,0.052-2.085-1.251
		C8.92,17.514,10.106,17.327,9.853,19.228z"/>
	<path fill-rule="evenodd" clip-rule="evenodd" d="M193.294,17.977c0.011-0.405,0.511-0.323,0.834-0.417
		c1.85,0.083,4.058,0.834,6.253,1.25c1.221,0.233,3.71-0.843,3.752,1.252C199.958,19.929,195.898,19.681,193.294,17.977z"/>
	<path fill-rule="evenodd" clip-rule="evenodd" d="M154.104,18.81c0.418,0,0.834,0,1.252,0c0.778,2.066,2.458,3.147,3.752,5.004
		c0.473,0.679,1.298,1.037,0.833,2.085c-1.565-0.59-2.353-2.142-3.335-3.336C155.762,21.538,154.288,20.407,154.104,18.81z"/>
	<path fill-rule="evenodd" clip-rule="evenodd" d="M68.221,22.146c-0.307,1.593-2.595,1.699-3.753,2.085
		c-3.388,1.127-7.177,2.057-10.839,3.334c-1.23,0.431-3.504,1.233-5.421,1.668c-0.661,0.15-1.423-0.146-2.085,0
		c-0.237,0.054-1.073,0.786-1.25,0.835c-4.437,1.224-8.861,2.298-13.341,3.752c-1.711,0.556-4.033,2.217-5.837,0.834
		c0.949-2.597,3.909-1.605,5.837-2.084c0.668-0.167,1.332-0.586,2.084-0.834c1.824-0.603,4.007-1.063,6.254-1.668
		c2.657-0.716,5.491-1.81,8.338-2.503c2.872-0.697,5.907-1.19,8.756-2.084c1.416-0.443,2.825-0.867,4.169-1.25
		c2.176-0.62,3.691-1.16,5.42-2.085C67.109,22.146,67.665,22.146,68.221,22.146z"/>
	<path fill-rule="evenodd" clip-rule="evenodd" d="M130.34,23.397c0.674-0.117,0.718,0.395,1.251,0.417
		c-0.063,1.385-0.83,2.354-1.251,3.751c-0.593,1.969-0.979,4.02-1.668,5.837c-0.246,0.651-0.645,1.188-0.834,1.668
		c-0.457,1.163-0.248,2.967-1.667,3.337c0.196-2.23,0.953-4.369,1.667-6.255C128.644,30.026,128.95,26.219,130.34,23.397z"/>
	<path fill-rule="evenodd" clip-rule="evenodd" d="M145.348,24.231c0.674-0.117,0.719,0.395,1.252,0.416
		c2.685,4.82,3.837,11.173,5.002,17.511c-1.742-0.899-1.165-3.005-1.666-4.585c-0.139-0.434-0.729-0.569-0.834-0.834
		c-0.441-1.113-0.447-2.533-0.834-3.753c-0.467-1.47-1.229-2.999-1.251-4.587C146.401,27.176,144.514,25.583,145.348,24.231z"/>
	<path fill-rule="evenodd" clip-rule="evenodd" d="M234.151,25.899c-1.291,1.878-4.455-0.552-6.67-0.418
		c-0.012-0.404-0.51-0.323-0.834-0.416C227.742,23.397,231.81,25.635,234.151,25.899z"/>
	<path fill-rule="evenodd" clip-rule="evenodd" d="M215.39,28.817c-0.1,0.733-0.717,0.95-1.667,0.834
		c0.536,1.965,3.982,1.021,4.169,3.335c-3.742-0.01-5.005-2.499-7.922-3.335c-0.221-0.336-0.435-0.677-0.417-1.252
		C211.005,27.58,214.394,27.852,215.39,28.817z"/>
	<path fill-rule="evenodd" clip-rule="evenodd" d="M116.166,28.399c-2.055,3.922-3.978,7.975-7.087,10.84
		c-0.508,2.576-2.495,4.341-3.753,6.671c-0.257,0.477-0.173,0.83-0.417,1.252c-0.213,0.368-0.665,0.554-0.834,0.833
		c-1.648,2.737-3.014,5.755-5.003,8.338c-0.638-2.632,1.627-5.016,2.919-7.087c0.691-1.108,1.461-2.239,2.084-3.336
		c1.537-2.704,3.266-5.451,5.004-8.337c0.618-1.029,1.301-2.035,2.084-3.337c1.056-1.754,2.529-3.673,3.752-5.837
		C115.332,28.399,115.749,28.399,116.166,28.399z"/>
	<path fill-rule="evenodd" clip-rule="evenodd" d="M253.329,29.233c-0.512,2.609-5.103,0.676-6.253,0
		c0.021-1.628,1.901-0.538,2.919-0.416C251.198,28.961,252.303,29.411,253.329,29.233z"/>
	<path fill-rule="evenodd" clip-rule="evenodd" d="M8.602,29.651c1.707,0.1,1.874,1.739,2.085,3.335
		C9.143,32.723,8.362,31.698,8.602,29.651z"/>
	<path fill-rule="evenodd" clip-rule="evenodd" d="M74.891,30.068c0.417,0,0.834,0,1.251,0c-0.06,1.198-1.459,1.305-2.085,1.668
		c-2.536,1.468-5.693,3.315-8.755,4.585c-0.149,0.063-0.928,0.245-1.251,0.418c-0.18,0.095-0.267,0.766-0.417,0.834
		c-3.499,1.577-7.756,3.963-11.674,5.836c-0.793,0.38-1.607,0.874-2.501,1.251c-0.855,0.36-2.005,0.456-2.918,0.834
		c-3.441,1.425-6.773,4.016-10.84,4.169c0.375-1.579,2.945-1.825,4.586-2.501c2.572-1.063,4.891-2.245,7.504-3.336
		c2.402-1.003,4.641-1.999,7.088-3.335c3.013-1.646,5.978-3.419,9.172-5.003c0.65-0.323,1.149-0.123,1.668-0.418
		c0.631-0.356,1.175-0.723,2.084-1.25c1.653-0.958,5.149-2.041,6.671-3.752C74.614,30.068,74.751,30.068,74.891,30.068z"/>
	<path fill-rule="evenodd" clip-rule="evenodd" d="M268.754,32.57c-0.037,1.137,0.695,0.839,0,1.666
		C267.15,34.565,267.15,32.241,268.754,32.57z"/>
	<path fill-rule="evenodd" clip-rule="evenodd" d="M173.7,34.654c0.334,0.221,0.676,0.435,1.25,0.416
		c1.451,2.58,4.654,3.406,5.42,6.671c-0.486-0.089-2.17-0.517-2.502-1.25c-0.359-0.799-0.509-1.027-1.25-1.668
		c-0.309-0.268-0.984-0.526-1.251-0.834c-0.286-0.331-0.132-0.87-0.417-1.25C174.659,36.35,172.775,35.684,173.7,34.654z"/>
	<path fill-rule="evenodd" clip-rule="evenodd" d="M74.891,37.155c-2.934,4.283-7.546,6.911-11.673,10.007
		c-4.038,3.026-8.354,6.371-13.342,8.337c0.021-1.624,1.944-1.887,2.918-2.5c5.072-3.204,10.489-6.959,15.427-10.841
		c1.943-1.528,3.96-2.989,5.419-5.003C74.057,37.155,74.474,37.155,74.891,37.155z"/>
	<path fill-rule="evenodd" clip-rule="evenodd" d="M190.792,37.155c0.417,0,0.834,0,1.25,0c3.547,2.847,7.377,5.313,10.841,8.339
		c2.477,2.163,4.799,4.468,7.504,6.671c0.472,0.383,1.219,0.426,1.668,0.834c0.251,0.227,0.117,0.594,0.416,0.832
		c1.156,0.92,3.028,2.56,4.587,3.753c3.524,2.698,7.774,6.249,11.674,9.173c1.749,1.312,4.099,2.079,4.585,4.585
		c-1.563,0.209-3.397-2.037-4.563-2.938c-2.515-1.946-5.095-3.781-7.526-5.816c-0.511-0.428-1.105-0.392-1.668-0.833
		c-0.885-0.698-1.643-1.812-2.501-2.502c-1.886-1.516-4.406-2.582-5.42-5.003c-1.688-0.671-2.893-1.622-4.586-2.918
		c-0.136-0.104-0.294-0.778-0.417-0.834c-1.615-0.729-3.076-2.428-4.586-3.753c-0.373-0.327-0.854-0.502-1.251-0.834
		c-1.405-1.175-2.442-2.096-4.169-3.335C194.952,41.371,191.945,39.548,190.792,37.155z"/>
	<path fill-rule="evenodd" clip-rule="evenodd" d="M82.395,37.989c0.856,0.002-2.906,3.487-2.982,3.547
		c-1.701,1.349-3.441,2.645-5.164,3.965c-2.492,1.91-4.854,4.218-7.537,5.726c-1.218,0.685-2.026,1.677-2.97,2.458
		c-1.09,0.904-2.544,1.433-3.675,2.337c-2.128,1.701-4.16,3.811-6.602,5.524c-1.164,0.817-2.052,1.745-3.146,2.514
		c-1.318,0.925-2.84,1.499-4.166,2.413c-1.225,0.844-2.179,1.886-3.78,1.95c-0.276-1.644,1.627-1.421,2.501-2.084
		c2.124-1.61,4.12-2.977,6.392-4.396c2.534-1.584,4.641-3.96,7.046-5.761c2.736-2.05,5.478-4.092,8.242-6.103
		c0.811-0.591,1.656-1.045,2.502-1.668c3.529-2.606,7.296-6.771,11.256-9.589c0.387-0.275,0.697-0.719,1.25-0.834
		C81.84,37.989,82.117,37.989,82.395,37.989z"/>
	<path fill-rule="evenodd" clip-rule="evenodd" d="M16.94,40.491c-0.184,1.206-0.878,1.899-2.084,2.084
		C13.963,41.278,15.716,39.526,16.94,40.491z"/>
	<path fill-rule="evenodd" clip-rule="evenodd" d="M220.811,40.073c0.416,0,0.833,0,1.25,0c2.069,1.722,4.654,2.52,7.088,3.753
		c3.637,1.842,7.045,4.084,10.739,5.825c2.1,0.989,4.349,2.176,6.354,3.348c0.87,0.506,3.146,0.417,2.502,2.5
		c-2.024,0.356-2.017-1.318-3.336-1.668c-5.038-1.937-9.671-5.002-14.592-7.503c-1.794-0.912-3.515-1.873-5.42-2.919
		c-0.903-0.496-2.181-0.748-2.918-1.251C221.842,41.726,221.163,40.898,220.811,40.073z"/>
	<path fill-rule="evenodd" clip-rule="evenodd" d="M265.836,41.741c0.042,1.293-0.509,1.992-0.834,2.919
		c-0.335-0.221-0.677-0.436-1.25-0.417C263.706,42.667,264.568,42,265.836,41.741z"/>
	<path fill-rule="evenodd" clip-rule="evenodd" d="M180.37,42.158c1.811-0.142,2.188,1.148,2.502,2.502
		C181.524,44.339,180.69,43.505,180.37,42.158z"/>
	<path fill-rule="evenodd" clip-rule="evenodd" d="M247.076,42.992c0.278,0,0.556,0,0.834,0c0.878,0.329,2.087,0.073,2.918,0.417
		c0.197,0.082,0.26,0.763,0.417,0.834c0.449,0.203,1.852,0.02,1.668,1.251C250.357,45.269,247.717,45.129,247.076,42.992z"/>
	<path fill-rule="evenodd" clip-rule="evenodd" d="M242.073,45.076c0.278,0,0.556,0,0.834,0c1.845,0.241,3.238,0.931,4.169,2.086
		c1.3,0.646,3.378,0.512,3.335,2.501c-1.955,0.224-3.21-1.336-4.586-2.085C244.63,46.928,242.524,46.702,242.073,45.076z"/>
	<path fill-rule="evenodd" clip-rule="evenodd" d="M141.597,46.744c1.114,0.025,1.173,1.922,1.251,2.502
		c0.418,3.101-0.389,6.607-0.418,10.006c-0.109,12.827,1.752,27.679,0.418,40.44c-1.543-0.282-0.805-2.436-0.834-3.336
		c-0.463-13.729-0.568-25.701-0.834-40.023c-0.035-1.907-0.379-3.619-0.417-5.42c-0.007-0.354,0.497-0.646,0.417-1.25
		C141.142,49.377,139.909,47.167,141.597,46.744z"/>
	<path fill-rule="evenodd" clip-rule="evenodd" d="M215.39,50.08c0.417,0,0.834,0,1.251,0c-0.048,0,2.428,2.493,2.725,2.703
		c1.19,0.845,2.26,1.704,3.299,2.736c0.909,0.901,1.5,0.985,2.626,1.588c1.105,0.591,2.153,1.565,3.153,2.324
		c1.436,1.085,2.957,2.124,4.316,3.115c0.742,0.543,1.756,0.666,2.494,1.256c0.237,0.189,1.538,2.147,1.398,2.12
		c-2.092-0.418-4.194-1.762-5.838-3.336c-2.489-2.387-5.545-4.019-8.453-5.822C220.598,55.67,214.99,52.665,215.39,50.08z"/>
	<path fill-rule="evenodd" clip-rule="evenodd" d="M192.561,52.229c1.514,0.33,2.806,1.999,3.876,3.022
		c1.724,1.648,3.481,3.256,5.25,4.855c5.556,5.021,10.064,10.8,15.358,16.025c2.341,2.312,7.318,5.188,7.1,8.968
		c-1.742,0.029-2.639-1.758-3.752-2.918c-6.74-7.026-12.969-14.507-19.602-21.632C198.266,57.838,193.571,56.092,192.561,52.229z"/>
	<path fill-rule="evenodd" clip-rule="evenodd" d="M262.084,52.999c0,0.555,0,1.111,0,1.666c-0.557,0-1.111,0-1.668,0
		C260.467,53.604,261.024,53.049,262.084,52.999z"/>
	<path fill-rule="evenodd" clip-rule="evenodd" d="M91.151,53.831c0.674-0.117,0.717,0.395,1.251,0.418
		c0.541,1.318-0.74,0.489-1.251,1.25c-0.536,0.8-0.321,2.378-0.834,3.336c-0.355,0.665-1.182,1.266-1.668,1.667
		c-1.436,5.097-4.694,8.369-7.088,12.508c-1.938,0.187-0.129-0.916,0-1.251c0.513-1.317,0.687-2.934,2.086-3.336
		C85.508,62.919,89.206,59.251,91.151,53.831z"/>
	<path fill-rule="evenodd" clip-rule="evenodd" d="M44.457,56.333c0.89-0.194,0.794,0.597,0.834,1.251
		c0.138,1.249-1.252,1.046-2.085,1.668c-1.029,0.768-1.954,2.36-4.586,2.084C40.554,59.658,43.381,58.871,44.457,56.333z"/>
	<path fill-rule="evenodd" clip-rule="evenodd" d="M239.155,57.583c1.314-1.015,4.041,0.112,4.169,1.668
		C241.155,59.475,240.093,58.59,239.155,57.583z"/>
	<path fill-rule="evenodd" clip-rule="evenodd" d="M111.997,57.583c0.484-0.067,0.741,0.093,0.834,0.417
		c-1.339,3.615-3.799,6.602-5.42,10.006c-1.157,2.431-1.596,4.537-3.336,6.671c-0.629,0.771-1.259,2.149-2.084,3.335
		c-0.104,0.148-0.774,0.285-0.834,0.417c-0.096,0.213,0.127,0.642,0,0.834c-0.104,0.154-0.773,0.282-0.834,0.417
		c-0.78,1.731-2.338,4.781-3.752,6.671c-0.996,1.33-2.275,4.176-3.336,6.253c-0.353,0.692-0.769,1.676-1.25,2.502
		c-0.395,0.676-0.665,2.117-2.085,1.668c-0.026-1.005,0.779-1.7,1.251-2.502c0.745-1.269,1.392-2.299,2.084-3.753
		c0.27-0.563,0.786-1.665,1.251-2.5c0.915-1.643,2.17-3.821,3.336-5.837c0.476-0.824,0.784-1.794,1.25-2.502
		c1.288-1.96,3.144-4.316,4.587-6.671c1.832-2.991,3.17-6.626,5.002-10.006c0.688-1.268,1.266-2.017,2.085-3.336
		C111.127,59.054,111.617,58.578,111.997,57.583z"/>
	<path fill-rule="evenodd" clip-rule="evenodd" d="M260.417,58.834c0.417,0,0.834,0,1.251,0c0,0.694,0,1.39,0,2.085
		C260.366,61.11,260.334,60.028,260.417,58.834z"/>
	<path fill-rule="evenodd" clip-rule="evenodd" d="M234.151,60.085c0.012-0.406,0.512-0.323,0.834-0.418
		c1.834,0.252,2.662,1.508,4.17,2.086c0.957,0.986,3.547,0.344,3.335,2.501c-2.261,0.71-3.437-1.357-4.586-2.085
		C236.644,61.373,235.084,61.527,234.151,60.085z"/>
	<path fill-rule="evenodd" clip-rule="evenodd" d="M185.399,61.757c0.002-0.041,0.004-0.082,0.007-0.122
		c0.046-0.777,2.04,2.021,2.114,2.167c0.748,1.48,1.597,2.842,2.586,4.18c1.804,2.44,3.86,4.692,5.545,7.221
		c4.631,6.952,9.735,13.635,14.74,20.321c1.728,0.521,2.429,1.947,2.082,3.699c-2.104,0.522-3.808-3.659-4.825-4.987
		c-1.635-2.135-3.005-4.287-4.508-6.388c-2.669-3.73-6.071-6.94-8.284-10.992c-0.63-1.151-1.09-1.894-1.873-2.719
		c-0.672-0.708-1.295-1.317-1.849-2.148c-1.138-1.702-1.994-3.593-3.216-5.238C186.523,64.871,185.293,64.183,185.399,61.757z"/>
	<path fill-rule="evenodd" clip-rule="evenodd" d="M155.772,62.169c0.371,0.185,0.746,0.365,0.834,0.834
		c1.041,5.502,1.393,10.903,3.031,16.362c1.959,6.524,4.451,12.886,6.141,19.492c0.406,1.592,0.729,2.685,1.246,4.155
		c0.484,1.375,2.416,3.298,1.068,4.695c-1.789-1.085-2.352-4.097-2.821-6.007c-1.36-5.534-3.271-11.133-4.913-16.602
		c-2.178-7.251-4.32-13.867-5.42-21.263C155.155,63.22,155.555,62.788,155.772,62.169z"/>
	<path fill-rule="evenodd" clip-rule="evenodd" d="M94.522,62.754c0.023-0.007,0.046-0.011,0.068-0.011
		c1.906-0.063-3.18,6.854-3.439,7.347c-1.994,3.777-5.065,7.272-7.504,11.258c-1.39,2.269-3.054,4.318-4.587,6.671
		c-1.368,2.098-2.706,4.645-4.169,7.087c-0.813,1.355-1.295,3.667-3.334,3.752c-0.734,0.031,1.69-3.286,1.809-3.482
		c0.861-1.43,1.426-3.031,2.344-4.431c2.134-3.251,4.307-6.467,6.447-9.716c2.024-3.073,3.903-6.248,6.158-9.163
		c1.523-1.972,2.488-4.181,4.01-6.219C92.707,65.335,93.857,62.935,94.522,62.754z"/>
	<path fill-rule="evenodd" clip-rule="evenodd" d="M255.831,68.006c-0.555,0-1.111,0-1.668,0
		C253.834,66.401,256.16,66.401,255.831,68.006z"/>
	<path fill-rule="evenodd" clip-rule="evenodd" d="M25.279,68.006c0,0.557,0,1.111,0,1.668c-0.556,0-1.112,0-1.668,0
		C23.417,68.37,23.973,67.813,25.279,68.006z"/>
	<path fill-rule="evenodd" clip-rule="evenodd" d="M170.364,69.256c0.336,0.222,0.678,0.436,1.25,0.418
		c0.287,3.188,2.451,4.499,2.502,7.921c0.801,1.146,1.594,2.298,1.668,4.169c-2.594-2.965-3.811-7.308-5.42-11.256
		C169.864,69.961,170.202,69.853,170.364,69.256z"/>
	<path fill-rule="evenodd" clip-rule="evenodd" d="M24.028,70.508c0.695,0,1.39,0,2.084,0
		C26.262,72.293,23.764,72.723,24.028,70.508z"/>
	<path fill-rule="evenodd" clip-rule="evenodd" d="M249.161,70.924c0.176,0.871-0.286,1.104-0.417,1.668
		c-0.39-0.445-1.538-0.129-1.251-1.251C247.864,71.018,248.434,70.893,249.161,70.924z"/>
	<path fill-rule="evenodd" clip-rule="evenodd" d="M133.675,73.843c0.417,0,0.834,0,1.251,0c-2.407,8.181-3.529,17.005-4.586,27.1
		c-0.193,1.854-0.69,3.617-0.834,5.419c0.006-0.066,0.042,1.991,0,2.502c-0.154,1.891-0.17,3.895-0.417,5.837
		c-0.092,0.723,0.299,1.939-0.834,2.084c-2.125-0.312-0.584-2.817-0.417-4.169c1.482-11.952,2.1-27.617,5.837-37.522
		C133.675,74.677,133.675,74.259,133.675,73.843z"/>
	<path fill-rule="evenodd" clip-rule="evenodd" d="M249.161,75.511c1.022,0.255,2.031,2.666,0,2.501
		C248.612,76.895,248.892,76.426,249.161,75.511z"/>
	<path fill-rule="evenodd" clip-rule="evenodd" d="M147.017,79.263c0.37,0.185,0.745,0.366,0.834,0.833
		c0.251,7.098,1.099,16.67,1.667,24.182c0.07,0.933,0.439,2.718,0.418,3.752c-0.021,1.002,0.304,2.849-1.252,2.918
		c-0.541-10.298-1.608-20.069-2.501-30.018C145.879,79.793,147.011,80.091,147.017,79.263z"/>
	<path fill-rule="evenodd" clip-rule="evenodd" d="M244.991,80.93c-0.051,1.063-0.606,1.617-1.667,1.668
		C243.13,81.293,243.686,80.737,244.991,80.93z"/>
	<path fill-rule="evenodd" clip-rule="evenodd" d="M71.139,82.598c1.637,0.018,0.229,1.613,0,2.085
		c-0.443,0.914-1.266,1.456-1.668,2.084c-0.452,0.707-0.766,1.74-1.25,2.502c-0.176,0.275-0.68,0.583-0.834,0.834
		c-0.438,0.704-0.727,1.794-2.085,2.085c-1.372,0.015,0.144-1.692,0.417-2.085c0.248-0.356,1.009-0.487,1.25-0.834
		c0.281-0.401,0.141-0.888,0.418-1.25C68.768,86.203,70.354,84.84,71.139,82.598z"/>
	<path fill-rule="evenodd" clip-rule="evenodd" d="M214.276,82.709c0.074-0.099,0.198-0.178,0.38-0.234
		c0.832-0.263,3.235,2.318,3.78,2.98c1.025,1.245,3.92,2.88,3.625,4.647c-0.134,0.804-4.21-3.302-4.522-3.603
		C217.071,86.053,213.579,83.612,214.276,82.709z"/>
	<path fill-rule="evenodd" clip-rule="evenodd" d="M32.784,85.1c-1.035,0.063-1.73-0.216-2.085-0.834
		C30.876,82.322,33.167,83.188,32.784,85.1z"/>
	<path fill-rule="evenodd" clip-rule="evenodd" d="M207.142,83.202c0.058-0.033,0.124-0.064,0.201-0.096
		c1.352-0.526,2.272,2.164,3.016,2.798c0.644,0.549,0.978,0.601,1.534,1.202c0.76,0.822,1.559,2.822,2.246,3.413
		c0.897,0.772,2.836,0.501,2.502,2.503c-1.645,0.619-2.463-1.219-3.336-2.085c-1.732-1.72-2.835-3.399-4.584-5.419
		C208.293,85.024,206.045,83.836,207.142,83.202z"/>
	<path fill-rule="evenodd" clip-rule="evenodd" d="M237.07,86.767c0,0.557,0,1.111,0,1.668c-0.797-0.176-1.795-0.151-1.667-1.25
		C235.773,86.86,236.343,86.737,237.07,86.767z"/>
	<path fill-rule="evenodd" clip-rule="evenodd" d="M114.915,89.269c-1.006,2.975-2.632,5.927-3.752,9.172
		c-1.133,3.282-2.36,6.518-3.336,9.589c-0.528,1.668,0.595,4.196-2.084,4.586c-0.621-0.869-0.219-2.029,0-2.918
		c0.221-0.894,0.999-1.729,1.251-2.502c0.633-1.94,1.012-3.902,1.667-5.837c0.62-1.824,1.391-3.589,2.085-5.419
		c0.329-0.87,0.465-2.072,0.834-2.918c0.538-1.236,1.38-2.173,1.667-3.753C113.803,89.269,114.359,89.269,114.915,89.269z"/>
	<path fill-rule="evenodd" clip-rule="evenodd" d="M169.53,89.685c0.485-0.067,0.742,0.094,0.834,0.418
		c-0.193,1.463,0.475,2.786,0.834,4.169c0.885,3.396,1.883,7.04,3.287,10.263c0.316,0.725,0.598,1.151,0.855,1.877
		c0.427,1.2,0.959,2.472,1.277,3.702c0.318,1.231,1.584,2.957,0,3.753c-1.303-0.158-1.012-1.698-1.251-2.501
		c-0.382-1.285-0.687-2.712-1.251-4.17c-0.912-2.358-1.968-6.118-2.918-9.172C170.367,95.352,169.376,93.5,169.53,89.685z"/>
	<path fill-rule="evenodd" clip-rule="evenodd" d="M41.539,91.353c1.032,0.496,0.751,1.808,0,2.503
		C39.85,94.066,40.833,91.351,41.539,91.353z"/>
	<path fill-rule="evenodd" clip-rule="evenodd" d="M232.484,91.353c1.646-0.533,1.009,1.215,2.085,1.251
		c-0.01,1.144-1.967,0.99-2.502,0.418C232.014,92.274,232.577,92.141,232.484,91.353z"/>
	<path fill-rule="evenodd" clip-rule="evenodd" d="M229.982,94.688c0.066,1.369-1.702,2.001-2.501,1.252
		C227.415,94.571,229.184,93.94,229.982,94.688z"/>
	<path fill-rule="evenodd" clip-rule="evenodd" d="M188.708,98.024c3.804,1.755,3.587,7.53,6.253,10.424
		c-2.137,1.014-2.522-2.116-3.335-3.753c-0.943-1.898-1.665-3.932-2.918-5.003C188.225,99.075,188.225,98.64,188.708,98.024z"/>
	<path fill-rule="evenodd" clip-rule="evenodd" d="M91.568,98.441c-1.165,1.894-0.479,5.636-3.335,5.837
		c-0.187-1.403,1.068-2.648,1.667-3.753C90.294,99.798,89.62,97.739,91.568,98.441z"/>
	<path fill-rule="evenodd" clip-rule="evenodd" d="M195.378,99.275c1.286,0.243,1.55,1.507,2.085,2.502
		c0.661,1.178,2.678,2.642,1.668,4.169c-1.285-0.457-1.886-1.787-2.502-2.919C196.094,102.043,195.348,100.641,195.378,99.275z"/>
	<path fill-rule="evenodd" clip-rule="evenodd" d="M54.463,102.611c-0.695,0-1.391,0-2.086,0c0-0.418,0-0.834,0-1.252
		C53.182,100.547,54.93,100.923,54.463,102.611z"/>
	<path fill-rule="evenodd" clip-rule="evenodd" d="M101.991,101.359c0.405,0.012,0.323,0.511,0.416,0.834
		c-0.723,1.793-0.582,3.554-1.667,5.421c-0.525,0.903-0.802,2.231-2.501,1.666c0.359-1.446,1.299-2.313,2.084-3.334
		C100.371,103.908,101.256,102.709,101.991,101.359z"/>
	<path fill-rule="evenodd" clip-rule="evenodd" d="M179.954,103.861c1.529,0.972,1.639,3.364,2.084,5.419
		c0.318,1.211,1.977,1.083,1.667,2.919c-0.692,0.014-1.53,0.124-2.084-0.417c-0.188-0.183,0.116-1.004,0-1.25
		c-0.095-0.198-0.755-0.254-0.834-0.418C180.038,108.571,180.083,106.381,179.954,103.861z"/>
	<path fill-rule="evenodd" clip-rule="evenodd" d="M61.55,105.946c1.624-0.058,1.665,2.683-0.417,2.084
		C61,107.063,61.2,106.429,61.55,105.946z"/>
	<path fill-rule="evenodd" clip-rule="evenodd" d="M66.553,105.946c0.556,0,1.111,0,1.668,0c0,0.556,0,1.111,0,1.668
		C66.786,107.937,66.229,107.38,66.553,105.946z"/>
	<path fill-rule="evenodd" clip-rule="evenodd" d="M219.977,107.196c-0.019,1.254-2.96,1.211-2.502-0.416
		C218.327,105.889,219.125,106.897,219.977,107.196z"/>
	<path fill-rule="evenodd" clip-rule="evenodd" d="M134.926,107.196c0.484-0.067,0.742,0.093,0.834,0.418
		c-0.703,2.215,0.013,5.85-0.834,7.921C133.22,114.081,134.124,108.834,134.926,107.196z"/>
	<path fill-rule="evenodd" clip-rule="evenodd" d="M185.374,107.196c1.34,0.605,1.093,2.799,1.667,4.17
		C184.409,112.157,184.666,108.42,185.374,107.196z"/>
	<path fill-rule="evenodd" clip-rule="evenodd" d="M118.667,109.28c0.943,1.381,0.377,4.811-0.417,5.837
		c-1.465-0.068-0.814-2.884-0.417-4.169C118.104,110.072,118.379,109.706,118.667,109.28z"/>
	<path fill-rule="evenodd" clip-rule="evenodd" d="M142.014,110.114c0.371,0.187,0.746,0.367,0.834,0.834
		c-0.547,2.373,1.257,7.094-1.251,7.505C141.823,115.76,141.114,112.132,142.014,110.114z"/>
	<path fill-rule="evenodd" clip-rule="evenodd" d="M212.889,110.532c0.117,1.09-0.152,1.793-1.251,1.667
		C211.52,111.109,211.791,110.406,212.889,110.532z"/>
	<path fill-rule="evenodd" clip-rule="evenodd" d="M168.696,111.366c0.91,0.758,1.82,1.516,1.668,3.335
		C168.612,114.844,167.838,112.528,168.696,111.366z"/>
	<path fill-rule="evenodd" clip-rule="evenodd" d="M68.637,113.033c0.776,0.058,1.394,0.274,1.668,0.834
		c0.127,1.1-0.87,1.075-1.668,1.25C68.102,114.569,68.102,113.58,68.637,113.033z"/>
	<path fill-rule="evenodd" clip-rule="evenodd" d="M211.638,113.45c0.967-0.133,1.601,0.066,2.085,0.417
		c-0.362,0.609-0.624,1.321-1.668,1.25C211.731,114.747,211.607,114.176,211.638,113.45z"/>
	<path fill-rule="evenodd" clip-rule="evenodd" d="M207.052,114.701c0.556,0,1.112,0,1.668,0
		C209.207,116.148,206.391,116.638,207.052,114.701z"/>
	<path fill-rule="evenodd" clip-rule="evenodd" d="M87.399,118.453c-1.411-0.117-2.557-0.501-2.502-2.084
		C85.78,115.694,87.632,116.72,87.399,118.453z"/>
	<path fill-rule="evenodd" clip-rule="evenodd" d="M199.965,116.369c-0.64,0.657-3.085,2.104-2.919,0
		C198.338,116.51,199.038,115.403,199.965,116.369z"/>
	<path fill-rule="evenodd" clip-rule="evenodd" d="M75.308,117.619c0.176,2.14-3.314,1.308-2.919-0.416
		C73.351,116.235,73.734,117.974,75.308,117.619z"/>
	<path fill-rule="evenodd" clip-rule="evenodd" d="M83.647,118.87c-0.251,0.861-0.646,1.578-2.086,1.251c0-0.417,0-0.834,0-1.251
		C82.598,118.825,82.852,118.088,83.647,118.87z"/>
	<path fill-rule="evenodd" clip-rule="evenodd" d="M92.818,122.622c0.609,0.364,1.614,0.331,1.251,1.668c-0.556,0-1.111,0-1.667,0
		C92.225,123.418,92.687,123.186,92.818,122.622z"/>
	<path fill-rule="evenodd" clip-rule="evenodd" d="M190.792,124.29c0.556,0,1.112,0,1.668,0
		C192.947,125.736,190.131,126.227,190.792,124.29z"/>
	<path fill-rule="evenodd" clip-rule="evenodd" d="M125.754,127.625c1.259-0.644,1.097,2.158,0.417,2.084
		C124.668,130.109,125.432,127.91,125.754,127.625z"/>
	<path fill-rule="evenodd" clip-rule="evenodd" d="M171.198,127.625c0.816-0.201,1.344,1.911,0.416,2.084
		C170.112,130.109,170.875,127.91,171.198,127.625z"/>
	<path fill-rule="evenodd" clip-rule="evenodd" d="M104.492,128.042c1.241,0.036,1.115,2.486-0.417,2.085
		C103.17,129.259,104.125,128.78,104.492,128.042z"/>
	<path fill-rule="evenodd" clip-rule="evenodd" d="M162.86,128.458c0.414,1.898-2.127,2.055-2.085,0.418
		C161.78,129.046,161.682,128.115,162.86,128.458z"/>
	<path fill-rule="evenodd" clip-rule="evenodd" d="M114.915,129.292c0.145-0.503,1.109-0.338,1.251,0
		C116.543,130.194,114.638,130.258,114.915,129.292z"/>
	<path fill-rule="evenodd" clip-rule="evenodd" d="M133.675,133.044C129.222,133.458,134.176,128.502,133.675,133.044
		L133.675,133.044z"/>
	<path fill-rule="evenodd" clip-rule="evenodd" d="M144.516,132.21c1.939-0.373,2.137,2.21,0,1.668
		C144.516,133.323,144.516,132.767,144.516,132.21z"/>
	<path fill-rule="evenodd" clip-rule="evenodd" d="M153.27,132.21c1.006-0.17,0.906,0.762,2.086,0.417
		c0.059,1.312-1.07,1.432-2.086,1.668C152.735,133.748,152.735,132.758,153.27,132.21z"/>
	<path fill-rule="evenodd" clip-rule="evenodd" d="M99.489-41.224c1.261,1.068,2.605,2.354,3.752,3.752
		c0.625,0.762,1.006,1.321,1.668,2.085c0.43,0.495,1.021,1.286,1.668,2.084c1.211,1.495,1.935,3.038,3.336,4.587
		c0.313,0.345,0.548,0.402,0.833,0.832c0.399,0.604,0.982,1.289,1.662,2.492c0.176,0.311,0.583,0.365,0.716,0.749
		c-0.013-0.036-2.251-1.618-2.463-1.864c-0.912-1.059-1.604-2.285-2.57-3.301C105.261-32.78,100.54-37.148,99.489-41.224z"/>
	<path fill-rule="evenodd" clip-rule="evenodd" d="M171.172-46.228c0.41,0.018,0.213,0.586,0,0.834
		c-0.506,0.592-1.055,1.463-1.668,2.502c-0.229,0.386-0.584,1.303-0.834,1.668c-0.728,1.059-1.561,2.523-2.919,2.501
		C167.118-41.666,169.057-44.035,171.172-46.228z"/>
	<path fill-rule="evenodd" clip-rule="evenodd" d="M87.815-25.798c0.08-0.474,0.419-0.231,0.418,0
		c1.451,0.771,2.814,1.631,4.169,2.501C90.739-22.343,89.03-24.917,87.815-25.798z"/>
	<path fill-rule="evenodd" clip-rule="evenodd" d="M22.36,21.312c0.836-1.665,3.789-1.215,5.42-2.084
		C26.448,20.234,24.166,22.125,22.36,21.312z"/>
	<path fill-rule="evenodd" clip-rule="evenodd" d="M130.34,50.913c1.536,0.228,0.677,2.418,0.417,3.752
		c-0.202,1.041-1.089,2.408-1.251,3.336c-0.307,1.762-0.26,2.697-0.834,4.169c-0.264,0.679,0.223,1.425-0.834,1.251
		C128.981,60.169,128.622,54.622,130.34,50.913z"/>
	<path fill-rule="evenodd" clip-rule="evenodd" d="M38.203,55.499c0.878,1.313-1.941,2.492-3.335,2.919
		C35.481,56.947,37.604,56.985,38.203,55.499z"/>
	<path fill-rule="evenodd" clip-rule="evenodd" d="M64.885,77.178c0.545,0.725-0.456,1.477-0.834,2.085
		c-0.867,1.398-1.729,2.216-2.918,3.751c-0.453,0.588-0.79,1.577-1.251,2.086c-0.695,0.767-1.969,1.315-2.501,2.085
		c-1.371,0.303-0.639-0.829,0-0.834c1.09-1.694,2.499-3.053,3.752-4.587C62.388,80.227,63.489,78.616,64.885,77.178z"/>
	<path fill-rule="evenodd" clip-rule="evenodd" d="M257.082-34.971c1.138,1.245,1.787-1.524,3.752-0.834
		c-0.018,2.068-2.032,2.137-3.335,2.919c1.239,7.115,2.656,14.613,4.169,22.097c0.823,4.067,1.161,8.206,1.812,12.301
		c0.716,4.513,1.682,9.025,1.568,13.619c-0.223,9.09-2.928,17.948-5.471,26.597c-2.374,8.071-5.322,16.079-9.707,23.297
		c-2.338,3.853-5.252,7.487-8.631,10.487c-1.546,1.372-3.585,3.025-5.836,4.169c-0.697,2.227-1.735,3.989-2.919,5.837
		c-3.518,5.491-7.173,10.649-12.304,14.759c-4.857,3.89-10.302,6.887-15.885,9.593c-8.217,3.985-16.801,9.389-25.691,11.61
		c-4.356,1.063-11.287,2.294-15.744,1.977c-1.758-0.125-2.637-0.198-4.586,0.416c-12.654,3.998-26.07,2.698-38.626-0.916
		c-7.025-2.023-14.155-3.641-21.021-6.195c-2.145-0.798-4.061-2.07-6.097-3.094c-1.617-0.813-3.594-1.031-5.131-1.885
		c-0.485-0.27-0.836-0.958-1.251-1.25c-2.362-1.663-4.984-4.189-7.505-6.254c-0.976-0.799-4.438-0.677-5.715-1.025
		c-11.816-3.234-22.78-11.842-30.52-21.116c-2.22-2.66-4.222-5.599-5.895-8.636c-4.045-7.342-6.584-15.426-9.831-23.128
		c-2.798-6.637-6.468-12.709-8.483-19.683c-3.659-12.661-4.462-26.465-3.103-39.539c0.399-3.838,1.017-7.654,1.891-11.413
		c1.375-5.909,3.578-12.028,7.438-16.793c0.641-0.791,2.411-9.734,2.86-11.414c2.345-8.769,6.922-17.675,12.955-24.466
		c8.275-9.318,18.834-16.121,29.229-22.813c2.78-1.79,5.511-3.722,8.414-5.307c2.247-1.228,5.531-1.758,6.595-4.374
		c-0.232-0.851-1.254-0.817-0.417-1.668c1.113-0.002,0.906,1.317,2.085,1.25c2.077-2.136,8.896-2.293,8.802-6.224
		c1.049-0.118,1.262,1.022,2.357,1.061c1.086,0.037,2.927-1.099,4.06-1.351c12.938-2.885,26.935-6.544,40.229-3.926
		c3.637,0.716,7.154,2.025,10.84,2.519c6.518,0.871,13.114-0.395,19.666,0.251c6.881,0.679,13.68,2.091,20.244,4.267
		c7.961,2.639,15.668,6.429,22.264,11.646c3.275,2.591,6.483,5.628,9.14,8.859c7.417,9.022,16.792,16.715,23.088,26.602
		C252.073-53.922,255.646-44.619,257.082-34.971z M147.017-112.517c-3.278-0.819-7.452-1.479-10.007-1.25
		c-2.913,0.261-8.338-0.281-11.673,0c-0.939,0.079-1.896,0.692-2.919,0.834c-4.258,0.586-7.248,0.366-10.839,0.834
		c-6.372,0.827-12.427,2.914-17.094,4.586c-0.714,0.255-0.827,0.639-1.251,0.833c-3.964,1.828-7.069,3.416-10.005,5.837
		c-2.038,1.68-3.272,2.767-3.336,4.586c-0.034,0.968,1.807,4.675,2.916,5.835c2.157,2.259,2.831,5.717,4.263,8.413
		c3.279,6.18,8.096,11.907,11.727,17.962c4.09,6.82,8.183,13.641,12.3,20.444c3.011,4.977,6.212,9.868,9.096,14.917
		c2.468,4.317,4.025,9.177,6.811,13.31c0.918,1.362,1.135,1.868,2.084,2.085c2.976,0.679,3.9-2.455,6.671-2.501
		c0.184-3.95,1.129-7.841,2.084-11.674c4.367-17.516,7.971-35.13,10.84-52.948c0.158-0.984,0.256-1.887,0.418-2.919
		c0.152-0.97,0.658-1.941,0.834-2.918c0.373-2.086,0.354-4.19,0.834-6.253c0.414-1.788,1.285-3.582,1.666-5.421
		c0.195-0.933,0.24-2.046,0.418-2.918c0.596-2.935,1.625-5.83,1.25-8.755C152.465-111.551,149.711-111.842,147.017-112.517z
		 M145.348-7.872c2.535-0.234,5.334-5.024,7.129-6.73c3.045-2.895,6.432-5.404,9.48-8.294c9.07-8.595,18.482-16.816,27.934-24.986
		c4.688-4.053,9.389-8.09,14.063-12.158c2.899-2.523,7.438-5.236,9.769-8.283c0.233-0.306,0.147-0.959,0.416-1.25
		c0.541-0.587,1.524-1.16,2.085-1.668c2.788-2.529,5.61-4.56,6.671-7.505c3.991-11.083-12.699-19.994-20.846-23.347
		c-4.092-1.684-8.085-3.211-12.091-4.587c-2.235-0.768-4.431-1.862-6.671-2.501c-2.655-0.758-5.405-0.944-8.338-1.25
		c-5.561-0.582-11.189-1.143-17.094-0.834c-2.005,7.924-3.937,16.076-5.42,24.181c-1.535,8.392-2.59,16.77-4.585,25.015
		c-0.202,0.835-0.646,1.64-0.834,2.502c-0.241,1.099-0.177,2.168-0.417,3.334c-1.678,8.146-3.266,17.068-5.003,24.599
		c-0.497,2.157-0.812,4.193-1.251,6.253c-0.416,1.956-1.365,3.899-1.668,5.837c-0.354,2.275,0.48,4.601-0.834,6.671
		C139.883-11.255,142.085-7.572,145.348-7.872z M120.751-21.629c-5.776-11.286-12.239-22.259-19.196-32.854
		c-4.32-6.579-8.476-13.267-12.501-20.028c-2.01-3.377-3.996-6.768-5.938-10.183c-2.205-3.876-3.945-10.642-9.476-10.313
		c-0.563,0.034-0.851,0.667-1.249,0.834c-4.683,1.958-8.487,4.107-12.713,7.097c-2.036,1.44-6.523,3.421-7.299,5.782
		c-2.828,1.108-5.841,5.112-8.022,7.273c-5.792,5.737-9.3,13.284-12.407,20.705c-0.558,1.33-1.126,2.791-1.668,4.17
		c-0.599,1.521-1.355,2.788-1.668,4.169c-0.326,1.436-0.488,3.089-0.417,4.586c0.343,7.116,5.744,6.246,12.508,7.921
		c4.447,1.102,8.841,2.385,12.09,3.335c10.053,2.94,19.916,6.286,29.185,9.589c9.791,3.489,19.912,6.69,30.018,9.172
		c1.041,0.256,2.087,0.129,3.335,0.418c1.066,0.247,1.958,1.114,2.919,1.25c2.307,0.327,4.233-0.043,6.254-0.834
		C125.542-14.027,122.651-17.917,120.751-21.629z M224.979-77.079c-0.063,0.045-0.342,0.755-0.417,0.834
		c-1.256,1.329-2.157,2.632-3.335,3.753c-11.21,10.652-23.171,20.452-34.606,30.853c-5.326,4.844-10.681,9.604-16.306,14.117
		c-3.424,2.746-6.24,6.123-9.316,9.231c-2.646,2.671-6.102,4.708-8.563,7.501c-1.34,1.521-1.995,2.822-2.918,4.169
		c-0.164,0.237-0.736,0.266-0.834,0.417c-0.172,0.267,0.09,0.939,0,1.251c-0.484,1.67-0.379,3.5-0.416,5.42
		c-0.004,0.198,23.127-1.036,24.854-1.126c6.351-0.329,12.171-1.152,18.505-0.96c0.88,0.027,1.676-0.344,2.502-0.416
		c14.689-1.304,29.536-0.494,44.192-2.084c1.001-0.108,1.984-0.72,2.918-0.834c2.85-0.348,5.477-0.127,7.505-0.417
		c0.201-0.029,0.85-0.809,1.251-0.834c0.572-0.038,0.765,0.53,1.667,0.417c2.199-0.274,4.448-0.446,6.254-1.668
		c0.713-6.905-0.879-13.672-2.085-20.012c-1.253-6.592-2.58-12.842-4.169-18.761c-0.799-2.978-1.603-5.699-2.918-8.339
		c-2.632-5.282-5.731-10.418-9.569-14.918c-0.919-1.077-10.526-10.737-12.11-8.845C226.444-77.589,225.44-77.405,224.979-77.079z
		 M97.405-12.041c-3.862-1.182-7.799-2.051-11.674-3.336c-3.744-1.241-7.393-2.744-11.257-4.169
		c-3.471-1.279-7.306-2.366-11.256-3.752c-5.646-1.979-11.746-3.922-17.511-5.419c-2.07-0.539-4.095-0.773-6.254-1.252
		c-1.842-0.407-3.833-1.252-5.837-1.667c-1.007-0.21-2.213-0.17-3.335-0.417c-2.674-0.589-3.531-1.276-5.003,0
		c-2.761,4.467-4.863,9.589-6.254,15.426c3.399,1.221,8.294,1.12,11.257,1.668C26.95-13.034,21.458-15,18.608-16.21
		c-0.687,5.702-1.612,11.363-1.251,17.094c0.285,4.505,1.332,8.986,2.085,13.342c0.801,4.634,1.016,9.324,2.502,13.34
		c2.369-0.14,4.971-2.243,7.087-1.25c-0.29,1.471-1.87,0.941-2.919,1.25c-1.27,0.377-2.397,0.867-3.752,1.252
		c0.74,5.098,4.16,7.514,5.004,12.508c6.432-0.805,12.381-4.623,17.51-6.671c1.635-0.653,3.273-1.105,4.586-1.668
		c0.485-0.208,0.855-0.67,1.251-0.834c0.968-0.402,1.951-0.429,2.919-0.834c1.354-0.566,3.118-1.672,4.168-2.085
		c13.09-5.136,26.457-9.532,39.404-15.034c4.119-1.751,8.196-3.593,12.293-5.394c1.907-0.846,3.912-1.603,5.837-2.501
		c1.872-0.876,3.684-2.343,5.837-2.502c0.105-2.884,0.992-6.497,0-9.172C113.316-7.918,105.261-9.636,97.405-12.041z M135.76-12.041
		c-0.533-0.022-0.577-0.534-1.251-0.417c-1.759,1.231-5.356,2.133-7.504,1.668c-0.459,1.745-1.358,3.756-2.085,5.003
		c-1.672,2.869-1.262,8.811-0.416,12.507c3.798,1.482,7.771,2.79,10.422,5.421c1.914-0.589,3.068-1.936,4.586-2.919
		c2.795-0.541,4.803-1.869,7.088-2.918c-0.621-4.032-1.547-6.769-0.834-11.257C141.389-6.275,138.04-8.623,135.76-12.041z
		 M244.782,67.034c1.04-1.563,1.993-3.177,2.881-4.747c2.271-4.02,4.67-7.367,6.084-11.79c0.994-3.113,2.072-5.889,2.918-8.756
		c0.86-2.912,1.52-6.374,2.501-8.755c0.399-0.964,0.98-1.916,1.251-2.918c0.68-2.515,0.92-5.555,1.251-8.339
		C262.5,14.733,263.109,5.306,260,0.467c-0.358-0.559-0.671-1.524-0.835-1.669c-5.758-5.123-18.73-0.924-25.409-0.392
		c-21.23,1.692-42.596,1.135-63.808,2.894c-7.217,0.599-14.3,1.207-21.264,1.251c1.076,1.8,0.837,3.934,0,5.837
		c1.643,1.525,3.258,3.089,5.004,4.585c0.162,0.141,0.656-0.124,0.834,0c0.12,0.087,0.271,0.703,0.416,0.834
		c1.397,1.273,2.843,2.206,4.17,3.336c1.672,1.424,3.226,3.132,5.002,4.586c9.838,8.052,20.075,15.553,29.969,23.529
		c7.474,6.023,14.589,12.918,21.786,19.416c4.245,3.831,10.938,12.786,17.452,12.504c1.708-0.074,3.222-1.498,4.588-2.502
		C240.596,72.698,242.841,69.95,244.782,67.034z M123.252,8.805c-0.904-0.624-0.666-2.392-2.084-2.501
		c-2.117-0.164-5.336,2.517-7.236,3.384c-2.932,1.338-5.968,2.429-8.92,3.717c-3.849,1.682-7.68,3.43-11.572,5.003
		c-3.43,1.386-7.168,2.095-10.398,3.944c-1.615,0.925-3.41,1.359-5.174,1.896c-4.394,1.335-8.629,3.119-12.982,4.569
		c-5.24,1.744-10.097,4.386-15.291,6.232c-4.256,1.516-8.538,3.197-12.226,5.857c-2.509,1.811-5.063,3.06-7.087,5.003
		c0.931,6.84,3.33,12.525,6.254,17.511c1.483,2.529,2.923,5.093,4.586,7.504c0.132,0.191,0.683,0.217,0.834,0.417
		c0.258,0.345,0.2,0.94,0.417,1.251c0.346,0.497,0.851,1.1,1.25,1.667c0.832,1.186,1.468,2.752,2.919,3.336
		c0.701-0.612,1.017-1.439,1.667-2.084c0.755-0.747,1.733-1.017,2.502-1.668c1.432-1.215,2.671-3.054,4.586-3.753
		c-1.901,3.796-6.077,5.319-8.339,8.756c1.991,2.42,3.91,4.848,6.254,7.087c1.738,1.66,3.496,3.69,5.003,5.004
		c0.686,0.598,1.448,0.698,2.085,1.251c0.141,0.122-0.134,0.7,0,0.834c0.142,0.141,0.682-0.134,0.834,0
		c0.298,0.26,0.501,0.563,0.834,0.834c1.008,0.819,2.148,1.494,2.918,2.084c0.312,0.238,0.451,0.582,0.834,0.834
		c3.584,2.359,7.013,3.355,11.674,3.335c1.461-1.504,2.575-3.214,3.752-5.003c1.134-1.726,2.148-3.695,3.335-5.421
		c0.02-0.027,0.361-0.357,0.417-0.416c0.335-0.351,0.494-0.896,0.834-1.25c0.326-0.342,0.125-0.381,0.417-0.834
		c0.544-0.849,1.511-1.646,2.085-2.502c1.185-1.768,2.203-3.644,3.335-5.42c1.74-2.734,3.479-5.622,5.003-7.922
		c1.262-1.905,2.242-3.778,3.335-5.419c1.306-1.961,2.254-3.507,3.335-5.421c1.277-2.26,2.987-4.932,4.17-6.671
		c0.697-1.024,1.172-1.979,1.668-2.918c0.166-0.316,0.61-0.859,0.834-1.25c1.955-3.426,4.273-6.612,5.905-10.219
		c2.467-5.451,4.412-11.063,7.018-16.464c0.95-1.967,2.065-3.785,2.919-5.837c0.264-0.634,0.137-1.066,0.417-1.668
		c0.692-1.482,1.899-2.912,2.084-4.586C126.276,10.507,125.467,8.953,123.252,8.805z M143.682,25.065
		c0.799,3.558,1.14,7.461,1.666,10.839c0.191,1.222,0.596,2.109,0.835,3.335c1.745,8.935,3.765,18.281,5.419,27.934
		c0.821,4.782,1.207,9.649,2.086,14.592c0.641,3.608,1.027,7.404,1.668,10.84c0.201,1.082,0.605,2.186,0.834,3.342
		c1.283,6.459,0.498,18.76,5.84,23.454c4.931,4.333,13.257,0.495,18.559-1.115c8.048-2.444,15.629-5.804,22.846-10.134
		c3.543-2.125,11.654-6.471,14.699-9.293c2.763-2.561,8.053-7.166,9.346-9.188c3.654-5.712,0.787-10.68-3.334-14.159
		c-2.384-2.015-4.981-3.846-6.67-5.421c-3.389-3.16-6.223-7.516-9.589-9.589c-0.44-0.271-0.485-0.548-0.834-0.834
		c-0.45-0.369-1.501-0.666-1.668-0.833c-0.135-0.135,0.142-0.707-0.001-0.835c-4.336-3.88-8.824-7.85-13.418-11.433
		c-5.691-4.438-11.037-9.262-16.93-13.445c-6.598-4.682-12.104-9.704-18.018-15.117c-1.924-1.76-4.115-3.167-6.154-4.779
		c-0.695-0.55-3.338-3.586-3.847-3.586c-0.278,0-0.556,0-0.834,0c-1.909,0.731-3.913,1.367-5.837,2.084
		C140.889,16.081,142.625,20.364,143.682,25.065z M134.092,14.225c-1.555-0.391-1.912-1.979-3.752-2.084
		c0.164,1.277-1.021,1.257-1.251,1.666c-0.793,1.415-0.878,3.368-1.521,4.889c-0.799,1.889-1.874,3.646-2.601,5.565
		c-1.024,2.707-2.559,5.173-3.753,7.802c-1.128,2.48-1.936,5.071-3.103,7.544c-2.604,5.519-5.761,10.752-9.034,15.892
		c-2.016,3.166-3.843,6.47-5.838,9.59c-4.936,7.719-9.116,16.004-14.402,23.49c-2.585,3.661-8.279,8.902-6.025,14.032
		c1.4,3.187,3.011,5.305,6.67,6.253c1.076,0.214,0.944-1.148,1.251-1.668c2.477-4.202,5.467-8.135,7.419-12.629
		c0.819-1.886,2.002-3.365,3.061-5.102c0.914-1.501,5.665-13.171,7.388-12.257c-1.988,5.41-5.313,10.577-8.111,15.604
		c-1.334,2.395-2.647,4.781-3.866,7.235c-0.674,1.359-1.634,2.524-2.44,3.799c-0.933,1.473-0.717,2.698-1.365,4.183
		c-0.324,0.746-1.983,0.915-1.25,2.084c1.979,1.004,4.32,2.582,5.837,3.336c2.451,1.218,5.015,2.122,7.087,2.919
		c0.946,0.364,1.971,0.951,2.919,1.25c2.02,0.638,4.352,0.681,6.67,1.251c4.087,1.007,7.908,2.473,12.091,3.336
		c9.771,2.017,19.624,1.891,28.351,0c2.509-3.556,1.838-10.115,1.25-13.758c-0.568-3.526-1.135-6.188-1.668-9.173
		c-1.445-8.101-2.818-16.354-3.752-24.598c-0.473-4.186-1.439-8.409-2.084-12.508c-0.639-4.049-1.158-8.189-2.085-12.09
		c-0.206-0.864-0.634-1.592-0.835-2.502c-0.234-1.068-0.197-2.229-0.416-3.335c-2.02-10.238-3.846-20.388-6.254-30.018
		C136.54,14.221,135.943,14.835,134.092,14.225z M48.625,84.266c-0.385-1.385-1.491-2.701-2.084-3.336
		c-0.663-0.708-1.729-2.129-2.085-2.501c-0.279-0.292-0.144-0.479-0.417-0.834c-0.552-0.715-1.57-1.359-2.084-2.084
		c-0.512-0.721-0.707-1.751-1.251-2.502c-0.549-0.758-1.568-1.318-2.085-2.085c-0.474-0.703-0.728-1.71-1.251-2.502
		c-0.342-0.517-0.725-1.94-1.667-1.666C39.152,73.45,43.653,79.094,48.625,84.266z"/>
</g>
</svg>
